<svg id="svg" version="1.1" xmlns="http://www.w3.org/2000/svg" xmlns:xlink="http://www.w3.org/1999/xlink" width="400" height="400" viewBox="0, 0, 400,400"><g id="svgg"><path id="path0" d="M81.200 152.779 C 73.224 154.417,64.383 161.921,61.012 169.915 C 58.954 174.795,58.706 177.158,58.885 190.200 L 59.043 201.800 60.262 205.200 C 64.476 216.951,72.245 224.198,82.744 226.171 C 87.696 227.102,122.183 227.107,123.511 226.177 C 124.686 225.355,124.914 211.371,123.771 210.229 C 123.226 209.683,121.415 209.600,110.007 209.600 C 91.839 209.600,89.483 209.085,84.393 204.003 C 76.299 195.923,76.953 180.228,85.680 173.077 C 89.697 169.786,89.455 169.825,107.239 169.600 C 119.952 169.439,123.211 169.290,123.748 168.844 C 124.337 168.354,124.404 167.400,124.309 160.855 L 124.200 153.423 123.200 152.917 C 122.094 152.358,83.864 152.232,81.200 152.779 M154.200 152.802 C 145.934 154.489,137.944 161.181,133.987 169.729 C 131.855 174.335,131.507 177.459,131.697 190.301 L 131.866 201.800 133.104 205.290 C 137.187 216.798,144.333 223.571,154.955 226.002 C 160.368 227.241,200.909 227.086,201.832 225.824 C 202.640 224.719,202.640 215.281,201.833 214.176 C 201.290 213.433,200.493 213.391,183.333 213.191 C 163.905 212.965,164.269 213.006,160.190 210.615 C 155.659 207.960,152.272 201.654,153.566 198.281 C 154.419 196.056,154.959 196.000,175.525 196.000 C 197.979 196.000,195.600 196.814,195.600 189.130 C 195.600 181.617,197.959 182.400,175.328 182.400 C 155.942 182.400,154.395 182.285,153.592 180.784 C 151.919 177.660,156.299 170.118,161.302 167.505 L 163.800 166.200 182.533 166.000 C 204.749 165.763,202.400 166.567,202.400 159.200 C 202.400 151.777,205.387 152.611,178.532 152.538 C 166.030 152.503,155.080 152.622,154.200 152.802 M211.600 152.667 C 210.227 153.182,210.000 154.108,210.000 159.200 C 210.000 166.274,209.278 165.755,219.467 166.000 C 233.921 166.347,233.089 164.231,233.529 201.733 C 233.790 224.003,233.829 224.886,234.576 225.433 C 235.191 225.881,237.179 226.000,244.095 226.000 L 252.836 226.000 253.818 225.018 L 254.800 224.036 254.800 195.673 C 254.800 179.793,254.636 166.443,254.427 165.341 C 253.388 159.862,250.560 155.723,246.491 153.725 L 244.200 152.600 228.200 152.521 C 219.400 152.477,211.930 152.543,211.600 152.667 M286.966 152.806 C 277.561 154.702,268.068 164.186,265.505 174.246 C 264.132 179.636,264.148 196.711,265.531 202.493 C 268.446 214.678,276.462 223.231,287.609 226.050 C 292.483 227.283,328.916 227.076,329.841 225.811 C 330.910 224.350,330.627 211.004,329.511 210.223 C 328.750 209.690,326.713 209.599,315.411 209.593 C 295.650 209.583,290.951 207.890,286.697 199.252 L 285.400 196.619 285.400 189.009 L 285.400 181.400 286.747 178.916 C 288.439 175.796,292.074 172.296,295.088 170.884 L 297.400 169.800 313.333 169.600 C 328.519 169.409,329.292 169.364,329.833 168.624 C 330.653 167.501,330.653 154.499,329.832 153.376 C 329.218 152.535,290.842 152.025,286.966 152.806 " stroke="none" fill="#b74d3b" fill-rule="evenodd"></path><path id="path1" d="M0.000 95.500 L 0.000 191.000 47.597 95.800 C 73.775 43.440,95.195 0.465,95.197 0.300 C 95.198 0.135,73.780 0.000,47.600 0.000 L 0.000 0.000 0.000 95.500 M304.800 0.195 C 304.800 0.920,340.885 72.357,341.557 72.964 C 342.023 73.384,354.956 98.854,370.298 129.564 C 385.639 160.274,398.596 186.120,399.091 187.000 L 399.990 188.600 399.995 94.300 L 400.000 0.000 352.400 0.000 C 326.220 0.000,304.800 0.088,304.800 0.195 M105.267 9.303 C 104.044 9.891,10.335 197.087,10.280 199.053 C 10.237 200.540,43.411 267.300,45.216 269.360 C 45.814 270.042,59.377 296.751,75.358 328.712 C 99.797 377.592,104.575 386.886,105.432 387.212 C 107.328 387.933,294.048 387.722,295.081 386.998 C 296.118 386.272,390.016 198.632,390.006 197.306 C 389.998 196.116,343.601 103.338,342.154 101.618 C 341.533 100.881,330.850 79.925,318.413 55.050 C 300.631 19.485,295.586 9.714,294.800 9.317 C 293.429 8.625,106.706 8.611,105.267 9.303 M277.815 141.381 C 282.596 143.378,280.364 147.911,272.620 151.932 C 269.670 153.463,266.569 155.261,265.728 155.927 C 264.816 156.649,262.749 157.575,260.600 158.226 C 256.038 159.606,256.166 159.455,256.945 162.557 C 257.881 166.285,257.944 224.002,257.014 226.227 C 255.993 228.672,254.990 228.855,243.376 228.719 L 233.217 228.600 232.108 227.491 L 231.000 226.383 230.736 203.491 C 230.302 165.986,231.439 169.114,218.128 168.800 C 208.494 168.573,207.952 168.403,206.782 165.254 L 206.163 163.590 205.313 165.602 C 203.932 168.871,204.403 168.800,184.059 168.800 C 162.250 168.800,160.961 169.128,157.457 175.567 C 155.445 179.262,153.967 178.973,176.023 179.200 C 200.567 179.453,198.600 178.582,198.600 189.200 C 198.600 199.819,200.568 198.947,176.018 199.200 L 156.600 199.400 156.471 200.307 C 156.079 203.067,159.303 207.200,163.280 209.036 L 165.800 210.200 183.800 210.309 C 206.943 210.449,205.200 209.676,205.200 219.800 C 205.200 230.421,207.372 229.600,179.264 229.600 C 157.409 229.600,157.284 229.595,153.523 228.641 C 141.748 225.654,133.415 216.950,129.552 203.601 C 128.382 199.559,128.427 177.132,129.613 172.851 C 132.162 163.652,139.305 155.569,148.536 151.439 L 152.200 149.800 177.200 149.695 C 205.747 149.575,204.037 149.374,205.423 153.005 L 206.138 154.877 206.776 153.150 C 207.182 152.052,207.916 151.084,208.789 150.496 L 210.164 149.569 227.982 149.685 C 248.004 149.814,246.259 149.557,250.963 153.070 C 253.984 155.326,254.085 155.200,254.282 148.919 C 254.482 142.527,254.562 142.155,255.905 141.426 C 257.490 140.566,275.775 140.528,277.815 141.381 M124.953 149.982 C 127.129 150.810,127.388 151.859,127.529 160.424 C 127.744 173.464,129.217 172.539,107.819 172.800 C 89.135 173.028,89.953 172.885,86.293 176.545 C 80.366 182.472,80.324 195.676,86.211 201.970 C 90.159 206.191,93.359 206.796,111.731 206.798 L 124.862 206.800 126.031 207.969 C 127.372 209.310,127.326 208.874,127.205 219.200 C 127.105 227.666,126.877 228.510,124.498 229.210 C 121.821 229.997,83.175 229.539,80.200 228.684 C 68.808 225.414,60.327 216.340,56.754 203.600 C 55.348 198.588,55.319 178.016,56.711 173.049 C 59.608 162.709,68.622 153.452,79.000 150.161 C 80.976 149.534,123.341 149.369,124.953 149.982 M330.953 149.982 C 333.200 150.836,333.400 151.759,333.400 161.241 C 333.400 173.598,335.195 172.539,313.800 172.800 L 297.400 173.000 295.258 174.187 C 289.758 177.233,288.200 180.547,288.200 189.200 C 288.200 196.821,288.766 198.594,292.357 202.235 C 296.292 206.224,299.275 206.767,317.331 206.786 L 330.862 206.800 332.031 207.969 L 333.200 209.138 333.200 217.750 C 333.200 230.721,335.677 229.470,309.800 229.564 C 284.126 229.657,281.166 229.005,273.383 221.541 C 264.261 212.793,261.601 205.255,261.601 188.151 C 261.599 167.488,267.383 157.365,282.821 151.006 L 286.200 149.615 308.074 149.607 C 321.027 149.603,330.358 149.756,330.953 149.982 M352.021 301.608 C 303.430 398.826,303.347 398.984,300.732 399.603 C 300.000 399.776,322.035 399.937,349.700 399.959 L 400.000 400.000 400.000 303.000 C 400.000 249.650,399.955 206.003,399.900 206.007 C 399.845 206.011,378.299 249.032,352.021 301.608 M0.015 303.700 L 0.000 400.000 50.500 399.960 C 82.556 399.934,100.420 399.784,99.413 399.548 C 96.708 398.915,96.561 398.645,71.347 348.202 C 57.820 321.141,46.327 298.550,45.806 298.000 C 45.285 297.450,34.772 276.840,22.444 252.200 L 0.029 207.400 0.015 303.700 " stroke="none" fill="#fbfbfb" fill-rule="evenodd"></path><path id="path2" d="M97.200 1.394 C 97.200 2.755,3.647 190.742,2.094 192.500 C 1.754 192.885,1.144 193.200,0.738 193.200 C 0.055 193.200,0.000 193.629,0.000 199.000 C 0.000 203.550,0.114 204.800,0.530 204.800 C 1.723 204.800,3.622 208.399,24.949 251.072 C 37.174 275.532,47.692 296.142,48.322 296.872 C 48.953 297.603,60.390 320.070,73.738 346.800 C 88.606 376.575,98.402 395.749,99.026 396.300 L 100.045 397.200 199.968 397.200 L 299.892 397.200 300.968 396.354 C 301.733 395.752,315.742 368.110,349.621 300.349 C 402.431 194.728,397.879 203.652,399.100 203.342 C 400.234 203.054,400.555 191.600,399.429 191.600 C 398.289 191.600,396.676 188.498,368.537 132.200 C 352.813 100.740,339.522 74.550,339.001 74.000 C 337.486 72.399,302.800 2.676,302.800 1.232 L 302.800 0.000 200.000 0.000 L 97.200 0.000 97.200 1.394 M296.667 7.242 C 297.886 7.995,300.437 12.898,320.862 53.742 C 333.419 78.854,344.168 99.943,344.747 100.606 C 345.945 101.979,393.200 196.313,393.200 197.333 C 393.200 199.125,297.994 388.415,296.694 389.208 C 295.415 389.988,294.258 389.997,199.914 389.999 L 104.428 390.000 103.071 388.809 C 101.997 387.865,95.704 375.594,72.770 329.723 C 56.850 297.881,43.346 271.282,42.761 270.614 C 41.091 268.708,7.200 200.628,7.200 199.180 C 7.200 197.260,101.192 9.402,103.004 7.700 L 104.388 6.400 199.847 6.400 L 295.306 6.400 296.667 7.242 " stroke="none" fill="#040404" fill-rule="evenodd"></path><path id="path3" d="M304.020 1.635 C 304.042 2.227,307.944 10.003,307.980 9.525 C 307.991 9.374,307.100 7.410,306.000 5.161 C 304.900 2.911,304.009 1.325,304.020 1.635 M152.500 7.900 C 178.625 7.957,221.375 7.957,247.500 7.900 C 273.625 7.843,252.250 7.797,200.000 7.797 C 147.750 7.797,126.375 7.843,152.500 7.900 M91.878 9.805 C 91.512 10.572,91.295 11.200,91.396 11.200 C 91.670 11.200,92.884 8.751,92.701 8.568 C 92.614 8.481,92.244 9.038,91.878 9.805 M100.800 13.600 C 99.696 15.800,98.883 17.600,98.993 17.600 C 99.103 17.600,100.096 15.800,101.200 13.600 C 102.304 11.400,103.117 9.600,103.007 9.600 C 102.897 9.600,101.904 11.400,100.800 13.600 M312.487 18.981 C 314.954 23.920,317.034 27.899,317.110 27.824 C 317.285 27.648,308.463 10.000,308.199 10.000 C 308.091 10.000,310.021 14.041,312.487 18.981 M87.978 17.498 C 87.074 19.301,87.087 19.479,88.020 18.083 C 88.504 17.359,88.817 16.683,88.715 16.582 C 88.613 16.480,88.281 16.892,87.978 17.498 M97.878 19.405 C 97.512 20.172,97.295 20.800,97.396 20.800 C 97.670 20.800,98.884 18.351,98.701 18.168 C 98.614 18.081,98.244 18.638,97.878 19.405 M302.678 20.995 C 303.044 21.762,303.414 22.319,303.501 22.232 C 303.684 22.049,302.470 19.600,302.196 19.600 C 302.095 19.600,302.312 20.228,302.678 20.995 M96.081 23.009 C 95.602 23.994,95.294 24.800,95.397 24.800 C 95.668 24.800,97.284 21.551,97.103 21.370 C 97.019 21.286,96.559 22.024,96.081 23.009 M91.487 32.219 C 89.571 36.058,88.091 39.200,88.199 39.200 C 88.463 39.200,95.285 25.552,95.109 25.376 C 95.033 25.300,93.403 28.379,91.487 32.219 M82.678 28.205 C 82.312 28.972,82.095 29.600,82.196 29.600 C 82.470 29.600,83.684 27.151,83.501 26.968 C 83.414 26.881,83.044 27.438,82.678 28.205 M317.878 29.795 C 318.244 30.562,318.614 31.119,318.701 31.032 C 318.884 30.849,317.670 28.400,317.396 28.400 C 317.295 28.400,317.512 29.028,317.878 29.795 M307.203 30.090 C 307.201 30.250,307.559 30.970,307.999 31.690 C 308.438 32.411,308.796 32.820,308.796 32.600 C 308.795 32.380,308.437 31.660,308.000 31.000 C 307.563 30.340,307.204 29.931,307.203 30.090 M323.287 40.581 C 325.754 45.520,327.834 49.499,327.910 49.424 C 328.085 49.248,319.263 31.600,318.999 31.600 C 318.891 31.600,320.821 35.641,323.287 40.581 M311.878 39.395 C 312.244 40.162,312.614 40.719,312.701 40.632 C 312.884 40.449,311.670 38.000,311.396 38.000 C 311.295 38.000,311.512 38.628,311.878 39.395 M83.287 48.619 C 80.821 53.559,78.891 57.600,78.999 57.600 C 79.263 57.600,88.085 39.952,87.910 39.776 C 87.834 39.701,85.754 43.680,83.287 48.619 M75.178 43.098 C 74.274 44.901,74.287 45.079,75.220 43.683 C 75.704 42.959,76.017 42.283,75.915 42.182 C 75.813 42.080,75.481 42.492,75.178 43.098 M71.878 49.805 C 71.512 50.572,71.295 51.200,71.396 51.200 C 71.670 51.200,72.884 48.751,72.701 48.568 C 72.614 48.481,72.244 49.038,71.878 49.805 M332.487 58.981 C 334.954 63.920,337.034 67.899,337.110 67.824 C 337.285 67.648,328.463 50.000,328.199 50.000 C 328.091 50.000,330.021 54.041,332.487 58.981 M67.978 57.498 C 67.074 59.301,67.087 59.479,68.020 58.083 C 68.504 57.359,68.817 56.683,68.715 56.582 C 68.613 56.480,68.281 56.892,67.978 57.498 M77.878 59.405 C 77.512 60.172,77.295 60.800,77.396 60.800 C 77.670 60.800,78.884 58.351,78.701 58.168 C 78.614 58.081,78.244 58.638,77.878 59.405 M322.678 60.995 C 323.044 61.762,323.414 62.319,323.501 62.232 C 323.684 62.049,322.470 59.600,322.196 59.600 C 322.095 59.600,322.312 60.228,322.678 60.995 M76.081 63.009 C 75.602 63.994,75.294 64.800,75.397 64.800 C 75.668 64.800,77.284 61.551,77.103 61.370 C 77.019 61.286,76.559 62.024,76.081 63.009 M71.487 72.219 C 69.571 76.058,68.091 79.200,68.199 79.200 C 68.463 79.200,75.285 65.552,75.109 65.376 C 75.033 65.300,73.403 68.379,71.487 72.219 M62.678 68.205 C 62.312 68.972,62.095 69.600,62.196 69.600 C 62.470 69.600,63.684 67.151,63.501 66.968 C 63.414 66.881,63.044 67.438,62.678 68.205 M338.362 70.724 C 339.007 72.002,339.849 73.307,340.232 73.624 C 340.616 73.941,341.260 74.740,341.663 75.400 C 342.067 76.060,342.398 76.376,342.399 76.101 C 342.399 75.827,341.793 74.927,341.052 74.101 C 340.310 73.276,339.227 71.655,338.645 70.500 C 338.063 69.345,337.497 68.400,337.388 68.400 C 337.278 68.400,337.716 69.446,338.362 70.724 M327.203 70.090 C 327.201 70.250,327.559 70.970,327.999 71.690 C 328.438 72.411,328.796 72.820,328.796 72.600 C 328.795 72.380,328.437 71.660,328.000 71.000 C 327.563 70.340,327.204 69.931,327.203 70.090 M331.878 79.395 C 332.244 80.162,332.614 80.719,332.701 80.632 C 332.884 80.449,331.670 78.000,331.396 78.000 C 331.295 78.000,331.512 78.628,331.878 79.395 M63.287 88.619 C 60.821 93.559,58.891 97.600,58.999 97.600 C 59.263 97.600,68.085 79.952,67.910 79.776 C 67.834 79.701,65.754 83.680,63.287 88.619 M344.015 80.200 C 344.020 80.420,344.468 81.320,345.010 82.200 C 345.552 83.080,345.991 83.620,345.985 83.400 C 345.980 83.180,345.532 82.280,344.990 81.400 C 344.448 80.520,344.009 79.980,344.015 80.200 M55.178 83.098 C 54.274 84.901,54.287 85.079,55.220 83.683 C 55.704 82.959,56.017 82.283,55.915 82.182 C 55.813 82.080,55.481 82.492,55.178 83.098 M51.878 89.805 C 51.512 90.572,51.295 91.200,51.396 91.200 C 51.670 91.200,52.884 88.751,52.701 88.568 C 52.614 88.481,52.244 89.038,51.878 89.805 M47.978 97.498 C 47.074 99.301,47.087 99.479,48.020 98.083 C 48.504 97.359,48.817 96.683,48.715 96.582 C 48.613 96.480,48.281 96.892,47.978 97.498 M57.878 99.405 C 57.512 100.172,57.295 100.800,57.396 100.800 C 57.670 100.800,58.884 98.351,58.701 98.168 C 58.614 98.081,58.244 98.638,57.878 99.405 M343.200 101.200 C 343.897 102.080,344.557 102.800,344.667 102.800 C 344.777 102.800,344.297 102.080,343.600 101.200 C 342.903 100.320,342.243 99.600,342.133 99.600 C 342.023 99.600,342.503 100.320,343.200 101.200 M56.081 103.009 C 55.602 103.994,55.294 104.800,55.397 104.800 C 55.668 104.800,57.284 101.551,57.103 101.370 C 57.019 101.286,56.559 102.024,56.081 103.009 M344.800 103.342 C 344.800 103.777,347.986 110.000,348.209 110.000 C 348.388 110.000,345.328 103.640,344.954 103.233 C 344.869 103.142,344.800 103.191,344.800 103.342 M51.487 112.219 C 49.571 116.058,48.091 119.200,48.199 119.200 C 48.463 119.200,55.285 105.552,55.109 105.376 C 55.033 105.300,53.403 108.379,51.487 112.219 M42.678 108.205 C 42.312 108.972,42.095 109.600,42.196 109.600 C 42.470 109.600,43.684 107.151,43.501 106.968 C 43.414 106.881,43.044 107.438,42.678 108.205 M348.400 110.549 C 348.400 110.981,349.989 114.000,350.216 114.000 C 350.326 114.000,350.030 113.235,349.559 112.300 C 348.632 110.461,348.400 110.111,348.400 110.549 M350.400 114.553 C 350.400 114.982,351.590 117.200,351.821 117.200 C 351.931 117.200,351.723 116.615,351.359 115.900 C 350.617 114.440,350.400 114.136,350.400 114.553 M43.287 128.619 C 40.821 133.559,38.891 137.600,38.999 137.600 C 39.263 137.600,48.085 119.952,47.910 119.776 C 47.834 119.701,45.754 123.680,43.287 128.619 M354.000 121.753 C 354.000 122.182,355.190 124.400,355.421 124.400 C 355.531 124.400,355.323 123.815,354.959 123.100 C 354.217 121.640,354.000 121.336,354.000 121.753 M355.600 124.949 C 355.600 125.381,357.189 128.400,357.416 128.400 C 357.526 128.400,357.230 127.635,356.759 126.700 C 355.832 124.861,355.600 124.511,355.600 124.949 M31.878 129.805 C 31.512 130.572,31.295 131.200,31.396 131.200 C 31.670 131.200,32.884 128.751,32.701 128.568 C 32.614 128.481,32.244 129.038,31.878 129.805 M357.600 128.942 C 357.600 129.377,360.786 135.600,361.009 135.600 C 361.188 135.600,358.128 129.240,357.754 128.833 C 357.669 128.742,357.600 128.791,357.600 128.942 M361.200 136.153 C 361.200 136.582,362.390 138.800,362.621 138.800 C 362.731 138.800,362.523 138.215,362.159 137.500 C 361.417 136.040,361.200 135.736,361.200 136.153 M27.978 137.498 C 27.074 139.301,27.087 139.479,28.020 138.083 C 28.504 137.359,28.817 136.683,28.715 136.582 C 28.613 136.480,28.281 136.892,27.978 137.498 M37.878 139.405 C 37.512 140.172,37.295 140.800,37.396 140.800 C 37.670 140.800,38.884 138.351,38.701 138.168 C 38.614 138.081,38.244 138.638,37.878 139.405 M363.200 140.153 C 363.200 140.582,364.390 142.800,364.621 142.800 C 364.731 142.800,364.523 142.215,364.159 141.500 C 363.417 140.040,363.200 139.736,363.200 140.153 M32.487 150.219 C 30.021 155.159,28.091 159.200,28.199 159.200 C 28.463 159.200,37.285 141.552,37.110 141.376 C 37.034 141.301,34.954 145.280,32.487 150.219 M258.104 142.267 C 256.295 142.646,256.000 143.735,256.000 150.027 C 256.000 158.741,256.720 158.939,266.945 153.045 C 268.955 151.886,272.059 150.181,273.842 149.255 C 277.955 147.119,279.348 144.467,277.100 143.052 C 276.198 142.485,260.216 141.824,258.104 142.267 M276.174 143.190 C 280.101 144.683,275.822 148.243,261.891 155.072 C 258.742 156.616,257.413 156.745,256.784 155.569 C 256.130 154.348,256.432 144.322,257.149 143.460 C 257.786 142.694,274.254 142.460,276.174 143.190 M364.800 143.342 C 364.800 143.777,367.986 150.000,368.209 150.000 C 368.388 150.000,365.328 143.640,364.954 143.233 C 364.869 143.142,364.800 143.191,364.800 143.342 M22.678 148.205 C 22.312 148.972,22.095 149.600,22.196 149.600 C 22.470 149.600,23.684 147.151,23.501 146.968 C 23.414 146.881,23.044 147.438,22.678 148.205 M368.400 150.549 C 368.400 150.981,369.989 154.000,370.216 154.000 C 370.326 154.000,370.030 153.235,369.559 152.300 C 368.632 150.461,368.400 150.111,368.400 150.549 M79.800 151.485 C 70.669 153.675,61.053 163.512,58.330 173.449 C 57.282 177.273,56.791 194.160,57.580 199.245 C 59.893 214.153,70.058 225.249,83.384 227.410 C 87.834 228.132,121.493 228.275,123.485 227.580 C 125.380 226.920,125.600 225.898,125.600 217.763 C 125.600 210.440,125.590 210.353,124.618 209.382 L 123.636 208.400 110.462 208.400 C 89.962 208.400,86.180 207.131,82.106 198.889 L 80.600 195.841 80.600 189.221 C 80.600 180.214,82.700 175.999,88.896 172.566 L 91.000 171.400 107.489 171.200 L 123.979 171.000 124.889 170.089 C 126.337 168.642,126.308 153.141,124.856 151.965 C 123.948 151.230,82.696 150.790,79.800 151.485 M150.130 152.540 C 143.348 155.291,137.916 159.973,134.227 166.250 C 130.732 172.195,130.600 173.010,130.602 188.600 L 130.604 202.200 132.084 206.152 C 136.292 217.381,143.341 224.155,153.695 226.918 C 156.915 227.777,157.575 227.800,179.289 227.800 L 201.577 227.800 202.489 226.889 C 203.745 225.633,203.908 214.137,202.686 212.914 C 202.029 212.256,200.538 212.183,183.686 211.984 C 163.412 211.744,163.724 211.783,159.899 208.983 C 155.395 205.685,153.142 199.654,155.760 197.906 C 156.002 197.744,164.390 197.605,174.400 197.597 C 198.682 197.576,196.769 198.287,196.787 189.274 C 196.806 180.066,198.731 180.805,174.733 180.802 C 164.686 180.801,156.167 180.685,155.802 180.545 C 152.660 179.340,156.731 171.665,162.040 168.788 L 164.600 167.400 183.200 167.200 C 201.811 167.000,202.893 166.918,203.421 165.669 C 203.850 164.653,204.137 156.711,203.821 154.602 C 203.271 150.936,205.299 151.199,177.700 151.207 L 153.400 151.213 150.130 152.540 M210.092 151.468 C 207.725 152.420,207.660 165.548,210.016 166.808 C 210.421 167.025,214.204 167.200,218.489 167.200 C 232.635 167.200,231.910 165.334,232.343 202.889 L 232.600 225.179 233.511 226.089 C 234.937 227.515,253.463 227.515,254.889 226.089 L 255.800 225.178 255.913 195.089 L 256.026 165.000 255.004 161.713 C 253.732 157.621,250.938 154.331,247.110 152.418 L 244.672 151.200 227.636 151.232 C 218.266 151.249,210.371 151.355,210.092 151.468 M282.385 152.925 C 272.693 157.295,266.123 165.056,264.005 174.637 C 262.870 179.773,262.851 196.144,263.975 201.226 C 267.242 215.995,276.805 225.703,289.977 227.623 C 293.520 228.139,328.717 227.960,330.046 227.419 C 331.995 226.626,332.483 211.246,330.618 209.382 L 329.636 208.400 316.118 208.393 C 295.924 208.383,291.893 206.978,287.729 198.500 C 285.980 194.938,285.992 183.399,287.749 179.932 C 289.286 176.899,292.454 173.759,295.400 172.349 L 297.800 171.201 312.800 171.198 C 333.527 171.195,331.800 172.131,331.800 160.903 C 331.800 149.904,334.972 151.200,308.056 151.202 L 286.200 151.204 282.385 152.925 M124.400 152.400 C 125.441 153.441,125.641 168.043,124.633 169.424 C 124.092 170.164,123.317 170.209,107.933 170.400 L 91.800 170.600 89.315 171.748 C 76.629 177.608,75.986 199.421,88.287 206.630 C 91.842 208.713,95.957 209.189,110.471 209.195 C 121.817 209.199,123.626 209.283,124.171 209.829 C 124.862 210.519,125.125 224.869,124.466 225.907 C 123.548 227.353,91.360 227.905,83.400 226.612 C 71.112 224.616,62.014 215.427,58.759 201.724 C 57.660 197.095,57.790 176.986,58.946 173.000 C 61.507 164.160,68.514 156.678,77.730 152.940 L 81.000 151.613 102.300 151.607 C 123.071 151.600,123.620 151.620,124.400 152.400 M202.400 152.400 C 203.650 153.650,203.616 164.699,202.359 165.838 C 201.563 166.558,200.490 166.611,182.859 166.800 L 164.200 167.000 161.708 168.302 C 156.349 171.101,152.331 178.629,155.054 180.771 C 156.087 181.583,156.491 181.600,175.210 181.600 C 198.640 181.600,196.200 180.722,196.200 189.151 C 196.200 197.496,198.770 196.559,175.228 196.800 C 156.725 196.989,155.638 197.041,154.842 197.762 C 152.051 200.289,156.285 208.390,161.729 210.939 C 165.404 212.659,167.134 212.800,184.620 212.800 C 204.777 212.800,202.800 212.044,202.800 219.756 C 202.800 224.432,202.703 225.231,202.036 226.056 L 201.271 227.000 180.593 227.114 C 154.630 227.257,151.826 226.871,144.779 222.186 C 138.830 218.231,133.298 209.847,131.611 202.228 C 130.986 199.410,130.641 179.755,131.157 176.464 C 132.872 165.545,140.697 156.384,151.596 152.536 C 155.437 151.180,201.058 151.058,202.400 152.400 M246.688 152.807 C 250.993 154.958,253.728 158.586,254.976 163.800 C 256.009 168.115,255.379 224.393,254.286 225.486 C 253.198 226.574,235.204 226.574,234.115 225.486 C 233.453 224.825,233.380 223.155,233.126 202.886 C 232.972 190.517,232.675 180.217,232.444 179.200 C 232.219 178.210,232.023 176.230,232.009 174.800 C 231.941 168.059,230.360 167.061,219.341 166.800 C 208.434 166.542,209.200 167.121,209.200 159.138 C 209.200 150.740,207.108 151.600,227.536 151.600 L 244.272 151.600 246.688 152.807 M330.400 152.400 C 331.441 153.441,331.641 168.043,330.633 169.424 C 330.092 170.164,329.317 170.209,313.933 170.400 L 297.800 170.600 295.200 171.847 C 292.188 173.291,289.020 176.311,287.342 179.339 L 286.200 181.400 286.200 189.200 L 286.200 197.000 287.400 199.386 C 291.522 207.582,296.280 209.200,316.252 209.200 C 327.866 209.200,329.419 209.274,330.069 209.862 C 331.196 210.883,331.175 224.648,330.044 226.045 L 329.288 226.979 309.344 226.990 C 287.033 227.001,287.384 227.038,281.048 224.067 C 273.598 220.575,267.587 212.565,264.937 202.600 C 263.414 196.869,263.272 178.974,264.710 173.800 C 267.496 163.775,276.989 154.094,286.200 151.885 C 289.214 151.162,329.633 151.633,330.400 152.400 M380.415 153.000 C 380.420 153.220,380.868 154.120,381.410 155.000 C 381.952 155.880,382.391 156.420,382.385 156.200 C 382.380 155.980,381.932 155.080,381.390 154.200 C 380.848 153.320,380.409 152.780,380.415 153.000 M370.400 154.553 C 370.400 154.982,371.590 157.200,371.821 157.200 C 371.931 157.200,371.723 156.615,371.359 155.900 C 370.617 154.440,370.400 154.136,370.400 154.553 M23.287 168.619 C 20.821 173.559,18.891 177.600,18.999 177.600 C 19.263 177.600,28.085 159.952,27.910 159.776 C 27.834 159.701,25.754 163.680,23.287 168.619 M374.000 161.742 C 374.000 162.177,377.186 168.400,377.409 168.400 C 377.588 168.400,374.528 162.040,374.154 161.633 C 374.069 161.542,374.000 161.591,374.000 161.742 M11.878 169.805 C 11.512 170.572,11.295 171.200,11.396 171.200 C 11.670 171.200,12.884 168.751,12.701 168.568 C 12.614 168.481,12.244 169.038,11.878 169.805 M377.600 168.942 C 377.600 169.377,380.786 175.600,381.009 175.600 C 381.188 175.600,378.128 169.240,377.754 168.833 C 377.669 168.742,377.600 168.791,377.600 168.942 M381.200 176.153 C 381.200 176.582,382.390 178.800,382.621 178.800 C 382.731 178.800,382.523 178.215,382.159 177.500 C 381.417 176.040,381.200 175.736,381.200 176.153 M7.978 177.498 C 7.074 179.301,7.087 179.479,8.020 178.083 C 8.504 177.359,8.817 176.683,8.715 176.582 C 8.613 176.480,8.281 176.892,7.978 177.498 M17.878 179.405 C 17.512 180.172,17.295 180.800,17.396 180.800 C 17.670 180.800,18.884 178.351,18.701 178.168 C 18.614 178.081,18.244 178.638,17.878 179.405 M383.200 180.139 C 383.200 180.575,387.985 190.000,388.206 190.000 C 388.385 190.000,383.731 180.440,383.354 180.033 C 383.269 179.942,383.200 179.989,383.200 180.139 M13.086 189.022 C 10.949 193.303,9.210 196.939,9.221 197.103 C 9.233 197.266,11.044 193.826,13.245 189.457 C 15.446 185.088,17.185 181.452,17.109 181.376 C 17.033 181.300,15.223 184.741,13.086 189.022 M396.815 185.800 C 396.817 186.020,397.186 186.650,397.636 187.200 C 398.179 187.864,398.315 187.931,398.040 187.400 C 397.366 186.095,396.812 185.372,396.815 185.800 M388.400 190.549 C 388.400 190.981,389.989 194.000,390.216 194.000 C 390.326 194.000,390.030 193.235,389.559 192.300 C 388.632 190.461,388.400 190.111,388.400 190.549 M391.254 197.067 C 391.225 197.544,391.096 198.264,390.970 198.667 C 390.752 199.361,390.764 199.362,391.196 198.688 C 391.447 198.297,391.575 197.577,391.481 197.088 C 391.309 196.201,391.309 196.201,391.254 197.067 M389.878 201.005 C 389.512 201.772,389.295 202.400,389.396 202.400 C 389.670 202.400,390.884 199.951,390.701 199.768 C 390.614 199.681,390.244 200.238,389.878 201.005 M9.200 201.353 C 9.200 201.782,10.390 204.000,10.621 204.000 C 10.731 204.000,10.523 203.415,10.159 202.700 C 9.417 201.240,9.200 200.936,9.200 201.353 M388.278 204.205 C 387.912 204.972,387.695 205.600,387.796 205.600 C 388.070 205.600,389.284 203.151,389.101 202.968 C 389.014 202.881,388.644 203.438,388.278 204.205 M396.669 209.151 C 395.641 211.101,394.803 212.855,394.808 213.048 C 394.812 213.242,395.714 211.707,396.812 209.638 C 397.911 207.569,398.748 205.815,398.674 205.741 C 398.600 205.666,397.698 207.201,396.669 209.151 M386.278 208.205 C 385.912 208.972,385.695 209.600,385.796 209.600 C 386.070 209.600,387.284 207.151,387.101 206.968 C 387.014 206.881,386.644 207.438,386.278 208.205 M1.207 207.314 C 1.203 207.487,1.738 208.567,2.396 209.714 C 3.054 210.861,3.591 211.620,3.589 211.400 C 3.586 210.923,1.217 206.860,1.207 207.314 M12.800 208.553 C 12.800 208.982,13.990 211.200,14.221 211.200 C 14.331 211.200,14.123 210.615,13.759 209.900 C 13.017 208.440,12.800 208.136,12.800 208.553 M384.278 212.205 C 383.912 212.972,383.695 213.600,383.796 213.600 C 384.070 213.600,385.284 211.151,385.101 210.968 C 385.014 210.881,384.644 211.438,384.278 212.205 M5.285 215.385 C 6.208 217.247,7.028 218.705,7.107 218.626 C 7.285 218.449,4.065 212.000,3.798 212.000 C 3.693 212.000,4.361 213.523,5.285 215.385 M14.800 212.553 C 14.800 212.982,15.990 215.200,16.221 215.200 C 16.331 215.200,16.123 214.615,15.759 213.900 C 15.017 212.440,14.800 212.136,14.800 212.553 M382.678 215.405 C 382.312 216.172,382.095 216.800,382.196 216.800 C 382.470 216.800,383.684 214.351,383.501 214.168 C 383.414 214.081,383.044 214.638,382.678 215.405 M393.381 215.637 C 393.029 216.318,392.812 216.945,392.899 217.032 C 392.986 217.119,393.356 216.562,393.722 215.795 C 394.544 214.070,394.259 213.938,393.381 215.637 M16.400 215.753 C 16.400 216.182,17.590 218.400,17.821 218.400 C 17.931 218.400,17.723 217.815,17.359 217.100 C 16.617 215.640,16.400 215.336,16.400 215.753 M380.881 219.009 C 380.402 219.994,380.094 220.800,380.197 220.800 C 380.468 220.800,382.084 217.551,381.903 217.370 C 381.819 217.286,381.359 218.024,380.881 219.009 M391.781 218.837 C 391.429 219.518,391.212 220.145,391.299 220.232 C 391.386 220.319,391.756 219.762,392.122 218.995 C 392.944 217.270,392.659 217.138,391.781 218.837 M18.400 219.753 C 18.400 220.182,19.590 222.400,19.821 222.400 C 19.931 222.400,19.723 221.815,19.359 221.100 C 18.617 219.640,18.400 219.336,18.400 219.753 M8.278 221.395 C 8.644 222.162,9.014 222.719,9.101 222.632 C 9.284 222.449,8.070 220.000,7.796 220.000 C 7.695 220.000,7.912 220.628,8.278 221.395 M379.078 222.605 C 378.712 223.372,378.495 224.000,378.596 224.000 C 378.870 224.000,380.084 221.551,379.901 221.368 C 379.814 221.281,379.444 221.838,379.078 222.605 M389.781 222.837 C 389.429 223.518,389.212 224.145,389.299 224.232 C 389.386 224.319,389.756 223.762,390.122 222.995 C 390.944 221.270,390.659 221.138,389.781 222.837 M20.000 222.953 C 20.000 223.382,21.190 225.600,21.421 225.600 C 21.531 225.600,21.323 225.015,20.959 224.300 C 20.217 222.840,20.000 222.536,20.000 222.953 M12.687 230.181 C 14.603 234.021,16.233 237.100,16.309 237.024 C 16.485 236.848,9.663 223.200,9.399 223.200 C 9.291 223.200,10.771 226.342,12.687 230.181 M387.179 228.041 C 386.283 229.824,385.614 231.347,385.693 231.426 C 385.772 231.505,386.592 230.047,387.515 228.185 C 388.439 226.323,389.107 224.800,389.002 224.800 C 388.896 224.800,388.076 226.259,387.179 228.041 M22.000 226.953 C 22.000 227.382,23.190 229.600,23.421 229.600 C 23.531 229.600,23.323 229.015,22.959 228.300 C 22.217 226.840,22.000 226.536,22.000 226.953 M375.478 229.805 C 375.112 230.572,374.895 231.200,374.996 231.200 C 375.270 231.200,376.484 228.751,376.301 228.568 C 376.214 228.481,375.844 229.038,375.478 229.805 M384.380 233.639 C 383.920 234.540,383.613 235.346,383.697 235.430 C 383.781 235.514,384.241 234.776,384.719 233.791 C 385.809 231.547,385.515 231.415,384.380 233.639 M373.478 233.805 C 373.112 234.572,372.895 235.200,372.996 235.200 C 373.270 235.200,374.484 232.751,374.301 232.568 C 374.214 232.481,373.844 233.038,373.478 233.805 M25.600 234.153 C 25.600 234.582,26.790 236.800,27.021 236.800 C 27.131 236.800,26.923 236.215,26.559 235.500 C 25.817 234.040,25.600 233.736,25.600 234.153 M371.878 237.005 C 371.512 237.772,371.295 238.400,371.396 238.400 C 371.670 238.400,372.884 235.951,372.701 235.768 C 372.614 235.681,372.244 236.238,371.878 237.005 M382.581 237.237 C 382.229 237.918,382.012 238.545,382.099 238.632 C 382.186 238.719,382.556 238.162,382.922 237.395 C 383.744 235.670,383.459 235.538,382.581 237.237 M27.200 237.349 C 27.200 237.781,28.789 240.800,29.016 240.800 C 29.126 240.800,28.830 240.035,28.359 239.100 C 27.432 237.261,27.200 236.911,27.200 237.349 M17.078 238.995 C 17.444 239.762,17.814 240.319,17.901 240.232 C 18.084 240.049,16.870 237.600,16.596 237.600 C 16.495 237.600,16.712 238.228,17.078 238.995 M369.878 241.005 C 369.512 241.772,369.295 242.400,369.396 242.400 C 369.670 242.400,370.884 239.951,370.701 239.768 C 370.614 239.681,370.244 240.238,369.878 241.005 M380.581 241.237 C 380.229 241.918,380.012 242.545,380.099 242.632 C 380.186 242.719,380.556 242.162,380.922 241.395 C 381.744 239.670,381.459 239.538,380.581 241.237 M29.200 241.353 C 29.200 241.782,30.390 244.000,30.621 244.000 C 30.731 244.000,30.523 243.415,30.159 242.700 C 29.417 241.240,29.200 240.936,29.200 241.353 M20.886 246.583 C 22.251 249.323,23.431 251.502,23.508 251.425 C 23.685 251.248,18.864 241.600,18.599 241.600 C 18.492 241.600,19.521 243.842,20.886 246.583 M368.278 244.205 C 367.912 244.972,367.695 245.600,367.796 245.600 C 368.070 245.600,369.284 243.151,369.101 242.968 C 369.014 242.881,368.644 243.438,368.278 244.205 M377.179 248.042 C 375.844 250.706,374.815 252.948,374.892 253.025 C 374.969 253.102,376.149 250.923,377.514 248.183 C 378.879 245.442,379.908 243.200,379.801 243.200 C 379.694 243.200,378.514 245.379,377.179 248.042 M366.278 248.205 C 365.912 248.972,365.695 249.600,365.796 249.600 C 366.070 249.600,367.284 247.151,367.101 246.968 C 367.014 246.881,366.644 247.438,366.278 248.205 M32.800 248.553 C 32.800 248.982,33.990 251.200,34.221 251.200 C 34.331 251.200,34.123 250.615,33.759 249.900 C 33.017 248.440,32.800 248.136,32.800 248.553 M364.278 252.205 C 363.912 252.972,363.695 253.600,363.796 253.600 C 364.070 253.600,365.284 251.151,365.101 250.968 C 365.014 250.881,364.644 251.438,364.278 252.205 M25.285 255.385 C 26.208 257.247,27.028 258.705,27.107 258.626 C 27.285 258.449,24.065 252.000,23.798 252.000 C 23.693 252.000,24.361 253.523,25.285 255.385 M34.800 252.553 C 34.800 252.982,35.990 255.200,36.221 255.200 C 36.331 255.200,36.123 254.615,35.759 253.900 C 35.017 252.440,34.800 252.136,34.800 252.553 M362.678 255.405 C 362.312 256.172,362.095 256.800,362.196 256.800 C 362.470 256.800,363.684 254.351,363.501 254.168 C 363.414 254.081,363.044 254.638,362.678 255.405 M373.381 255.637 C 373.029 256.318,372.812 256.945,372.899 257.032 C 372.986 257.119,373.356 256.562,373.722 255.795 C 374.544 254.070,374.259 253.938,373.381 255.637 M36.400 255.753 C 36.400 256.182,37.590 258.400,37.821 258.400 C 37.931 258.400,37.723 257.815,37.359 257.100 C 36.617 255.640,36.400 255.336,36.400 255.753 M360.881 259.009 C 360.402 259.994,360.094 260.800,360.197 260.800 C 360.468 260.800,362.084 257.551,361.903 257.370 C 361.819 257.286,361.359 258.024,360.881 259.009 M371.781 258.837 C 371.429 259.518,371.212 260.145,371.299 260.232 C 371.386 260.319,371.756 259.762,372.122 258.995 C 372.944 257.270,372.659 257.138,371.781 258.837 M38.400 259.753 C 38.400 260.182,39.590 262.400,39.821 262.400 C 39.931 262.400,39.723 261.815,39.359 261.100 C 38.617 259.640,38.400 259.336,38.400 259.753 M28.278 261.395 C 28.644 262.162,29.014 262.719,29.101 262.632 C 29.284 262.449,28.070 260.000,27.796 260.000 C 27.695 260.000,27.912 260.628,28.278 261.395 M359.078 262.605 C 358.712 263.372,358.495 264.000,358.596 264.000 C 358.870 264.000,360.084 261.551,359.901 261.368 C 359.814 261.281,359.444 261.838,359.078 262.605 M367.979 266.442 C 366.644 269.106,365.615 271.348,365.692 271.425 C 365.769 271.502,366.949 269.323,368.314 266.583 C 369.679 263.842,370.708 261.600,370.601 261.600 C 370.494 261.600,369.314 263.779,367.979 266.442 M40.000 262.953 C 40.000 263.382,41.190 265.600,41.421 265.600 C 41.531 265.600,41.323 265.015,40.959 264.300 C 40.217 262.840,40.000 262.536,40.000 262.953 M32.687 270.181 C 34.603 274.021,36.233 277.100,36.309 277.024 C 36.485 276.848,29.663 263.200,29.399 263.200 C 29.291 263.200,30.771 266.342,32.687 270.181 M42.000 267.108 C 42.000 267.339,42.687 268.399,43.527 269.464 C 44.367 270.529,45.261 271.760,45.515 272.200 C 45.768 272.640,45.981 272.789,45.988 272.531 C 45.995 272.273,45.574 271.553,45.052 270.931 C 44.531 270.309,43.631 269.100,43.052 268.244 C 42.474 267.388,42.000 266.877,42.000 267.108 M354.485 271.815 C 353.561 273.677,352.893 275.200,352.998 275.200 C 353.265 275.200,356.485 268.751,356.307 268.574 C 356.228 268.495,355.408 269.953,354.485 271.815 M364.380 273.639 C 363.920 274.540,363.613 275.346,363.697 275.430 C 363.781 275.514,364.241 274.776,364.719 273.791 C 365.809 271.547,365.515 271.415,364.380 273.639 M351.878 277.005 C 351.512 277.772,351.295 278.400,351.396 278.400 C 351.670 278.400,352.884 275.951,352.701 275.768 C 352.614 275.681,352.244 276.238,351.878 277.005 M362.581 277.237 C 362.229 277.918,362.012 278.545,362.099 278.632 C 362.186 278.719,362.556 278.162,362.922 277.395 C 363.744 275.670,363.459 275.538,362.581 277.237 M37.078 278.995 C 37.444 279.762,37.814 280.319,37.901 280.232 C 38.084 280.049,36.870 277.600,36.596 277.600 C 36.495 277.600,36.712 278.228,37.078 278.995 M349.878 281.005 C 349.512 281.772,349.295 282.400,349.396 282.400 C 349.670 282.400,350.884 279.951,350.701 279.768 C 350.614 279.681,350.244 280.238,349.878 281.005 M360.581 281.237 C 360.229 281.918,360.012 282.545,360.099 282.632 C 360.186 282.719,360.556 282.162,360.922 281.395 C 361.744 279.670,361.459 279.538,360.581 281.237 M50.678 282.595 C 51.044 283.362,51.414 283.919,51.501 283.832 C 51.684 283.649,50.470 281.200,50.196 281.200 C 50.095 281.200,50.312 281.828,50.678 282.595 M40.886 286.583 C 42.251 289.323,43.431 291.502,43.508 291.425 C 43.685 291.248,38.864 281.600,38.599 281.600 C 38.492 281.600,39.521 283.842,40.886 286.583 M348.278 284.205 C 347.912 284.972,347.695 285.600,347.796 285.600 C 348.070 285.600,349.284 283.151,349.101 282.968 C 349.014 282.881,348.644 283.438,348.278 284.205 M357.979 286.441 C 357.083 288.224,356.414 289.747,356.493 289.826 C 356.572 289.905,357.392 288.447,358.315 286.585 C 359.239 284.723,359.907 283.200,359.802 283.200 C 359.696 283.200,358.876 284.659,357.979 286.441 M52.481 286.191 C 52.959 287.176,53.419 287.914,53.503 287.830 C 53.684 287.649,52.068 284.400,51.797 284.400 C 51.694 284.400,52.002 285.206,52.481 286.191 M346.278 288.205 C 345.912 288.972,345.695 289.600,345.796 289.600 C 346.070 289.600,347.284 287.151,347.101 286.968 C 347.014 286.881,346.644 287.438,346.278 288.205 M54.278 289.795 C 54.644 290.562,55.014 291.119,55.101 291.032 C 55.284 290.849,54.070 288.400,53.796 288.400 C 53.695 288.400,53.912 289.028,54.278 289.795 M344.481 291.809 C 344.002 292.794,343.694 293.600,343.797 293.600 C 344.068 293.600,345.684 290.351,345.503 290.170 C 345.419 290.086,344.959 290.824,344.481 291.809 M355.381 291.637 C 355.029 292.318,354.812 292.945,354.899 293.032 C 354.986 293.119,355.356 292.562,355.722 291.795 C 356.544 290.070,356.259 289.938,355.381 291.637 M44.751 294.300 C 45.390 295.565,46.337 296.959,46.856 297.397 L 47.800 298.194 46.944 297.197 C 46.473 296.649,45.615 295.255,45.037 294.100 C 44.459 292.945,43.897 292.000,43.788 292.000 C 43.678 292.000,44.111 293.035,44.751 294.300 M342.678 295.405 C 342.312 296.172,342.095 296.800,342.196 296.800 C 342.470 296.800,343.684 294.351,343.501 294.168 C 343.414 294.081,343.044 294.638,342.678 295.405 M353.381 295.637 C 353.029 296.318,352.812 296.945,352.899 297.032 C 352.986 297.119,353.356 296.562,353.722 295.795 C 354.544 294.070,354.259 293.938,353.381 295.637 M57.878 296.995 C 58.244 297.762,58.614 298.319,58.701 298.232 C 58.884 298.049,57.670 295.600,57.396 295.600 C 57.295 295.600,57.512 296.228,57.878 296.995 M340.881 299.009 C 340.402 299.994,340.094 300.800,340.197 300.800 C 340.468 300.800,342.084 297.551,341.903 297.370 C 341.819 297.286,341.359 298.024,340.881 299.009 M351.781 298.837 C 351.429 299.518,351.212 300.145,351.299 300.232 C 351.386 300.319,351.756 299.762,352.122 298.995 C 352.944 297.270,352.659 297.138,351.781 298.837 M339.078 302.605 C 338.712 303.372,338.495 304.000,338.596 304.000 C 338.870 304.000,340.084 301.551,339.901 301.368 C 339.814 301.281,339.444 301.838,339.078 302.605 M347.979 306.442 C 346.644 309.106,345.615 311.348,345.692 311.425 C 345.769 311.502,346.949 309.323,348.314 306.583 C 349.679 303.842,350.708 301.600,350.601 301.600 C 350.494 301.600,349.314 303.779,347.979 306.442 M62.485 306.185 C 63.408 308.047,64.228 309.505,64.307 309.426 C 64.485 309.249,61.265 302.800,60.998 302.800 C 60.893 302.800,61.561 304.323,62.485 306.185 M52.404 307.800 C 52.405 308.020,52.763 308.740,53.200 309.400 C 54.236 310.964,54.237 310.408,53.201 308.710 C 52.762 307.989,52.404 307.580,52.404 307.800 M334.485 311.815 C 333.561 313.677,332.893 315.200,332.998 315.200 C 333.265 315.200,336.485 308.751,336.307 308.574 C 336.228 308.495,335.408 309.953,334.485 311.815 M65.078 311.395 C 65.444 312.162,65.814 312.719,65.901 312.632 C 66.084 312.449,64.870 310.000,64.596 310.000 C 64.495 310.000,64.712 310.628,65.078 311.395 M344.181 314.037 C 343.829 314.718,343.612 315.345,343.699 315.432 C 343.786 315.519,344.156 314.962,344.522 314.195 C 345.344 312.470,345.059 312.338,344.181 314.037 M331.878 317.005 C 331.512 317.772,331.295 318.400,331.396 318.400 C 331.670 318.400,332.884 315.951,332.701 315.768 C 332.614 315.681,332.244 316.238,331.878 317.005 M342.581 317.237 C 342.229 317.918,342.012 318.545,342.099 318.632 C 342.186 318.719,342.556 318.162,342.922 317.395 C 343.744 315.670,343.459 315.538,342.581 317.237 M329.878 321.005 C 329.512 321.772,329.295 322.400,329.396 322.400 C 329.670 322.400,330.884 319.951,330.701 319.768 C 330.614 319.681,330.244 320.238,329.878 321.005 M340.581 321.237 C 340.229 321.918,340.012 322.545,340.099 322.632 C 340.186 322.719,340.556 322.162,340.922 321.395 C 341.744 319.670,341.459 319.538,340.581 321.237 M70.678 322.595 C 71.044 323.362,71.414 323.919,71.501 323.832 C 71.684 323.649,70.470 321.200,70.196 321.200 C 70.095 321.200,70.312 321.828,70.678 322.595 M328.278 324.205 C 327.912 324.972,327.695 325.600,327.796 325.600 C 328.070 325.600,329.284 323.151,329.101 322.968 C 329.014 322.881,328.644 323.438,328.278 324.205 M337.979 326.441 C 337.083 328.224,336.414 329.747,336.493 329.826 C 336.572 329.905,337.392 328.447,338.315 326.585 C 339.239 324.723,339.907 323.200,339.802 323.200 C 339.696 323.200,338.876 324.659,337.979 326.441 M72.481 326.191 C 72.959 327.176,73.419 327.914,73.503 327.830 C 73.684 327.649,72.068 324.400,71.797 324.400 C 71.694 324.400,72.002 325.206,72.481 326.191 M326.278 328.205 C 325.912 328.972,325.695 329.600,325.796 329.600 C 326.070 329.600,327.284 327.151,327.101 326.968 C 327.014 326.881,326.644 327.438,326.278 328.205 M74.278 329.795 C 74.644 330.562,75.014 331.119,75.101 331.032 C 75.284 330.849,74.070 328.400,73.796 328.400 C 73.695 328.400,73.912 329.028,74.278 329.795 M324.481 331.809 C 324.002 332.794,323.694 333.600,323.797 333.600 C 324.068 333.600,325.684 330.351,325.503 330.170 C 325.419 330.086,324.959 330.824,324.481 331.809 M335.381 331.637 C 335.029 332.318,334.812 332.945,334.899 333.032 C 334.986 333.119,335.356 332.562,335.722 331.795 C 336.544 330.070,336.259 329.938,335.381 331.637 M322.678 335.405 C 322.312 336.172,322.095 336.800,322.196 336.800 C 322.470 336.800,323.684 334.351,323.501 334.168 C 323.414 334.081,323.044 334.638,322.678 335.405 M333.381 335.637 C 333.029 336.318,332.812 336.945,332.899 337.032 C 332.986 337.119,333.356 336.562,333.722 335.795 C 334.544 334.070,334.259 333.938,333.381 335.637 M77.878 336.995 C 78.244 337.762,78.614 338.319,78.701 338.232 C 78.884 338.049,77.670 335.600,77.396 335.600 C 77.295 335.600,77.512 336.228,77.878 336.995 M320.881 339.009 C 320.402 339.994,320.094 340.800,320.197 340.800 C 320.468 340.800,322.084 337.551,321.903 337.370 C 321.819 337.286,321.359 338.024,320.881 339.009 M331.781 338.837 C 331.429 339.518,331.212 340.145,331.299 340.232 C 331.386 340.319,331.756 339.762,332.122 338.995 C 332.944 337.270,332.659 337.138,331.781 338.837 M319.078 342.605 C 318.712 343.372,318.495 344.000,318.596 344.000 C 318.870 344.000,320.084 341.551,319.901 341.368 C 319.814 341.281,319.444 341.838,319.078 342.605 M327.979 346.442 C 326.644 349.106,325.615 351.348,325.692 351.425 C 325.769 351.502,326.949 349.323,328.314 346.583 C 329.679 343.842,330.708 341.600,330.601 341.600 C 330.494 341.600,329.314 343.779,327.979 346.442 M82.485 346.185 C 83.408 348.047,84.228 349.505,84.307 349.426 C 84.485 349.249,81.265 342.800,80.998 342.800 C 80.893 342.800,81.561 344.323,82.485 346.185 M72.404 347.800 C 72.405 348.020,72.763 348.740,73.200 349.400 C 74.236 350.964,74.237 350.408,73.201 348.710 C 72.762 347.989,72.404 347.580,72.404 347.800 M314.485 351.815 C 313.561 353.677,312.893 355.200,312.998 355.200 C 313.265 355.200,316.485 348.751,316.307 348.574 C 316.228 348.495,315.408 349.953,314.485 351.815 M85.078 351.395 C 85.444 352.162,85.814 352.719,85.901 352.632 C 86.084 352.449,84.870 350.000,84.596 350.000 C 84.495 350.000,84.712 350.628,85.078 351.395 M324.181 354.037 C 323.829 354.718,323.612 355.345,323.699 355.432 C 323.786 355.519,324.156 354.962,324.522 354.195 C 325.344 352.470,325.059 352.338,324.181 354.037 M311.878 357.005 C 311.512 357.772,311.295 358.400,311.396 358.400 C 311.670 358.400,312.884 355.951,312.701 355.768 C 312.614 355.681,312.244 356.238,311.878 357.005 M322.581 357.237 C 322.229 357.918,322.012 358.545,322.099 358.632 C 322.186 358.719,322.556 358.162,322.922 357.395 C 323.744 355.670,323.459 355.538,322.581 357.237 M309.878 361.005 C 309.512 361.772,309.295 362.400,309.396 362.400 C 309.670 362.400,310.884 359.951,310.701 359.768 C 310.614 359.681,310.244 360.238,309.878 361.005 M320.581 361.237 C 320.229 361.918,320.012 362.545,320.099 362.632 C 320.186 362.719,320.556 362.162,320.922 361.395 C 321.744 359.670,321.459 359.538,320.581 361.237 M90.678 362.595 C 91.044 363.362,91.414 363.919,91.501 363.832 C 91.684 363.649,90.470 361.200,90.196 361.200 C 90.095 361.200,90.312 361.828,90.678 362.595 M308.278 364.205 C 307.912 364.972,307.695 365.600,307.796 365.600 C 308.070 365.600,309.284 363.151,309.101 362.968 C 309.014 362.881,308.644 363.438,308.278 364.205 M317.979 366.441 C 317.083 368.224,316.414 369.747,316.493 369.826 C 316.572 369.905,317.392 368.447,318.315 366.585 C 319.239 364.723,319.907 363.200,319.802 363.200 C 319.696 363.200,318.876 364.659,317.979 366.441 M92.481 366.191 C 92.959 367.176,93.419 367.914,93.503 367.830 C 93.684 367.649,92.068 364.400,91.797 364.400 C 91.694 364.400,92.002 365.206,92.481 366.191 M306.278 368.205 C 305.912 368.972,305.695 369.600,305.796 369.600 C 306.070 369.600,307.284 367.151,307.101 366.968 C 307.014 366.881,306.644 367.438,306.278 368.205 M94.278 369.795 C 94.644 370.562,95.014 371.119,95.101 371.032 C 95.284 370.849,94.070 368.400,93.796 368.400 C 93.695 368.400,93.912 369.028,94.278 369.795 M315.381 371.637 C 315.029 372.318,314.812 372.945,314.899 373.032 C 314.986 373.119,315.356 372.562,315.722 371.795 C 316.544 370.070,316.259 369.938,315.381 371.637 M304.278 372.205 C 303.912 372.972,303.695 373.600,303.796 373.600 C 304.070 373.600,305.284 371.151,305.101 370.968 C 305.014 370.881,304.644 371.438,304.278 372.205 M302.678 375.405 C 302.312 376.172,302.095 376.800,302.196 376.800 C 302.470 376.800,303.684 374.351,303.501 374.168 C 303.414 374.081,303.044 374.638,302.678 375.405 M313.381 375.637 C 313.029 376.318,312.812 376.945,312.899 377.032 C 312.986 377.119,313.356 376.562,313.722 375.795 C 314.544 374.070,314.259 373.938,313.381 375.637 M97.878 376.995 C 98.244 377.762,98.614 378.319,98.701 378.232 C 98.884 378.049,97.670 375.600,97.396 375.600 C 97.295 375.600,97.512 376.228,97.878 376.995 M300.881 379.009 C 300.402 379.994,300.094 380.800,300.197 380.800 C 300.468 380.800,302.084 377.551,301.903 377.370 C 301.819 377.286,301.359 378.024,300.881 379.009 M311.781 378.837 C 311.429 379.518,311.212 380.145,311.299 380.232 C 311.386 380.319,311.756 379.762,312.122 378.995 C 312.944 377.270,312.659 377.138,311.781 378.837 M299.078 382.605 C 298.712 383.372,298.495 384.000,298.596 384.000 C 298.870 384.000,300.084 381.551,299.901 381.368 C 299.814 381.281,299.444 381.838,299.078 382.605 M307.979 386.442 C 306.644 389.106,305.615 391.348,305.692 391.425 C 305.769 391.502,306.949 389.323,308.314 386.583 C 309.679 383.842,310.708 381.600,310.601 381.600 C 310.494 381.600,309.314 383.779,307.979 386.442 M101.985 385.171 C 102.644 386.475,103.344 387.642,103.541 387.764 C 103.738 387.886,103.280 386.819,102.523 385.393 C 100.799 382.146,100.368 381.968,101.985 385.171 M296.993 386.546 C 296.538 387.252,295.577 388.008,294.793 388.277 C 293.829 388.608,293.660 388.762,294.246 388.777 C 295.216 388.803,297.003 387.516,297.635 386.335 C 298.332 385.032,297.869 385.184,296.993 386.546 M92.404 387.800 C 92.405 388.020,92.763 388.740,93.200 389.400 C 94.236 390.964,94.237 390.408,93.201 388.710 C 92.762 387.989,92.404 387.580,92.404 387.800 M304.021 394.359 C 303.365 395.657,302.349 397.097,301.761 397.559 L 300.692 398.400 199.977 398.400 L 99.261 398.400 97.931 397.355 L 96.600 396.309 97.906 397.555 L 99.213 398.800 199.976 398.800 L 300.739 398.800 301.991 397.747 C 303.080 396.830,305.955 392.000,305.412 392.000 C 305.302 392.000,304.676 393.062,304.021 394.359 " stroke="none" fill="#b19791" fill-rule="evenodd"></path><path id="path4" d="M92.581 7.637 C 92.229 8.318,92.012 8.945,92.099 9.032 C 92.186 9.119,92.556 8.562,92.922 7.795 C 93.744 6.070,93.459 5.938,92.581 7.637 M88.981 14.837 C 88.629 15.518,88.412 16.145,88.499 16.232 C 88.586 16.319,88.956 15.762,89.322 14.995 C 90.144 13.270,89.859 13.138,88.981 14.837 M299.200 14.553 C 299.200 14.982,300.390 17.200,300.621 17.200 C 300.731 17.200,300.523 16.615,300.159 15.900 C 299.417 14.440,299.200 14.136,299.200 14.553 M79.781 33.237 C 79.429 33.918,79.212 34.545,79.299 34.632 C 79.386 34.719,79.756 34.162,80.122 33.395 C 80.944 31.670,80.659 31.538,79.781 33.237 M308.400 32.953 C 308.400 33.382,309.590 35.600,309.821 35.600 C 309.931 35.600,309.723 35.015,309.359 34.300 C 308.617 32.840,308.400 32.536,308.400 32.953 M312.000 40.153 C 312.000 40.582,313.190 42.800,313.421 42.800 C 313.531 42.800,313.323 42.215,312.959 41.500 C 312.217 40.040,312.000 39.736,312.000 40.153 M72.581 47.637 C 72.229 48.318,72.012 48.945,72.099 49.032 C 72.186 49.119,72.556 48.562,72.922 47.795 C 73.744 46.070,73.459 45.938,72.581 47.637 M68.981 54.837 C 68.629 55.518,68.412 56.145,68.499 56.232 C 68.586 56.319,68.956 55.762,69.322 54.995 C 70.144 53.270,69.859 53.138,68.981 54.837 M319.200 54.553 C 319.200 54.982,320.390 57.200,320.621 57.200 C 320.731 57.200,320.523 56.615,320.159 55.900 C 319.417 54.440,319.200 54.136,319.200 54.553 M59.781 73.237 C 59.429 73.918,59.212 74.545,59.299 74.632 C 59.386 74.719,59.756 74.162,60.122 73.395 C 60.944 71.670,60.659 71.538,59.781 73.237 M339.600 72.525 C 339.600 72.594,340.185 73.179,340.900 73.825 L 342.200 75.000 341.025 73.700 C 339.930 72.488,339.600 72.216,339.600 72.525 M328.400 72.953 C 328.400 73.382,329.590 75.600,329.821 75.600 C 329.931 75.600,329.723 75.015,329.359 74.300 C 328.617 72.840,328.400 72.536,328.400 72.953 M332.000 80.153 C 332.000 80.582,333.190 82.800,333.421 82.800 C 333.531 82.800,333.323 82.215,332.959 81.500 C 332.217 80.040,332.000 79.736,332.000 80.153 M52.581 87.637 C 52.229 88.318,52.012 88.945,52.099 89.032 C 52.186 89.119,52.556 88.562,52.922 87.795 C 53.744 86.070,53.459 85.938,52.581 87.637 M48.981 94.837 C 48.629 95.518,48.412 96.145,48.499 96.232 C 48.586 96.319,48.956 95.762,49.322 94.995 C 50.144 93.270,49.859 93.138,48.981 94.837 M351.200 93.753 C 351.200 94.182,352.390 96.400,352.621 96.400 C 352.731 96.400,352.523 95.815,352.159 95.100 C 351.417 93.640,351.200 93.336,351.200 93.753 M339.200 94.553 C 339.200 94.982,340.390 97.200,340.621 97.200 C 340.731 97.200,340.523 96.615,340.159 95.900 C 339.417 94.440,339.200 94.136,339.200 94.553 M341.212 98.678 C 341.205 98.940,341.605 99.579,342.100 100.097 C 342.595 100.615,342.800 100.760,342.556 100.420 C 342.312 100.079,341.912 99.440,341.668 99.000 C 341.424 98.560,341.219 98.415,341.212 98.678 M356.278 104.195 C 356.644 104.962,357.014 105.519,357.101 105.432 C 357.284 105.249,356.070 102.800,355.796 102.800 C 355.695 102.800,355.912 103.428,356.278 104.195 M39.781 113.237 C 39.429 113.918,39.212 114.545,39.299 114.632 C 39.386 114.719,39.756 114.162,40.122 113.395 C 40.944 111.670,40.659 111.538,39.781 113.237 M365.478 122.595 C 365.844 123.362,366.214 123.919,366.301 123.832 C 366.484 123.649,365.270 121.200,364.996 121.200 C 364.895 121.200,365.112 121.828,365.478 122.595 M32.581 127.637 C 32.229 128.318,32.012 128.945,32.099 129.032 C 32.186 129.119,32.556 128.562,32.922 127.795 C 33.744 126.070,33.459 125.938,32.581 127.637 M28.981 134.837 C 28.629 135.518,28.412 136.145,28.499 136.232 C 28.586 136.319,28.956 135.762,29.322 134.995 C 30.144 133.270,29.859 133.138,28.981 134.837 M371.200 133.753 C 371.200 134.182,372.390 136.400,372.621 136.400 C 372.731 136.400,372.523 135.815,372.159 135.100 C 371.417 133.640,371.200 133.336,371.200 133.753 M263.200 142.003 C 265.510 142.167,269.385 142.324,271.811 142.351 C 279.653 142.438,280.623 145.734,273.842 149.255 C 272.059 150.181,268.955 151.886,266.945 153.045 C 256.721 158.938,256.000 158.735,256.000 149.958 C 256.000 143.736,256.303 142.629,258.104 142.282 L 259.000 142.109 258.100 142.054 C 255.948 141.924,255.600 143.027,255.600 149.971 C 255.600 158.316,255.864 158.630,261.132 156.543 C 262.599 155.961,264.252 155.170,264.804 154.784 C 265.356 154.398,268.279 152.789,271.300 151.209 C 277.336 148.051,278.400 147.083,278.400 144.755 C 278.400 142.256,277.888 142.117,267.800 141.897 C 262.129 141.773,260.494 141.810,263.200 142.003 M376.278 144.195 C 376.644 144.962,377.014 145.519,377.101 145.432 C 377.284 145.249,376.070 142.800,375.796 142.800 C 375.695 142.800,375.912 143.428,376.278 144.195 M76.238 152.591 C 66.363 157.044,59.544 165.239,57.577 175.016 C 56.461 180.561,56.459 196.588,57.573 201.600 C 60.694 215.645,70.001 225.424,82.502 227.796 C 86.522 228.558,122.511 228.697,124.137 227.956 C 125.792 227.202,126.000 226.064,126.000 217.763 C 126.000 210.016,125.993 209.957,125.018 208.982 L 124.036 208.000 111.071 208.000 C 92.797 208.000,89.743 207.366,85.278 202.645 C 78.296 195.263,79.199 180.161,86.975 174.244 C 90.361 171.667,90.874 171.600,107.304 171.598 C 127.975 171.595,126.522 172.456,126.324 160.320 L 126.200 152.729 125.078 151.765 L 123.955 150.800 102.078 150.802 L 80.200 150.804 76.238 152.591 M150.877 151.810 C 140.704 155.724,132.837 164.216,130.602 173.696 C 129.728 177.405,129.744 199.496,130.624 202.892 C 133.441 213.765,140.887 222.867,149.656 226.157 C 155.460 228.335,156.806 228.430,180.356 228.310 L 202.070 228.200 203.062 227.047 C 204.373 225.522,204.393 213.818,203.086 212.513 C 202.429 211.856,200.933 211.784,184.086 211.591 C 163.176 211.352,163.247 211.363,159.158 207.687 C 156.037 204.880,154.043 199.596,155.700 198.524 C 155.975 198.346,164.991 198.110,175.735 198.000 L 195.270 197.800 196.178 196.744 C 198.018 194.604,197.919 183.342,196.043 181.465 C 195.184 180.605,195.061 180.599,175.712 180.485 C 162.461 180.407,156.079 180.232,155.723 179.936 C 153.644 178.211,157.890 171.374,162.600 168.865 L 164.600 167.800 183.536 167.600 L 202.472 167.400 203.214 166.483 C 204.996 164.280,204.874 153.311,203.050 151.741 L 201.955 150.800 177.678 150.820 L 153.400 150.839 150.877 151.810 M209.336 151.753 L 208.200 152.731 208.200 159.154 C 208.200 167.958,207.440 167.340,218.582 167.600 C 232.416 167.923,231.514 165.528,231.943 203.089 L 232.200 225.579 233.111 226.489 C 234.539 227.916,253.862 227.916,255.289 226.489 L 256.200 225.578 256.307 195.284 L 256.415 164.990 255.399 161.596 C 254.244 157.737,250.956 153.841,247.263 151.952 L 245.400 151.000 227.936 150.888 L 210.473 150.776 209.336 151.753 M284.000 151.754 C 272.607 156.518,265.920 164.108,263.449 175.079 C 262.218 180.540,262.519 197.202,263.950 202.868 C 267.154 215.554,275.232 224.396,286.448 227.495 C 288.734 228.127,291.138 228.199,309.542 228.191 L 330.084 228.183 331.042 227.069 C 332.386 225.506,332.546 210.763,331.236 209.144 L 330.472 208.200 315.536 207.961 C 299.754 207.708,298.685 207.588,294.862 205.633 C 292.339 204.343,289.907 201.722,288.407 198.674 L 287.094 196.008 287.149 188.957 L 287.203 181.905 288.469 179.532 C 292.326 172.295,294.495 171.606,313.515 171.577 C 333.977 171.547,332.531 172.432,332.323 160.065 L 332.200 152.729 331.078 151.765 L 329.955 150.800 308.078 150.817 L 286.200 150.834 284.000 151.754 M124.856 151.965 C 126.308 153.141,126.337 168.642,124.889 170.089 L 123.979 171.000 107.489 171.200 L 91.000 171.400 88.896 172.566 C 82.700 175.999,80.600 180.214,80.600 189.221 L 80.600 195.841 82.106 198.889 C 86.180 207.131,89.962 208.400,110.462 208.400 L 123.636 208.400 124.618 209.382 C 125.590 210.353,125.600 210.440,125.600 217.763 C 125.600 225.898,125.380 226.920,123.485 227.580 C 121.493 228.275,87.834 228.132,83.384 227.410 C 70.058 225.249,59.893 214.153,57.580 199.245 C 56.791 194.160,57.282 177.273,58.330 173.449 C 61.053 163.512,70.669 153.675,79.800 151.485 C 82.696 150.790,123.948 151.230,124.856 151.965 M202.771 151.971 C 204.645 153.845,204.401 165.714,202.469 166.669 C 202.101 166.851,193.430 167.090,183.200 167.200 L 164.600 167.400 162.040 168.788 C 156.731 171.665,152.660 179.340,155.802 180.545 C 156.167 180.685,164.686 180.801,174.733 180.802 C 198.731 180.805,196.806 180.066,196.787 189.274 C 196.769 198.287,198.682 197.576,174.400 197.597 C 164.390 197.605,156.002 197.744,155.760 197.906 C 153.142 199.654,155.395 205.685,159.899 208.983 C 163.724 211.783,163.412 211.744,183.686 211.984 C 200.538 212.183,202.029 212.256,202.686 212.914 C 203.908 214.137,203.745 225.633,202.489 226.889 L 201.577 227.800 179.289 227.800 C 157.575 227.800,156.915 227.777,153.695 226.918 C 143.341 224.155,136.292 217.381,132.084 206.152 L 130.604 202.200 130.602 188.600 C 130.600 173.010,130.732 172.195,134.227 166.250 C 137.916 159.973,143.348 155.291,150.130 152.540 L 153.400 151.213 177.700 151.207 C 201.169 151.200,202.026 151.226,202.771 151.971 M247.110 152.418 C 250.938 154.331,253.732 157.621,255.004 161.713 L 256.026 165.000 255.913 195.089 L 255.800 225.178 254.889 226.089 C 253.463 227.515,234.937 227.515,233.511 226.089 L 232.600 225.179 232.343 202.889 C 231.910 165.334,232.635 167.200,218.489 167.200 C 214.204 167.200,210.421 167.025,210.016 166.808 C 207.660 165.548,207.725 152.420,210.092 151.468 C 210.371 151.355,218.266 151.249,227.636 151.232 L 244.672 151.200 247.110 152.418 M330.856 151.965 C 332.011 152.900,332.361 168.401,331.257 169.732 C 330.193 171.013,327.896 171.196,312.800 171.198 L 297.800 171.201 295.400 172.349 C 292.454 173.759,289.286 176.899,287.749 179.932 C 285.992 183.399,285.980 194.938,287.729 198.500 C 291.893 206.978,295.924 208.383,316.118 208.393 L 329.636 208.400 330.618 209.382 C 332.483 211.246,331.995 226.626,330.046 227.419 C 328.717 227.960,293.520 228.139,289.977 227.623 C 276.805 225.703,267.242 215.995,263.975 201.226 C 262.851 196.144,262.870 179.773,264.005 174.637 C 266.123 165.056,272.693 157.295,282.385 152.925 L 286.200 151.204 308.056 151.202 C 328.980 151.200,329.952 151.233,330.856 151.965 M19.781 153.237 C 19.429 153.918,19.212 154.545,19.299 154.632 C 19.386 154.719,19.756 154.162,20.122 153.395 C 20.944 151.670,20.659 151.538,19.781 153.237 M12.581 167.637 C 12.229 168.318,12.012 168.945,12.099 169.032 C 12.186 169.119,12.556 168.562,12.922 167.795 C 13.744 166.070,13.459 165.938,12.581 167.637 M391.200 173.753 C 391.200 174.182,392.390 176.400,392.621 176.400 C 392.731 176.400,392.523 175.815,392.159 175.100 C 391.417 173.640,391.200 173.336,391.200 173.753 M396.278 184.195 C 396.644 184.962,397.014 185.519,397.101 185.432 C 397.284 185.249,396.070 182.800,395.796 182.800 C 395.695 182.800,395.912 183.428,396.278 184.195 M390.893 197.200 C 390.893 197.970,390.975 198.285,391.076 197.900 C 391.176 197.515,391.176 196.885,391.076 196.500 C 390.975 196.115,390.893 196.430,390.893 197.200 M12.678 207.795 C 13.044 208.562,13.414 209.119,13.501 209.032 C 13.684 208.849,12.470 206.400,12.196 206.400 C 12.095 206.400,12.312 207.028,12.678 207.795 M376.181 227.637 C 375.829 228.318,375.612 228.945,375.699 229.032 C 375.786 229.119,376.156 228.562,376.522 227.795 C 377.344 226.070,377.059 225.938,376.181 227.637 M32.678 247.795 C 33.044 248.562,33.414 249.119,33.501 249.032 C 33.684 248.849,32.470 246.400,32.196 246.400 C 32.095 246.400,32.312 247.028,32.678 247.795 M356.181 267.637 C 355.829 268.318,355.612 268.945,355.699 269.032 C 355.786 269.119,356.156 268.562,356.522 267.795 C 357.344 266.070,357.059 265.938,356.181 267.637 M47.600 275.753 C 47.600 276.182,48.790 278.400,49.021 278.400 C 49.131 278.400,48.923 277.815,48.559 277.100 C 47.817 275.640,47.600 275.336,47.600 275.753 M49.878 303.395 C 50.244 304.162,50.614 304.719,50.701 304.632 C 50.884 304.449,49.670 302.000,49.396 302.000 C 49.295 302.000,49.512 302.628,49.878 303.395 M336.181 307.637 C 335.829 308.318,335.612 308.945,335.699 309.032 C 335.786 309.119,336.156 308.562,336.522 307.795 C 337.344 306.070,337.059 305.938,336.181 307.637 M67.600 315.753 C 67.600 316.182,68.790 318.400,69.021 318.400 C 69.131 318.400,68.923 317.815,68.559 317.100 C 67.817 315.640,67.600 315.336,67.600 315.753 M64.278 332.195 C 64.644 332.962,65.014 333.519,65.101 333.432 C 65.284 333.249,64.070 330.800,63.796 330.800 C 63.695 330.800,63.912 331.428,64.278 332.195 M69.878 343.395 C 70.244 344.162,70.614 344.719,70.701 344.632 C 70.884 344.449,69.670 342.000,69.396 342.000 C 69.295 342.000,69.512 342.628,69.878 343.395 M316.181 347.637 C 315.829 348.318,315.612 348.945,315.699 349.032 C 315.786 349.119,316.156 348.562,316.522 347.795 C 317.344 346.070,317.059 345.938,316.181 347.637 M87.600 355.753 C 87.600 356.182,88.790 358.400,89.021 358.400 C 89.131 358.400,88.923 357.815,88.559 357.100 C 87.817 355.640,87.600 355.336,87.600 355.753 M84.278 372.195 C 84.644 372.962,85.014 373.519,85.101 373.432 C 85.284 373.249,84.070 370.800,83.796 370.800 C 83.695 370.800,83.912 371.428,84.278 372.195 M89.878 383.395 C 90.244 384.162,90.614 384.719,90.701 384.632 C 90.884 384.449,89.670 382.000,89.396 382.000 C 89.295 382.000,89.512 382.628,89.878 383.395 M153.100 388.700 C 178.895 388.757,221.105 388.757,246.900 388.700 C 272.695 388.643,251.590 388.597,200.000 388.597 C 148.410 388.597,127.305 388.643,153.100 388.700 M96.314 396.204 C 96.541 396.647,97.148 397.366,97.663 397.802 C 98.567 398.566,98.565 398.552,97.606 397.397 C 96.013 395.479,95.879 395.355,96.314 396.204 M150.732 399.100 C 178.085 399.157,222.725 399.157,249.932 399.100 C 277.139 399.043,254.760 398.997,200.200 398.997 C 145.640 398.997,123.379 399.043,150.732 399.100 " stroke="none" fill="#bca8a4" fill-rule="evenodd"></path><path id="path5" d="M96.486 1.241 C 96.437 2.974,2.230 191.361,0.883 192.421 C -0.019 193.130,-0.037 193.200,0.684 193.200 C 1.120 193.200,1.754 192.885,2.094 192.500 C 3.647 190.742,97.200 2.755,97.200 1.394 C 97.200 -0.331,96.535 -0.473,96.486 1.241 M302.800 1.232 C 302.800 2.676,337.486 72.399,339.001 74.000 C 339.522 74.550,352.813 100.740,368.537 132.200 C 396.676 188.498,398.289 191.600,399.429 191.600 C 400.238 191.600,400.139 190.930,399.298 190.710 C 398.827 190.587,389.138 171.596,369.835 132.963 C 354.016 101.303,340.555 74.801,339.921 74.069 C 338.197 72.076,303.600 2.667,303.600 1.201 C 303.600 0.540,303.420 0.000,303.200 0.000 C 302.980 0.000,302.800 0.554,302.800 1.232 M103.004 7.700 C 101.192 9.402,7.200 197.260,7.200 199.180 C 7.200 200.628,41.091 268.708,42.761 270.614 C 43.346 271.282,56.850 297.881,72.770 329.723 C 95.704 375.594,101.997 387.865,103.071 388.809 L 104.428 390.000 199.914 389.999 C 294.258 389.997,295.415 389.988,296.694 389.208 C 297.994 388.415,393.200 199.125,393.200 197.333 C 393.200 196.313,345.945 101.979,344.747 100.606 C 344.168 99.943,333.419 78.854,320.862 53.742 C 300.437 12.898,297.886 7.995,296.667 7.242 L 295.306 6.400 199.847 6.400 L 104.388 6.400 103.004 7.700 M296.377 7.984 C 297.207 8.575,303.023 19.871,320.010 53.884 C 332.403 78.698,343.121 99.727,343.828 100.615 C 345.945 103.273,392.000 195.753,392.000 197.344 C 392.000 199.349,297.849 387.429,296.271 388.578 L 295.141 389.400 200.071 389.400 C 106.974 389.400,104.976 389.384,103.866 388.632 C 102.973 388.026,96.558 375.515,73.582 329.563 C 57.549 297.498,43.914 270.664,43.281 269.932 C 41.655 268.049,7.987 200.468,7.994 199.101 C 8.004 197.177,102.490 8.740,103.860 7.911 C 105.763 6.760,294.759 6.831,296.377 7.984 M257.600 143.600 C 256.880 144.320,256.800 144.933,256.800 149.751 C 256.800 157.496,257.083 157.570,266.484 152.299 C 269.721 150.485,273.272 148.507,274.375 147.905 C 276.487 146.753,277.300 145.285,276.518 144.038 C 275.626 142.616,258.970 142.230,257.600 143.600 M398.116 203.976 C 397.722 204.402,375.945 247.671,349.722 300.129 C 315.753 368.084,301.735 395.751,300.968 396.354 L 299.892 397.200 199.968 397.200 L 100.045 397.200 99.026 396.300 C 98.402 395.749,88.606 376.575,73.738 346.800 C 60.390 320.070,48.953 297.603,48.322 296.872 C 47.692 296.142,37.174 275.532,24.949 251.072 C 3.622 208.399,1.723 204.800,0.530 204.800 C -0.272 204.800,-0.104 205.479,0.754 205.704 C 1.292 205.845,7.942 218.759,24.001 250.850 C 36.372 275.573,47.002 296.442,47.623 297.227 C 48.244 298.012,59.742 320.634,73.175 347.497 C 90.086 381.317,97.922 396.595,98.653 397.170 L 99.708 398.000 200.048 398.000 L 300.387 398.000 301.580 396.900 C 302.417 396.128,316.999 367.338,350.443 300.426 C 376.661 247.970,398.528 204.635,399.038 204.126 C 399.667 203.497,399.782 203.200,399.397 203.200 C 399.086 203.200,398.509 203.549,398.116 203.976 " stroke="none" fill="#743c84" fill-rule="evenodd"></path><path id="path6" d="M303.646 1.101 C 303.593 2.613,337.916 71.694,339.863 73.994 C 340.488 74.733,353.967 101.270,369.816 132.966 C 392.416 178.162,398.802 190.616,399.416 190.691 C 399.847 190.743,399.971 190.683,399.692 190.557 C 399.412 190.431,398.851 189.669,398.444 188.864 C 398.037 188.059,384.997 162.009,369.468 130.976 C 353.938 99.943,340.843 74.203,340.369 73.776 C 339.313 72.826,304.383 3.160,303.980 1.200 L 303.692 -0.200 303.646 1.101 M95.998 1.500 C 95.996 1.991,13.555 167.304,1.545 190.900 C 1.125 191.725,0.576 192.400,0.324 192.400 C 0.072 192.400,-0.014 192.519,0.131 192.664 C 0.876 193.410,5.417 184.550,49.119 97.074 C 94.553 6.133,97.170 0.800,96.363 0.800 C 96.163 0.800,95.999 1.115,95.998 1.500 M103.860 7.911 C 102.490 8.740,8.004 197.177,7.994 199.101 C 7.987 200.468,41.655 268.049,43.281 269.932 C 43.914 270.664,57.549 297.498,73.582 329.563 C 96.558 375.515,102.973 388.026,103.866 388.632 C 104.976 389.384,106.974 389.400,200.071 389.400 L 295.141 389.400 296.271 388.578 C 297.849 387.429,392.000 199.349,392.000 197.344 C 392.000 195.753,345.945 103.273,343.828 100.615 C 343.121 99.727,332.403 78.698,320.010 53.884 C 303.023 19.871,297.207 8.575,296.377 7.984 C 294.759 6.831,105.763 6.760,103.860 7.911 M296.309 8.518 C 296.746 8.913,307.239 29.523,319.628 54.318 C 332.018 79.113,342.730 100.120,343.435 101.000 C 345.077 103.052,391.600 196.105,391.600 197.338 C 391.600 198.820,297.350 387.024,296.126 387.987 C 294.651 389.147,105.919 389.289,104.152 388.132 C 103.399 387.638,95.550 372.300,74.124 329.447 C 58.169 297.538,44.532 270.704,43.820 269.815 C 41.833 267.336,8.667 200.640,8.667 199.123 C 8.667 197.046,102.863 9.009,104.292 8.231 C 106.160 7.216,295.183 7.498,296.309 8.518 M272.905 143.087 C 273.514 143.179,274.414 143.177,274.905 143.082 C 275.397 142.987,274.900 142.911,273.800 142.914 C 272.700 142.917,272.297 142.995,272.905 143.087 M276.428 143.896 C 277.290 145.276,276.573 146.688,274.396 147.896 C 265.185 153.006,262.453 154.587,262.592 154.725 C 262.681 154.814,263.799 154.258,265.077 153.490 C 266.354 152.722,269.309 151.081,271.642 149.842 C 273.975 148.604,276.193 147.250,276.570 146.833 C 277.364 145.956,277.296 143.559,276.469 143.287 C 276.041 143.146,276.033 143.263,276.428 143.896 M256.487 149.726 C 256.379 156.116,257.285 157.736,260.000 156.005 C 260.416 155.740,260.166 155.692,259.181 155.850 C 257.061 156.191,256.842 155.656,256.699 149.774 L 256.574 144.600 256.487 149.726 M77.730 152.940 C 68.514 156.678,61.507 164.160,58.946 173.000 C 57.790 176.986,57.660 197.095,58.759 201.724 C 61.767 214.389,71.631 225.060,81.395 226.210 C 82.793 226.375,82.733 226.330,80.929 225.863 C 71.439 223.408,64.195 216.166,60.262 205.200 L 59.043 201.800 58.885 190.200 C 58.775 182.164,58.877 177.741,59.216 175.805 C 60.835 166.576,67.434 158.543,76.910 154.266 L 80.600 152.600 101.400 152.495 C 117.774 152.412,122.413 152.500,123.200 152.906 L 124.200 153.423 124.309 160.855 C 124.404 167.400,124.337 168.354,123.748 168.844 C 123.211 169.290,119.952 169.439,107.239 169.600 C 89.455 169.825,89.697 169.786,85.680 173.077 C 76.953 180.228,76.299 195.923,84.393 204.003 C 89.483 209.085,91.839 209.600,110.007 209.600 C 121.415 209.600,123.226 209.683,123.771 210.229 C 124.914 211.371,124.686 225.355,123.511 226.177 C 123.022 226.520,122.829 226.800,123.082 226.800 C 124.884 226.800,125.864 211.522,124.171 209.829 C 123.626 209.283,121.817 209.199,110.471 209.195 C 95.957 209.189,91.842 208.713,88.287 206.630 C 75.986 199.421,76.629 177.608,89.315 171.748 L 91.800 170.600 107.933 170.400 C 127.427 170.158,125.200 171.380,125.200 160.924 C 125.200 150.356,128.254 151.599,102.300 151.607 L 81.000 151.613 77.730 152.940 M151.596 152.536 C 140.697 156.384,132.872 165.545,131.157 176.464 C 130.641 179.755,130.986 199.410,131.611 202.228 C 134.229 214.049,146.336 226.547,155.000 226.373 C 155.440 226.364,154.450 225.951,152.800 225.454 C 143.330 222.601,136.917 216.036,133.104 205.290 L 131.866 201.800 131.697 190.301 C 131.507 177.459,131.855 174.335,133.987 169.729 C 137.501 162.136,143.110 156.893,151.186 153.650 L 153.800 152.600 177.532 152.600 C 205.549 152.600,202.400 151.764,202.400 159.200 C 202.400 166.567,204.749 165.763,182.533 166.000 L 163.800 166.200 161.302 167.505 C 156.299 170.118,151.919 177.660,153.592 180.784 C 154.395 182.286,155.939 182.400,175.398 182.400 C 197.999 182.400,195.600 181.584,195.600 189.270 C 195.600 196.782,197.939 196.000,175.456 196.000 C 154.965 196.000,154.418 196.057,153.566 198.281 C 152.272 201.654,155.659 207.960,160.190 210.615 C 164.269 213.006,163.905 212.965,183.333 213.191 C 204.623 213.439,202.400 212.645,202.400 220.000 C 202.400 225.094,202.170 226.033,200.800 226.522 C 200.315 226.696,200.330 226.743,200.877 226.768 C 202.382 226.839,202.800 225.304,202.800 219.711 C 202.800 212.051,204.769 212.800,184.620 212.800 C 167.134 212.800,165.404 212.659,161.729 210.939 C 156.285 208.390,152.051 200.289,154.842 197.762 C 155.638 197.041,156.725 196.989,175.228 196.800 C 198.770 196.559,196.200 197.496,196.200 189.151 C 196.200 180.722,198.640 181.600,175.210 181.600 C 156.491 181.600,156.087 181.583,155.054 180.771 C 152.331 178.629,156.349 171.101,161.708 168.302 L 164.200 167.000 182.859 166.800 C 205.581 166.556,203.200 167.453,203.200 159.138 C 203.200 150.642,206.415 151.598,177.900 151.608 C 154.206 151.617,154.199 151.617,151.596 152.536 M210.000 152.400 C 209.272 153.128,209.200 153.733,209.200 159.138 C 209.200 167.121,208.434 166.542,219.341 166.800 C 230.360 167.061,231.941 168.059,232.009 174.800 C 232.023 176.230,232.220 178.210,232.446 179.200 C 232.677 180.211,232.992 190.467,233.164 202.600 L 233.471 224.200 233.367 201.400 C 233.198 164.446,233.944 166.347,219.467 166.000 C 209.278 165.755,210.000 166.274,210.000 159.200 C 210.000 151.848,207.986 152.600,227.668 152.600 L 244.200 152.600 246.491 153.725 C 250.560 155.723,253.388 159.862,254.427 165.341 C 254.636 166.443,254.800 179.793,254.800 195.673 L 254.800 224.036 253.786 225.050 C 252.992 225.844,252.925 226.035,253.476 225.928 C 255.010 225.633,255.063 224.754,255.345 195.103 C 255.608 167.518,255.586 166.069,254.862 163.324 C 253.528 158.264,250.587 154.582,246.278 152.575 L 244.200 151.608 227.500 151.604 C 211.331 151.600,210.775 151.625,210.000 152.400 M286.200 151.885 C 283.894 152.438,277.152 156.143,274.958 158.063 C 265.769 166.103,263.807 171.353,263.847 187.800 C 263.888 204.538,266.564 212.140,275.239 220.172 C 278.256 222.965,285.085 226.426,287.509 226.390 C 287.889 226.384,286.850 225.920,285.200 225.359 C 275.339 222.004,268.218 213.726,265.531 202.493 C 264.148 196.711,264.132 179.636,265.505 174.246 C 268.126 163.959,277.706 154.558,287.394 152.767 C 291.813 151.950,329.182 152.487,329.832 153.376 C 330.653 154.499,330.653 167.501,329.833 168.624 C 329.292 169.364,328.519 169.409,313.333 169.600 L 297.400 169.800 295.088 170.884 C 292.074 172.296,288.439 175.796,286.747 178.916 L 285.400 181.400 285.400 189.009 L 285.400 196.619 286.697 199.252 C 290.951 207.890,295.650 209.583,315.411 209.593 C 332.085 209.602,330.400 208.663,330.400 217.946 C 330.400 226.588,330.527 226.330,326.200 226.508 L 323.000 226.639 326.277 226.720 C 330.871 226.832,330.800 226.973,330.800 217.773 C 330.800 208.205,332.489 209.200,316.252 209.200 C 296.280 209.200,291.522 207.582,287.400 199.386 L 286.200 197.000 286.200 189.200 L 286.200 181.400 287.342 179.339 C 289.020 176.311,292.188 173.291,295.200 171.847 L 297.800 170.600 313.933 170.400 C 329.317 170.209,330.092 170.164,330.633 169.424 C 331.641 168.043,331.441 153.441,330.400 152.400 C 329.633 151.633,289.214 151.162,286.200 151.885 M398.379 204.900 C 397.934 205.615,376.240 248.860,350.172 301.000 C 316.913 367.521,302.418 396.128,301.581 396.900 L 300.387 398.000 200.048 398.000 L 99.708 398.000 98.653 397.170 C 97.922 396.595,90.092 381.329,73.196 347.540 C 59.775 320.700,48.301 298.103,47.697 297.326 C 47.094 296.548,36.430 275.636,24.000 250.856 C 7.590 218.140,1.198 205.763,0.664 205.664 C -0.024 205.536,-0.020 205.580,0.720 206.320 C 1.156 206.756,11.526 227.127,23.764 251.590 C 36.003 276.052,46.540 296.727,47.180 297.534 C 47.820 298.340,59.335 320.990,72.768 347.868 C 89.728 381.802,97.515 396.990,98.250 397.568 L 99.308 398.400 200.048 398.400 L 300.787 398.400 301.983 397.300 C 302.825 396.525,317.380 367.791,351.201 300.130 C 377.612 247.291,399.442 203.970,399.711 203.861 C 400.085 203.710,400.081 203.656,399.694 203.632 C 399.416 203.614,398.824 204.185,398.379 204.900 M239.700 226.298 C 242.065 226.369,245.935 226.369,248.300 226.298 C 250.665 226.228,248.730 226.170,244.000 226.170 C 239.270 226.170,237.335 226.228,239.700 226.298 M94.900 227.100 C 99.905 227.163,108.095 227.163,113.100 227.100 C 118.105 227.036,114.010 226.984,104.000 226.984 C 93.990 226.984,89.895 227.036,94.900 227.100 M169.128 227.100 C 174.918 227.162,184.278 227.162,189.928 227.100 C 195.578 227.037,190.840 226.986,179.400 226.986 C 167.960 226.986,163.338 227.037,169.128 227.100 M298.700 227.099 C 302.935 227.164,309.865 227.164,314.100 227.099 C 318.335 227.035,314.870 226.982,306.400 226.982 C 297.930 226.982,294.465 227.035,298.700 227.099 " stroke="none" fill="#9c7c74" fill-rule="evenodd"></path><path id="path7" d="M47.660 95.640 C 21.404 148.177,-0.008 191.376,0.079 191.637 C 0.289 192.267,95.700 1.378,95.531 0.668 C 95.459 0.365,73.917 43.103,47.660 95.640 M304.400 0.525 C 304.400 1.584,339.588 71.669,340.838 73.098 C 341.462 73.812,354.596 99.642,370.025 130.498 C 385.454 161.354,398.240 186.870,398.439 187.200 C 398.638 187.530,399.002 188.340,399.248 189.000 C 399.517 189.721,399.774 189.986,399.893 189.664 C 400.151 188.966,342.661 73.959,341.555 72.962 C 341.091 72.543,332.612 56.000,322.713 36.200 C 303.587 -2.058,304.400 -0.474,304.400 0.525 M104.480 9.029 C 103.246 9.893,9.528 197.340,9.480 199.040 C 9.439 200.490,43.086 268.214,44.463 269.452 C 44.920 269.864,58.392 296.390,74.400 328.400 C 90.408 360.410,103.906 386.960,104.395 387.400 C 105.279 388.195,105.847 388.200,200.010 388.200 L 294.736 388.200 295.758 387.239 C 296.904 386.163,390.251 199.750,390.633 197.776 C 390.896 196.415,344.997 103.846,342.838 101.384 C 342.251 100.715,331.622 79.868,319.217 55.059 C 304.631 25.887,296.314 9.676,295.677 9.175 C 294.289 8.083,106.036 7.939,104.480 9.029 M294.800 9.317 C 295.586 9.714,300.631 19.485,318.413 55.050 C 330.850 79.925,341.533 100.881,342.154 101.618 C 343.601 103.338,389.998 196.116,390.006 197.306 C 390.016 198.632,296.118 386.272,295.081 386.998 C 294.048 387.722,107.328 387.933,105.432 387.212 C 104.575 386.886,99.797 377.592,75.358 328.712 C 59.377 296.751,45.814 270.042,45.216 269.360 C 43.411 267.300,10.237 200.540,10.280 199.053 C 10.335 197.087,104.044 9.891,105.267 9.303 C 106.706 8.611,293.429 8.625,294.800 9.317 M255.905 141.426 C 254.562 142.155,254.482 142.527,254.282 148.919 C 254.085 155.200,253.984 155.326,250.963 153.070 C 246.259 149.557,248.004 149.814,227.982 149.685 L 210.164 149.569 208.789 150.496 C 207.916 151.084,207.182 152.052,206.776 153.150 L 206.138 154.877 205.423 153.005 C 204.037 149.374,205.747 149.575,177.200 149.695 L 152.200 149.800 148.536 151.439 C 139.305 155.569,132.162 163.652,129.613 172.851 C 128.427 177.132,128.382 199.559,129.552 203.601 C 133.415 216.950,141.748 225.654,153.523 228.641 C 157.284 229.595,157.409 229.600,179.264 229.600 C 207.372 229.600,205.200 230.421,205.200 219.800 C 205.200 209.676,206.943 210.449,183.800 210.309 L 165.800 210.200 163.280 209.036 C 159.303 207.200,156.079 203.067,156.471 200.307 L 156.600 199.400 176.018 199.200 C 200.568 198.947,198.600 199.819,198.600 189.200 C 198.600 178.582,200.567 179.453,176.023 179.200 C 153.967 178.973,155.445 179.262,157.457 175.567 C 160.961 169.128,162.250 168.800,184.059 168.800 C 204.403 168.800,203.932 168.871,205.313 165.602 L 206.163 163.590 206.782 165.254 C 207.952 168.403,208.494 168.573,218.128 168.800 C 231.439 169.114,230.302 165.986,230.736 203.491 L 231.000 226.383 232.108 227.491 L 233.217 228.600 243.376 228.719 C 254.990 228.855,255.993 228.672,257.014 226.227 C 257.944 224.002,257.881 166.285,256.945 162.557 C 256.166 159.455,256.038 159.606,260.600 158.226 C 262.749 157.575,264.816 156.649,265.728 155.927 C 266.569 155.261,269.670 153.463,272.620 151.932 C 280.364 147.911,282.596 143.378,277.815 141.381 C 275.775 140.528,257.490 140.566,255.905 141.426 M277.767 142.824 C 279.972 144.929,278.417 147.583,273.546 150.027 C 271.414 151.097,268.323 152.768,266.677 153.742 C 256.819 159.570,255.600 159.187,255.600 150.262 C 255.600 143.041,255.744 142.550,258.020 141.996 C 260.789 141.323,276.902 141.998,277.767 142.824 M79.000 150.161 C 68.622 153.452,59.608 162.709,56.711 173.049 C 55.319 178.016,55.348 198.588,56.754 203.600 C 60.327 216.340,68.808 225.414,80.200 228.684 C 83.175 229.539,121.821 229.997,124.498 229.210 C 126.877 228.510,127.105 227.666,127.205 219.200 C 127.326 208.874,127.372 209.310,126.031 207.969 L 124.862 206.800 111.731 206.798 C 93.359 206.796,90.159 206.191,86.211 201.970 C 80.324 195.676,80.366 182.472,86.293 176.545 C 89.953 172.885,89.135 173.028,107.819 172.800 C 129.217 172.539,127.744 173.464,127.529 160.424 C 127.388 151.859,127.129 150.810,124.953 149.982 C 123.341 149.369,80.976 149.534,79.000 150.161 M282.821 151.006 C 267.383 157.365,261.599 167.488,261.601 188.151 C 261.601 205.255,264.261 212.793,273.383 221.541 C 281.166 229.005,284.126 229.657,309.800 229.564 C 335.677 229.470,333.200 230.721,333.200 217.750 L 333.200 209.138 332.031 207.969 L 330.862 206.800 317.331 206.786 C 299.275 206.767,296.292 206.224,292.357 202.235 C 288.766 198.594,288.200 196.821,288.200 189.200 C 288.200 180.547,289.758 177.233,295.258 174.187 L 297.400 173.000 313.800 172.800 C 335.195 172.539,333.400 173.598,333.400 161.241 C 333.400 151.759,333.200 150.836,330.953 149.982 C 330.358 149.756,321.027 149.603,308.074 149.607 L 286.200 149.615 282.821 151.006 M125.392 151.355 C 126.719 152.683,126.886 154.044,126.733 162.332 L 126.600 169.583 125.492 170.692 L 124.383 171.800 107.892 172.000 C 88.907 172.230,89.495 172.119,85.623 176.213 C 79.384 182.809,79.513 196.143,85.878 202.541 C 90.043 206.728,90.877 206.894,109.092 207.169 L 124.383 207.400 125.492 208.508 L 126.600 209.616 126.729 217.108 C 126.953 230.063,129.398 228.870,102.940 228.720 L 81.800 228.600 78.296 227.346 C 63.204 221.946,56.409 209.959,56.403 188.726 C 56.397 167.993,61.870 158.119,76.850 151.833 L 80.200 150.428 102.318 150.414 L 124.436 150.400 125.392 151.355 M203.095 151.012 C 205.361 152.598,205.548 165.416,203.332 167.257 C 202.810 167.691,198.897 167.840,183.839 168.000 L 165.000 168.200 162.788 169.286 C 158.496 171.394,154.322 177.762,156.080 179.520 C 156.440 179.880,161.276 180.000,175.380 180.001 C 199.629 180.001,198.185 179.360,197.930 190.019 C 197.715 199.007,199.332 198.400,175.603 198.400 C 153.429 198.400,154.120 198.219,156.543 203.400 C 159.772 210.302,163.110 211.169,186.518 211.188 L 202.436 211.200 203.386 212.150 C 204.625 213.389,204.940 215.630,204.725 221.675 L 204.552 226.508 203.270 227.654 L 201.987 228.800 179.494 228.797 C 154.859 228.794,153.839 228.711,148.266 226.246 C 141.044 223.052,134.904 216.114,131.452 207.244 L 129.800 203.000 129.680 189.500 C 129.540 173.643,129.764 172.204,133.334 166.099 C 137.423 159.107,143.640 153.940,151.266 151.197 C 154.221 150.134,201.600 149.965,203.095 151.012 M247.381 151.575 C 251.514 153.609,254.688 157.310,255.806 161.400 L 256.790 165.000 256.795 195.331 L 256.800 225.662 255.631 226.831 L 254.462 228.000 244.075 228.000 C 234.447 228.000,233.620 227.944,232.744 227.236 L 231.800 226.471 231.542 203.736 C 231.110 165.729,232.082 168.337,218.200 167.963 C 213.360 167.833,209.352 167.698,209.294 167.663 C 206.768 166.159,206.907 152.355,209.463 150.846 C 209.971 150.546,215.671 150.440,227.800 150.505 L 245.400 150.600 247.381 151.575 M331.392 151.355 C 332.719 152.683,332.886 154.044,332.733 162.332 L 332.600 169.583 331.491 170.692 L 330.383 171.800 313.891 172.000 C 294.830 172.231,295.542 172.091,291.422 176.411 C 287.880 180.124,287.618 180.989,287.613 189.000 C 287.605 199.240,289.957 203.300,297.613 206.267 C 299.157 206.865,301.510 206.989,314.891 207.179 L 330.383 207.400 331.491 208.508 L 332.600 209.617 332.726 217.108 C 332.867 225.423,332.524 227.417,330.811 228.270 C 328.724 229.309,287.906 228.783,284.845 227.677 C 273.126 223.445,266.231 215.120,262.915 201.200 C 261.895 196.919,261.877 179.555,262.888 175.400 C 265.862 163.176,273.244 155.142,285.600 150.680 C 285.930 150.561,296.153 150.449,308.318 150.432 L 330.436 150.400 331.392 151.355 M351.600 300.905 C 314.863 374.391,303.131 397.521,302.271 398.161 L 301.141 399.000 199.997 399.000 L 98.853 399.000 97.591 397.800 C 96.699 396.950,89.205 382.347,71.932 347.800 C 58.513 320.960,47.111 298.550,46.593 298.000 C 46.075 297.450,35.437 276.580,22.952 251.623 C 10.467 226.665,0.183 206.451,0.099 206.703 C -0.117 207.351,44.658 296.788,45.806 298.000 C 46.327 298.550,57.820 321.141,71.347 348.202 C 96.893 399.311,96.661 398.889,99.600 399.566 C 101.906 400.097,298.280 400.148,300.565 399.618 C 301.425 399.418,302.631 398.748,303.244 398.128 C 304.522 396.835,400.128 205.893,399.927 205.035 C 399.857 204.734,378.110 247.876,351.600 300.905 " stroke="none" fill="#c2c0c7" fill-rule="evenodd"></path><path id="path8" d="M152.700 8.300 C 178.715 8.357,221.285 8.357,247.300 8.300 C 273.315 8.243,252.030 8.197,200.000 8.197 C 147.970 8.197,126.685 8.243,152.700 8.300 M294.833 8.500 C 294.925 8.555,295.540 9.050,296.200 9.600 L 297.400 10.600 296.430 9.500 C 295.897 8.895,295.282 8.400,295.064 8.400 C 294.845 8.400,294.742 8.445,294.833 8.500 M76.850 151.833 C 61.870 158.119,56.397 167.993,56.403 188.726 C 56.409 209.959,63.204 221.946,78.296 227.346 L 81.800 228.600 102.940 228.720 C 129.398 228.870,126.953 230.063,126.729 217.108 L 126.600 209.616 125.492 208.508 L 124.383 207.400 109.092 207.169 C 93.429 206.933,92.390 206.829,89.200 205.192 C 80.177 200.560,78.148 184.117,85.623 176.213 C 89.495 172.119,88.907 172.230,107.892 172.000 L 124.383 171.800 125.492 170.692 L 126.600 169.583 126.733 162.332 C 126.886 154.044,126.719 152.683,125.392 151.355 L 124.436 150.400 102.318 150.414 L 80.200 150.428 76.850 151.833 M151.266 151.197 C 143.640 153.940,137.423 159.107,133.334 166.099 C 129.764 172.204,129.540 173.643,129.680 189.500 L 129.800 203.000 131.452 207.244 C 134.904 216.114,141.044 223.052,148.266 226.246 C 153.839 228.711,154.859 228.794,179.494 228.797 L 201.987 228.800 203.270 227.654 L 204.552 226.508 204.725 221.675 C 204.940 215.630,204.625 213.389,203.386 212.150 L 202.436 211.200 186.518 211.188 C 163.110 211.169,159.772 210.302,156.543 203.400 C 154.120 198.219,153.429 198.400,175.603 198.400 C 199.332 198.400,197.715 199.007,197.930 190.019 C 198.185 179.360,199.629 180.001,175.380 180.001 C 161.276 180.000,156.440 179.880,156.080 179.520 C 154.322 177.762,158.496 171.394,162.788 169.286 L 165.000 168.200 183.839 168.000 C 198.897 167.840,202.810 167.691,203.332 167.257 C 205.548 165.416,205.361 152.598,203.095 151.012 C 201.600 149.965,154.221 150.134,151.266 151.197 M209.463 150.846 C 206.907 152.355,206.768 166.159,209.294 167.663 C 209.352 167.698,213.360 167.833,218.200 167.963 C 232.082 168.337,231.110 165.729,231.542 203.736 L 231.800 226.471 232.744 227.236 C 233.620 227.944,234.447 228.000,244.075 228.000 L 254.462 228.000 255.631 226.831 L 256.800 225.662 256.795 195.331 L 256.790 165.000 255.806 161.400 C 254.688 157.310,251.514 153.609,247.381 151.575 L 245.400 150.600 227.800 150.505 C 215.671 150.440,209.971 150.546,209.463 150.846 M285.600 150.680 C 273.244 155.142,265.862 163.176,262.888 175.400 C 261.877 179.555,261.895 196.919,262.915 201.200 C 266.231 215.120,273.126 223.445,284.845 227.677 C 287.906 228.783,328.724 229.309,330.811 228.270 C 332.524 227.417,332.867 225.423,332.726 217.108 L 332.600 209.617 331.491 208.508 L 330.383 207.400 314.891 207.179 C 301.510 206.989,299.157 206.865,297.613 206.267 C 289.957 203.300,287.605 199.240,287.613 189.000 C 287.618 180.989,287.880 180.124,291.422 176.411 C 295.542 172.091,294.830 172.231,313.891 172.000 L 330.383 171.800 331.491 170.692 L 332.600 169.583 332.733 162.332 C 332.886 154.044,332.719 152.683,331.392 151.355 L 330.436 150.400 308.318 150.432 C 296.153 150.449,285.930 150.561,285.600 150.680 M125.078 151.765 L 126.200 152.729 126.324 160.320 C 126.522 172.456,127.975 171.595,107.304 171.598 C 90.874 171.600,90.361 171.667,86.975 174.244 C 79.199 180.161,78.296 195.263,85.278 202.645 C 89.743 207.366,92.797 208.000,111.071 208.000 L 124.036 208.000 125.018 208.982 C 125.993 209.957,126.000 210.016,126.000 217.763 C 126.000 226.064,125.792 227.202,124.137 227.956 C 122.511 228.697,86.522 228.558,82.502 227.796 C 70.001 225.424,60.694 215.645,57.573 201.600 C 56.459 196.588,56.461 180.561,57.577 175.016 C 59.544 165.239,66.363 157.044,76.238 152.591 L 80.200 150.804 102.078 150.802 L 123.955 150.800 125.078 151.765 M203.050 151.741 C 204.874 153.311,204.996 164.280,203.214 166.483 L 202.472 167.400 183.536 167.600 L 164.600 167.800 162.600 168.865 C 157.890 171.374,153.644 178.211,155.723 179.936 C 156.079 180.232,162.461 180.407,175.712 180.485 C 195.061 180.599,195.184 180.605,196.043 181.465 C 197.919 183.342,198.018 194.604,196.178 196.744 L 195.270 197.800 175.735 198.000 C 164.991 198.110,155.975 198.346,155.700 198.524 C 154.043 199.596,156.037 204.880,159.158 207.687 C 163.247 211.363,163.176 211.352,184.086 211.591 C 200.933 211.784,202.429 211.856,203.086 212.513 C 204.393 213.818,204.373 225.522,203.062 227.047 L 202.070 228.200 180.356 228.310 C 156.806 228.430,155.460 228.335,149.656 226.157 C 140.887 222.867,133.441 213.765,130.624 202.892 C 129.744 199.496,129.728 177.405,130.602 173.696 C 132.837 164.216,140.704 155.724,150.877 151.810 L 153.400 150.839 177.678 150.820 L 201.955 150.800 203.050 151.741 M247.263 151.952 C 250.956 153.841,254.244 157.737,255.399 161.596 L 256.415 164.990 256.307 195.284 L 256.200 225.578 255.289 226.489 C 253.862 227.916,234.539 227.916,233.111 226.489 L 232.200 225.579 231.943 203.089 C 231.514 165.528,232.416 167.923,218.582 167.600 C 207.440 167.340,208.200 167.958,208.200 159.154 L 208.200 152.731 209.336 151.753 L 210.473 150.776 227.936 150.888 L 245.400 151.000 247.263 151.952 M331.078 151.765 L 332.200 152.729 332.323 160.065 C 332.531 172.432,333.977 171.547,313.515 171.577 C 294.495 171.606,292.326 172.295,288.469 179.532 L 287.203 181.905 287.149 188.957 L 287.094 196.008 288.407 198.674 C 289.907 201.722,292.339 204.343,294.862 205.633 C 298.685 207.588,299.754 207.708,315.536 207.961 L 330.472 208.200 331.236 209.144 C 332.546 210.763,332.386 225.506,331.042 227.069 L 330.084 228.183 309.542 228.191 C 291.138 228.199,288.734 228.127,286.448 227.495 C 270.528 223.097,262.800 210.234,262.800 188.136 C 262.800 167.560,268.147 158.383,284.000 151.754 L 286.200 150.834 308.078 150.817 L 329.955 150.800 331.078 151.765 " stroke="none" fill="#c4bcb4" fill-rule="evenodd"></path></g></svg>