<?xml version="1.0" encoding="UTF-8"?>
<!DOCTYPE svg PUBLIC "-//W3C//DTD SVG 1.1//EN" "http://www.w3.org/Graphics/SVG/1.1/DTD/svg11.dtd">
<svg xmlns="http://www.w3.org/2000/svg" version="1.1" width="1200px" height="1200px" style="shape-rendering:geometricPrecision; text-rendering:geometricPrecision; image-rendering:optimizeQuality; fill-rule:evenodd; clip-rule:evenodd" xmlns:xlink="http://www.w3.org/1999/xlink">
<g><path style="opacity:0.973" fill="#004ea2" d="M 577.5,67.5 C 742.64,64.5203 881.474,122.854 994,242.5C 1104,368.889 1147.67,515.555 1125,682.5C 1100.29,824.396 1031.13,938.896 917.5,1026C 783.984,1121.71 636.651,1152.04 475.5,1117C 332.645,1079.88 222.145,999.043 144,874.5C 71.8254,751.114 50.8254,619.448 81,479.5C 118.548,330.472 203.048,216.639 334.5,138C 409.945,95.127 490.945,71.627 577.5,67.5 Z M 581.5,89.5 C 743.683,88.0353 878.517,147.369 986,267.5C 1021.69,309.337 1050.19,355.837 1071.5,407C 1061.71,405.074 1052.05,406.074 1042.5,410C 1040.5,410.667 1038.5,410.667 1036.5,410C 1028.24,405.62 1020.07,401.12 1012,396.5C 1005.78,399.265 1003.62,403.932 1005.5,410.5C 1004.65,411.845 1003.49,412.845 1002,413.5C 1004.1,422.093 1002.27,423.259 996.5,417C 993.833,416.333 991.167,416.333 988.5,417C 984.949,418.761 983.949,421.428 985.5,425C 982.287,429.421 978.287,430.421 973.5,428C 978.602,421.374 981.768,413.874 983,405.5C 983.016,397.449 983.182,389.449 983.5,381.5C 979.331,373.505 974.165,372.838 968,379.5C 964.391,393.049 958.391,405.383 950,416.5C 943.062,427.141 945.729,433.475 958,435.5C 961.472,434.875 964.805,433.875 968,432.5C 968.21,435.234 969.044,437.734 970.5,440C 976.383,441.843 982.383,443.177 988.5,444C 987.271,445.529 985.771,446.696 984,447.5C 983.691,448.766 983.191,449.933 982.5,451C 959.252,445.188 935.919,439.355 912.5,433.5C 908.869,434.761 908.536,436.761 911.5,439.5C 916.894,442.448 920.727,446.782 923,452.5C 925.167,454.667 927.333,456.833 929.5,459C 942.802,461.665 956.136,464.332 969.5,467C 975.093,468.463 980.093,470.963 984.5,474.5C 974.847,474.668 965.847,472.168 957.5,467C 952.223,466.118 947.223,466.952 942.5,469.5C 926.364,464.954 910.697,459.121 895.5,452C 889.65,447.973 884.317,443.473 879.5,438.5C 873.782,439.892 871.115,443.559 871.5,449.5C 872.364,458.221 875.197,466.221 880,473.5C 881.214,475.049 882.714,476.215 884.5,477C 891.066,479.047 897.733,480.713 904.5,482C 908.947,483.39 912.947,485.556 916.5,488.5C 912.89,493.964 908.057,497.63 902,499.5C 899.747,499.369 897.581,498.869 895.5,498C 890.67,494.835 885.503,492.335 880,490.5C 878.699,491.098 877.865,492.098 877.5,493.5C 884.463,506.625 893.463,518.125 904.5,528C 910.489,530.334 916.156,529.668 921.5,526C 927.742,520.429 933.242,514.262 938,507.5C 940.333,505.833 942.667,504.167 945,502.5C 949.239,504.402 953.239,506.735 957,509.5C 964.94,506.92 968.94,501.586 969,493.5C 965.651,490.318 962.484,486.985 959.5,483.5C 960.5,481.833 961.833,480.5 963.5,479.5C 973.192,482.564 982.859,485.731 992.5,489C 1006.37,501.017 1017.04,498.683 1024.5,482C 1024.24,480.739 1023.57,479.739 1022.5,479C 1035.05,474.484 1047.71,470.15 1060.5,466C 1069.38,462.601 1071.38,456.935 1066.5,449C 1068.24,446.037 1068.74,442.871 1068,439.5C 1063.91,436.947 1059.74,434.613 1055.5,432.5C 1064.86,429.505 1070.86,423.172 1073.5,413.5C 1116.14,523.578 1120.64,635.244 1087,748.5C 1037.35,898.814 940.183,1005.98 795.5,1070C 664.833,1122.67 534.167,1122.67 403.5,1070C 258.817,1005.98 161.65,898.814 112,748.5C 68.4678,595.221 89.4678,451.555 175,317.5C 261.63,192.045 380.796,117.545 532.5,94C 548.953,92.1025 565.286,90.6025 581.5,89.5 Z M 1022.5,438.5 C 1025.32,438.081 1027.49,439.081 1029,441.5C 1030.9,444.127 1032.4,446.961 1033.5,450C 1029.18,454.772 1023.85,456.772 1017.5,456C 1022.79,452.699 1023.45,448.866 1019.5,444.5C 1017.36,444.43 1015.36,443.93 1013.5,443C 1016.56,441.47 1019.56,439.97 1022.5,438.5 Z M 543.5,883.5 C 550.287,883.157 556.62,884.657 562.5,888C 566.323,892.295 566.489,896.795 563,901.5C 560.29,903.688 557.29,905.355 554,906.5C 547.044,903.857 540.711,900.191 535,895.5C 533.734,888.599 536.568,884.599 543.5,883.5 Z M 637.5,884.5 C 654.769,882.603 662.603,890.27 661,907.5C 651.222,912.37 641.389,912.537 631.5,908C 623.97,897.755 625.97,889.922 637.5,884.5 Z M 860.5,897.5 C 874.214,898.04 880.714,905.04 880,918.5C 877.025,923.975 872.858,928.308 867.5,931.5C 860.673,923.168 854.007,914.668 847.5,906C 851.59,902.633 855.924,899.8 860.5,897.5 Z M 538.5,909.5 C 547.052,912.067 554.552,916.401 561,922.5C 561.693,930.151 558.193,934.651 550.5,936C 541.324,937.583 533.491,935.083 527,928.5C 524.439,922.181 525.939,917.014 531.5,913C 533.925,911.787 536.259,910.621 538.5,909.5 Z M 378.5,938.5 C 379.043,938.56 379.376,938.893 379.5,939.5C 374.757,950.65 369.757,961.65 364.5,972.5C 360.691,969.858 357.024,967.025 353.5,964C 362.036,955.632 370.369,947.132 378.5,938.5 Z"/></g>
<g><path style="opacity:0.975" fill="#004ea2" d="M 546.5,140.5 C 558.283,139.773 565.283,145.273 567.5,157C 566.266,166.034 563.433,174.534 559,182.5C 553.134,188.031 547.634,193.865 542.5,200C 540.35,201.411 538.016,202.245 535.5,202.5C 535.594,195.653 535.594,188.986 535.5,182.5C 526.011,186.065 517.845,183.732 511,175.5C 507.829,166.341 510.996,160.841 520.5,159C 528.775,152.052 537.441,145.886 546.5,140.5 Z"/></g>
<g><path style="opacity:0.959" fill="#004da2" d="M 445.5,141.5 C 456.795,142.649 466.628,146.982 475,154.5C 476.318,157.406 476.652,160.406 476,163.5C 470.544,172.617 462.878,179.283 453,183.5C 452.127,183.265 451.293,182.931 450.5,182.5C 449.682,179.893 449.182,177.226 449,174.5C 441.893,165.953 439.56,156.286 442,145.5C 443.376,144.295 444.542,142.962 445.5,141.5 Z"/></g>
<g><path style="opacity:0.971" fill="#004ea2" d="M 819.5,182.5 C 824.673,182.668 828.506,185.002 831,189.5C 835.074,195.805 837.574,202.638 838.5,210C 838.536,212.63 838.036,215.13 837,217.5C 826.665,226.326 819.165,237.159 814.5,250C 825.859,249.595 837.192,249.762 848.5,250.5C 850.167,258.001 847.5,263.168 840.5,266C 828.465,266.368 816.465,267.202 804.5,268.5C 791.435,289.953 772.268,300.619 747,300.5C 736.673,300.022 726.506,298.522 716.5,296C 715.283,292.983 716.45,291.483 720,291.5C 734.207,290.061 747.707,286.227 760.5,280C 762.167,278.333 763.833,276.667 765.5,275C 754.996,274.55 744.496,274.717 734,275.5C 727.345,275.763 720.845,274.929 714.5,273C 706.454,266.381 700.787,258.215 697.5,248.5C 698.34,243.989 701.007,241.655 705.5,241.5C 711.138,243.314 716.805,245.147 722.5,247C 742.423,249.462 762.423,250.129 782.5,249C 783.938,248.781 785.271,248.281 786.5,247.5C 796.69,228.118 805.523,208.118 813,187.5C 814.965,185.45 817.132,183.783 819.5,182.5 Z"/></g>
<g><path style="opacity:0.962" fill="#004ea2" d="M 561.5,191.5 C 563.792,191.244 565.959,191.577 568,192.5C 569.47,210.06 562.97,223.893 548.5,234C 541.612,235.344 535.278,234.01 529.5,230C 527.089,228.045 524.589,226.211 522,224.5C 521.179,221.446 521.345,218.446 522.5,215.5C 527.932,212.45 533.598,209.95 539.5,208C 546.451,201.867 553.785,196.367 561.5,191.5 Z"/></g>
<g><path style="opacity:0.962" fill="#004ea1" d="M 443.5,195.5 C 455.696,193.875 464.53,198.541 470,209.5C 470.139,221.726 464.305,229.893 452.5,234C 449.975,234.896 447.808,234.396 446,232.5C 441.227,224.348 437.727,215.681 435.5,206.5C 436.003,201.126 438.67,197.459 443.5,195.5 Z"/></g>
<g><path style="opacity:0.967" fill="#004ea2" d="M 485.5,213.5 C 490.295,212.563 493.628,214.23 495.5,218.5C 492.942,224.616 490.109,230.616 487,236.5C 481.194,268.916 471.194,299.916 457,329.5C 453.238,332.875 449.072,333.375 444.5,331C 436.14,327.783 429.474,322.616 424.5,315.5C 424.842,313.133 425.342,310.8 426,308.5C 440.818,291.352 454.485,273.352 467,254.5C 472.534,242.76 477.534,230.76 482,218.5C 483.176,216.804 484.343,215.138 485.5,213.5 Z"/></g>
<g><path style="opacity:0.946" fill="#004ea2" d="M 578.5,305.5 C 678.852,301.448 761.685,337.114 827,412.5C 888.864,491.809 907.531,580.475 883,678.5C 866.124,737.948 833.958,787.281 786.5,826.5C 783.727,823.804 781.06,820.971 778.5,818C 861.399,745.662 894.233,654.829 877,545.5C 855.421,449.788 800.254,381.288 711.5,340C 620.816,303.625 533.483,310.292 449.5,360C 356.083,423.003 312.249,511.17 318,624.5C 326.587,702.854 360.754,767.354 420.5,818C 417.931,820.479 415.598,823.146 413.5,826C 412.833,826.667 412.167,826.667 411.5,826C 333.42,757.628 298.586,671.461 307,567.5C 320.535,467.844 370.368,392.678 456.5,342C 494.718,321.201 535.385,309.034 578.5,305.5 Z"/></g>
<g><path style="opacity:0.968" fill="#004ea2" d="M 806.5,305.5 C 815.822,305.578 823.322,309.245 829,316.5C 836.95,337.846 829.783,347.679 807.5,346C 797.592,344.836 794.759,340.002 799,331.5C 799.333,324.833 799.667,318.167 800,311.5C 801.436,308.558 803.603,306.558 806.5,305.5 Z"/></g>
<g><path style="opacity:0.972" fill="#004ea2" d="M 278.5,371.5 C 288.078,381.654 293.578,393.654 295,407.5C 290.726,413.691 284.892,416.191 277.5,415C 275.926,413.174 275.093,411.007 275,408.5C 267.069,400.37 258.069,393.703 248,388.5C 247.833,389.5 247.667,390.5 247.5,391.5C 250.652,404.108 253.486,416.775 256,429.5C 264.084,437.58 271.418,446.247 278,455.5C 279.327,459.49 280.66,463.49 282,467.5C 282.667,470.833 282.667,474.167 282,477.5C 280.263,479.625 278.096,480.458 275.5,480C 270.744,472.008 264.911,464.841 258,458.5C 256.745,465.059 256.078,471.726 256,478.5C 254.558,482.275 252.058,485.108 248.5,487C 245.382,488.059 242.382,489.392 239.5,491C 250.514,503.535 260.68,516.701 270,530.5C 274.333,535.5 278.667,540.5 283,545.5C 285.333,552.214 283.167,556.381 276.5,558C 265.658,560.385 256.492,557.552 249,549.5C 240.375,525.452 230.875,501.785 220.5,478.5C 221.246,477.264 221.579,475.93 221.5,474.5C 226.227,474.048 230.06,475.715 233,479.5C 234.385,478.449 235.385,477.116 236,475.5C 235.996,463.107 234.996,450.774 233,438.5C 230.372,436.874 228.039,434.874 226,432.5C 223.682,437.136 221.349,441.802 219,446.5C 216.552,449.545 213.719,450.045 210.5,448C 210.317,441.59 210.151,435.09 210,428.5C 209.587,425.768 208.92,423.101 208,420.5C 202.941,415.287 197.607,410.287 192,405.5C 189.683,400.285 191.183,396.452 196.5,394C 202.465,392.264 208.465,392.097 214.5,393.5C 216.772,392.559 218.772,391.226 220.5,389.5C 225.088,392.992 227.921,397.659 229,403.5C 231.057,406.014 233.39,407.347 236,407.5C 236.138,397.832 235.804,388.166 235,378.5C 228.292,373.459 222.625,367.459 218,360.5C 215.212,356.33 214.879,351.997 217,347.5C 221.829,341.751 227.829,337.751 235,335.5C 237.211,329.242 238.211,322.909 238,316.5C 241.778,314.1 245.612,314.267 249.5,317C 250.893,318.171 251.727,319.671 252,321.5C 252.117,331.837 252.117,342.17 252,352.5C 252.541,355.209 254.041,357.209 256.5,358.5C 257.881,358 258.547,357 258.5,355.5C 257.091,351.684 255.424,348.017 253.5,344.5C 256.853,335.644 262.853,329.144 271.5,325C 274.833,324.333 278.167,324.333 281.5,325C 282.333,325.833 283.167,326.667 284,327.5C 284.769,332.956 285.936,338.29 287.5,343.5C 298.827,351.499 310.494,358.999 322.5,366C 324.333,367.833 326.167,369.667 328,371.5C 332.495,380.793 333.828,390.46 332,400.5C 330.534,402.325 328.701,402.825 326.5,402C 310.866,391.188 294.866,381.021 278.5,371.5 Z"/></g>
<g><path style="opacity:0.948" fill="#004ea2" d="M 935.5,396.5 C 939.602,396.64 942.436,398.64 944,402.5C 946.842,415.502 942.008,423.835 929.5,427.5C 921.097,426.356 917.93,421.69 920,413.5C 923.642,406.361 928.809,400.695 935.5,396.5 Z"/></g>
<g><path style="opacity:0.956" fill="#004ea2" d="M 164.5,424.5 C 176.767,423.665 181.6,429.332 179,441.5C 178.192,446.905 176.692,452.072 174.5,457C 173.167,457.667 171.833,457.667 170.5,457C 169.5,454.667 167.833,453 165.5,452C 153.916,451.972 145.75,446.805 141,436.5C 138.832,426.919 142.166,424.252 151,428.5C 155.6,427.064 160.1,425.731 164.5,424.5 Z"/></g>
<g><path style="opacity:0.956" fill="#004ea2" d="M 196.5,456.5 C 205.994,457.832 210.66,463.332 210.5,473C 209.474,478.414 208.808,483.914 208.5,489.5C 203.756,489.275 200.09,487.108 197.5,483C 188.953,481.602 181.453,478.102 175,472.5C 173.36,470.421 172.194,468.088 171.5,465.5C 172.032,463.259 173.365,461.759 175.5,461C 182.565,459.156 189.565,457.656 196.5,456.5 Z"/></g>
<g><path style="opacity:0.991" fill="#004ea2" d="M 595.5,457.5 C 617.48,456.106 638.146,460.606 657.5,471C 660,472.833 662.5,474.667 665,476.5C 665.456,477.744 664.956,478.577 663.5,479C 650.679,483.273 638.013,487.94 625.5,493C 631.692,507.885 638.025,522.718 644.5,537.5C 651.466,520.72 660.299,505.054 671,490.5C 678.928,481.119 688.761,474.619 700.5,471C 725.794,469.857 751.127,469.357 776.5,469.5C 800.167,469.833 823.833,470.167 847.5,470.5C 839.631,491.95 824.297,504.116 801.5,507C 788.111,507.879 774.778,507.379 761.5,505.5C 760.5,505.833 759.5,506.167 758.5,506.5C 755.232,513.639 752.565,520.972 750.5,528.5C 772.167,528.5 793.833,528.5 815.5,528.5C 803.918,560.973 780.918,573.807 746.5,567C 742.294,566.739 738.127,566.239 734,565.5C 729.64,573.065 726.14,581.065 723.5,589.5C 740.867,589.859 758.2,590.693 775.5,592C 767.714,610.774 753.714,621.774 733.5,625C 724.452,625.805 715.452,625.639 706.5,624.5C 703.596,632.38 700.596,640.213 697.5,648C 711.487,647.8 725.487,647.633 739.5,647.5C 731.186,676.519 711.853,688.685 681.5,684C 678.335,691.329 675.668,698.829 673.5,706.5C 683.19,706.168 692.856,706.502 702.5,707.5C 699.122,716.435 694.122,724.268 687.5,731C 685.112,732.861 682.446,734.194 679.5,735C 671.586,736.823 663.586,738.156 655.5,739C 645.884,744.411 642.384,752.578 645,763.5C 647.227,770.631 651.393,776.298 657.5,780.5C 638.865,810.966 620.031,841.299 601,871.5C 581.03,840.698 560.863,810.031 540.5,779.5C 553.357,770.071 556.524,758.071 550,743.5C 548.457,741.622 546.624,740.122 544.5,739C 538.202,737.54 531.869,736.207 525.5,735C 510.866,730.199 501.533,720.366 497.5,705.5C 506.839,705.666 516.173,705.5 525.5,705C 522.335,697.671 519.668,690.171 517.5,682.5C 501.067,685.848 486.9,681.848 475,670.5C 470.127,663.924 465.627,657.09 461.5,650C 475.168,649.365 488.835,648.698 502.5,648C 499.833,641.667 497.167,635.333 494.5,629C 484.463,628.796 474.463,628.129 464.5,627C 452.741,625.21 443.241,619.71 436,610.5C 432.326,605.156 429.16,599.49 426.5,593.5C 443.827,592.549 461.16,591.715 478.5,591C 474.87,583.27 471.536,575.437 468.5,567.5C 453.131,567.859 437.797,567.359 422.5,566C 410.729,563.865 401.229,558.031 394,548.5C 390.374,542.75 386.874,536.916 383.5,531C 405.508,530.833 427.508,530.333 449.5,529.5C 446.569,522.54 443.736,515.54 441,508.5C 426.908,507.676 412.741,507.176 398.5,507C 374.516,505.814 357.849,494.314 348.5,472.5C 391.506,471.817 434.506,470.817 477.5,469.5C 498.112,468.201 515.279,475.201 529,490.5C 537.13,504.427 544.463,518.76 551,533.5C 556.845,513.121 562.845,492.788 569,472.5C 575.59,463.457 584.424,458.457 595.5,457.5 Z"/></g>
<g><path style="opacity:0.953" fill="#004ea2" d="M 979.5,682.5 C 996.942,697.435 1014.28,712.602 1031.5,728C 1042.21,732.403 1052.87,736.903 1063.5,741.5C 1063.83,742.167 1064.17,742.833 1064.5,743.5C 1063.61,747.614 1061.94,751.281 1059.5,754.5C 1049.61,750.389 1039.61,746.556 1029.5,743C 1005.16,742.15 980.823,741.15 956.5,740C 957.633,736.268 958.966,732.601 960.5,729C 976.856,728.446 993.19,728.446 1009.5,729C 997.7,718.869 986.2,708.369 975,697.5C 976.365,692.562 977.865,687.562 979.5,682.5 Z"/></g>
<g><path style="opacity:0.953" fill="#004ea2" d="M 221.5,691.5 C 222.822,691.33 223.989,691.663 225,692.5C 231.495,708.655 237.162,724.988 242,741.5C 238.29,743.126 234.457,744.459 230.5,745.5C 200.521,740.447 170.521,735.947 140.5,732C 145.692,745.239 150.692,758.572 155.5,772C 155.355,772.772 155.022,773.439 154.5,774C 151.129,775.068 147.796,776.235 144.5,777.5C 137.357,759.382 130.357,741.216 123.5,723C 127.461,721.402 131.461,719.902 135.5,718.5C 165.773,723.657 196.106,728.157 226.5,732C 221.14,719.752 216.473,707.252 212.5,694.5C 215.785,694.072 218.785,693.072 221.5,691.5 Z"/></g>
<g><path style="opacity:0.948" fill="#004ea2" d="M 954.5,744.5 C 958.308,746.573 961.974,748.906 965.5,751.5C 962.317,757.523 959.484,763.523 957,769.5C 984.451,785.471 1011.62,801.804 1038.5,818.5C 1037.07,822.375 1034.9,825.708 1032,828.5C 1004.52,812.759 977.185,796.759 950,780.5C 947.174,786.822 943.841,792.822 940,798.5C 936.832,796.248 933.499,794.248 930,792.5C 937.311,776.214 945.478,760.214 954.5,744.5 Z"/></g>
<g><path style="opacity:0.947" fill="#004ea2" d="M 244.5,754.5 C 245.822,754.33 246.989,754.663 248,755.5C 249.08,757.996 250.414,760.33 252,762.5C 252.781,763.944 252.614,765.277 251.5,766.5C 238.851,772.49 226.517,778.99 214.5,786C 218.628,793.755 222.628,801.589 226.5,809.5C 227.365,810.583 228.365,810.749 229.5,810C 241.657,804.089 253.657,797.922 265.5,791.5C 268.194,794.876 270.527,798.543 272.5,802.5C 241.73,818.635 210.896,834.635 180,850.5C 176.183,847.213 174.35,843.213 174.5,838.5C 188.344,831.078 202.344,823.911 216.5,817C 212.034,808.373 207.367,799.873 202.5,791.5C 188.5,798.833 174.5,806.167 160.5,813.5C 157.287,810.078 155.454,806.078 155,801.5C 184.816,785.677 214.649,770.01 244.5,754.5 Z"/></g>
<g><path style="opacity:0.948" fill="#004ea2" d="M 921.5,806.5 C 951.18,824.67 980.513,843.337 1009.5,862.5C 1007.19,865.975 1004.69,869.308 1002,872.5C 973.085,853.958 943.919,835.791 914.5,818C 913.549,817.282 913.383,816.449 914,815.5C 916.508,812.469 919.008,809.469 921.5,806.5 Z"/></g>
<g><path style="opacity:0.949" fill="#014da2" d="M 275.5,808.5 C 277.017,808.511 278.184,809.177 279,810.5C 288.088,823.676 297.421,836.676 307,849.5C 307.982,850.759 308.315,852.092 308,853.5C 304.918,855.625 301.751,857.625 298.5,859.5C 290.5,848.5 282.5,837.5 274.5,826.5C 265.961,831.598 257.627,836.931 249.5,842.5C 256.139,852.305 262.972,861.972 270,871.5C 270.089,873.113 269.255,874.28 267.5,875C 264.751,876.123 262.251,877.623 260,879.5C 252.421,869.342 245.088,859.009 238,848.5C 228.753,854.875 219.253,860.875 209.5,866.5C 208.479,867.002 208.312,867.668 209,868.5C 216.973,879.973 225.14,891.306 233.5,902.5C 230.136,905.029 226.636,907.363 223,909.5C 211.956,893.912 200.789,878.412 189.5,863C 218.4,845.059 247.067,826.892 275.5,808.5 Z"/></g>
<g><path style="opacity:0.951" fill="#004ea2" d="M 904.5,839.5 C 911.117,839.19 917.45,840.357 923.5,843C 924.059,843.725 924.392,844.558 924.5,845.5C 923.003,849.162 921.503,852.828 920,856.5C 912.217,852.19 904.884,852.856 898,858.5C 893.823,866.582 894.989,873.749 901.5,880C 904.738,881.368 908.072,881.701 911.5,881C 919.507,878.498 927.174,875.164 934.5,871C 948.143,867.727 960.309,870.56 971,879.5C 981.79,895.555 980.29,910.389 966.5,924C 956.658,929.951 946.325,930.951 935.5,927C 933.82,926.653 932.82,925.653 932.5,924C 934.035,920.431 935.702,916.931 937.5,913.5C 946.592,917.246 954.759,915.913 962,909.5C 967.297,895.426 962.63,886.759 948,883.5C 945.5,884 943,884.5 940.5,885C 933.167,888 925.833,891 918.5,894C 899.494,898.422 887.66,891.255 883,872.5C 881.196,855.399 888.363,844.399 904.5,839.5 Z"/></g>
<g><path style="opacity:0.938" fill="#004ea2" d="M 744.5,840.5 C 747.505,840.253 750.005,841.253 752,843.5C 751.786,865.834 751.119,888.167 750,910.5C 746.918,912.625 743.751,914.625 740.5,916.5C 739.667,896.175 739.167,875.842 739,855.5C 726.787,861.356 714.621,867.356 702.5,873.5C 700.777,871.222 699.444,868.722 698.5,866C 713.706,857.231 729.04,848.731 744.5,840.5 Z"/></g>
<g><path style="opacity:0.938" fill="#014ea2" d="M 451.5,848.5 C 455.951,850.723 460.618,852.39 465.5,853.5C 467.981,853.187 470.147,852.187 472,850.5C 475.378,851.26 477.878,853.093 479.5,856C 470.38,871.736 461.38,887.569 452.5,903.5C 456.462,906.488 460.462,909.488 464.5,912.5C 463.649,914.882 462.316,916.882 460.5,918.5C 448.332,911.25 436.332,903.75 424.5,896C 425.646,893.856 427.146,892.023 429,890.5C 433.148,892.574 437.148,894.907 441,897.5C 448.338,886.162 455.171,874.495 461.5,862.5C 457.805,859.638 453.971,856.972 450,854.5C 450.15,852.494 450.65,850.494 451.5,848.5 Z"/></g>
<g><path style="opacity:0.956" fill="#004ea2" d="M 329.5,875.5 C 333.702,878.516 336.869,882.183 339,886.5C 320.138,905.695 300.972,924.529 281.5,943C 260.334,955.056 244.834,949.889 235,927.5C 234.333,922.833 234.333,918.167 235,913.5C 235.45,911.481 236.283,909.648 237.5,908C 241.69,908.843 245.524,910.676 249,913.5C 246.273,925.272 250.773,932.606 262.5,935.5C 267.021,934.814 271.021,932.981 274.5,930C 292.728,911.604 311.062,893.438 329.5,875.5 Z"/></g>
<g><path style="opacity:0.941" fill="#004da2" d="M 536.5,876.5 C 549.173,875.135 561.173,877.302 572.5,883C 582.335,892.157 581.668,900.491 570.5,908C 567.968,908.619 565.635,909.619 563.5,911C 574.79,915.072 578.29,922.572 574,933.5C 566.76,941.36 557.76,944.694 547,943.5C 536.702,943.884 527.202,941.384 518.5,936C 510.664,929.135 509.498,921.301 515,912.5C 519.514,909.327 524.347,906.827 529.5,905C 517.129,897.509 516.463,889.176 527.5,880C 530.571,878.704 533.571,877.538 536.5,876.5 Z M 543.5,883.5 C 536.568,884.599 533.734,888.599 535,895.5C 540.711,900.191 547.044,903.857 554,906.5C 557.29,905.355 560.29,903.688 563,901.5C 566.489,896.795 566.323,892.295 562.5,888C 556.62,884.657 550.287,883.157 543.5,883.5 Z M 538.5,909.5 C 536.259,910.621 533.925,911.787 531.5,913C 525.939,917.014 524.439,922.181 527,928.5C 533.491,935.083 541.324,937.583 550.5,936C 558.193,934.651 561.693,930.151 561,922.5C 554.552,916.401 547.052,912.067 538.5,909.5 Z"/></g>
<g><path style="opacity:0.935" fill="#014da2" d="M 635.5,876.5 C 666.697,873.859 679.531,887.859 674,918.5C 669.814,931.519 660.98,939.352 647.5,942C 638.809,943.813 630.143,943.813 621.5,942C 620.556,939.281 620.223,936.448 620.5,933.5C 630.298,936.187 639.965,935.687 649.5,932C 655.748,928.41 659.748,923.077 661.5,916C 655.184,917.62 648.684,918.787 642,919.5C 631.196,920.059 622.196,916.392 615,908.5C 610.336,896.983 613.169,887.817 623.5,881C 627.571,879.37 631.571,877.87 635.5,876.5 Z M 637.5,884.5 C 625.97,889.922 623.97,897.755 631.5,908C 641.389,912.537 651.222,912.37 661,907.5C 662.603,890.27 654.769,882.603 637.5,884.5 Z"/></g>
<g><path style="opacity:0.96" fill="#004da2" d="M 859.5,883.5 C 871.197,881.629 881.364,884.629 890,892.5C 893.09,896.682 895.09,901.349 896,906.5C 896.385,913.581 896.051,920.581 895,927.5C 907.225,938.026 919.725,948.193 932.5,958C 928.686,960.98 925.019,964.146 921.5,967.5C 909.355,957.856 897.355,948.022 885.5,938C 884.833,937.333 884.167,937.333 883.5,938C 881.129,940.706 878.463,943.039 875.5,945C 884.078,956.156 892.411,967.489 900.5,979C 896.651,982.682 892.984,986.515 889.5,990.5C 868.723,961.793 848.056,932.959 827.5,904C 837.416,895.882 848.083,889.049 859.5,883.5 Z M 860.5,897.5 C 855.924,899.8 851.59,902.633 847.5,906C 854.007,914.668 860.673,923.168 867.5,931.5C 872.858,928.308 877.025,923.975 880,918.5C 880.714,905.04 874.214,898.04 860.5,897.5 Z"/></g>
<g><path style="opacity:0.953" fill="#004da2" d="M 348.5,892.5 C 352.726,894.879 356.559,897.879 360,901.5C 360.667,902.5 360.667,903.5 360,904.5C 339.427,929.317 319.094,954.317 299,979.5C 298.163,981.007 296.996,981.507 295.5,981C 292.631,977.796 289.465,974.963 286,972.5C 285.685,971.092 286.018,969.759 287,968.5C 307.748,943.319 328.248,917.986 348.5,892.5 Z"/></g>
<g><path style="opacity:0.948" fill="#004ea2" d="M 822.5,907.5 C 825.412,910.455 827.746,913.955 829.5,918C 818.518,924.828 807.185,931.161 795.5,937C 800.793,945.751 805.959,954.585 811,963.5C 821.42,957.706 831.92,952.04 842.5,946.5C 844.5,949.833 846.5,953.167 848.5,956.5C 848.023,957.478 847.357,958.311 846.5,959C 836.673,964.08 827.006,969.413 817.5,975C 823.299,985.118 829.465,994.951 836,1004.5C 847.738,998.047 859.571,991.713 871.5,985.5C 873.996,988.841 876.329,992.341 878.5,996C 862.253,1004.71 846.087,1013.54 830,1022.5C 812.374,992.749 794.874,962.916 777.5,933C 792.563,924.473 807.563,915.973 822.5,907.5 Z"/></g>
<g><path style="opacity:0.958" fill="#004ea2" d="M 382.5,916.5 C 388.488,918.965 394.155,922.131 399.5,926C 386.671,957.15 373.838,988.316 361,1019.5C 360.653,1021.18 359.653,1022.18 358,1022.5C 353.601,1020.38 349.434,1017.88 345.5,1015C 349.833,1006 354.167,997 358.5,988C 354.5,985 350.5,982 346.5,979C 345.241,978.018 343.908,977.685 342.5,978C 334.833,985.167 327.167,992.333 319.5,999.5C 315.518,996.848 311.851,993.848 308.5,990.5C 333.494,966.173 358.161,941.506 382.5,916.5 Z M 378.5,938.5 C 370.369,947.132 362.036,955.632 353.5,964C 357.024,967.025 360.691,969.858 364.5,972.5C 369.757,961.65 374.757,950.65 379.5,939.5C 379.376,938.893 379.043,938.56 378.5,938.5 Z"/></g>
<g><path style="opacity:0.961" fill="#004ea2" d="M 418.5,934.5 C 422.819,935.741 426.985,937.408 431,939.5C 430.107,961.543 428.774,983.543 427,1005.5C 436.579,987.34 446.413,969.34 456.5,951.5C 460.458,953.43 464.458,955.263 468.5,957C 453.144,988.213 437.644,1019.38 422,1050.5C 421.439,1051.02 420.772,1051.36 420,1051.5C 415.97,1049.4 411.804,1047.73 407.5,1046.5C 409.489,1023.44 411.655,1000.44 414,977.5C 404.939,996.623 395.605,1015.62 386,1034.5C 381.112,1032.31 376.279,1029.97 371.5,1027.5C 387.435,996.629 403.102,965.629 418.5,934.5 Z"/></g>
<g><path style="opacity:0.954" fill="#004ea2" d="M 770.5,935.5 C 771.5,935.5 772.5,935.5 773.5,935.5C 778.878,969.98 784.212,1004.48 789.5,1039C 789.441,1040.44 789.108,1041.77 788.5,1043C 784.727,1044.97 780.894,1046.8 777,1048.5C 757.47,1018.62 738.303,988.45 719.5,958C 723.793,956.069 728.126,954.236 732.5,952.5C 745.557,971.407 758.057,990.74 770,1010.5C 767.447,987.793 764.28,965.127 760.5,942.5C 760.608,941.558 760.941,940.725 761.5,940C 764.823,938.96 767.823,937.46 770.5,935.5 Z"/></g>
<g><path style="opacity:0.95" fill="#004ea2" d="M 706.5,961.5 C 708.766,961.141 710.599,961.808 712,963.5C 720.993,995.141 729.827,1026.81 738.5,1058.5C 733.786,1059.14 729.286,1060.47 725,1062.5C 715.118,1030.02 705.951,997.356 697.5,964.5C 700.785,964.072 703.785,963.072 706.5,961.5 Z"/></g>
<g><path style="opacity:0.95" fill="#004ea2" d="M 485.5,965.5 C 502.59,963.442 512.757,970.776 516,987.5C 516.667,992.167 516.667,996.833 516,1001.5C 514.647,1002.7 512.981,1003.37 511,1003.5C 507.833,1003.1 504.666,1002.77 501.5,1002.5C 502.931,996.798 502.764,991.131 501,985.5C 498.816,980.491 494.983,978.158 489.5,978.5C 482.616,979.191 477.45,982.524 474,988.5C 465.111,1004.39 460.444,1021.39 460,1039.5C 461.986,1052.06 468.819,1056.23 480.5,1052C 485.991,1046.35 489.658,1039.68 491.5,1032C 486.012,1030.12 480.679,1027.95 475.5,1025.5C 476.909,1022.27 477.909,1018.94 478.5,1015.5C 488.015,1017.71 497.348,1020.55 506.5,1024C 501.474,1039.41 496.641,1054.91 492,1070.5C 491.481,1071.52 490.647,1072.18 489.5,1072.5C 486.934,1071.63 484.434,1070.63 482,1069.5C 481.845,1067.14 481.845,1064.81 482,1062.5C 463.96,1068.31 452.293,1061.98 447,1043.5C 445.424,1021.56 450.424,1001.23 462,982.5C 467.732,973.736 475.566,968.069 485.5,965.5 Z"/></g>
<g><path style="opacity:0.96" fill="#004ea2" d="M 686.5,967.5 C 688.117,968.589 688.95,970.256 689,972.5C 692.578,1003.87 696.411,1035.2 700.5,1066.5C 700.182,1067.65 699.516,1068.48 698.5,1069C 695.812,1069.39 693.145,1069.89 690.5,1070.5C 689.558,1070.39 688.725,1070.06 688,1069.5C 677,1048.5 666,1027.5 655,1006.5C 656.308,1029.49 657.808,1052.49 659.5,1075.5C 654.817,1076.07 650.15,1076.74 645.5,1077.5C 642.833,1043.17 640.167,1008.84 637.5,974.5C 643.2,973.752 648.867,973.752 654.5,974.5C 663.333,988.833 672.167,1003.17 681,1017.5C 679.572,1001.55 678.072,985.546 676.5,969.5C 680.011,969.101 683.344,968.434 686.5,967.5 Z"/></g>
<g><path style="opacity:0.952" fill="#004da2" d="M 574.5,976.5 C 578.833,976.5 583.167,976.5 587.5,976.5C 586.86,1002.51 586.36,1028.51 586,1054.5C 590.462,1067 598.628,1070.16 610.5,1064C 612.652,1061.53 614.152,1058.7 615,1055.5C 616.588,1029.53 617.755,1003.53 618.5,977.5C 622.857,977.586 627.19,977.92 631.5,978.5C 631.267,1005.89 630.101,1033.22 628,1060.5C 624.056,1073.56 615.223,1079.9 601.5,1079.5C 588.335,1080.01 579.169,1074.35 574,1062.5C 572.904,1054.89 572.404,1047.23 572.5,1039.5C 573.038,1018.49 573.705,997.493 574.5,976.5 Z"/></g>
</svg>
