<svg id="svg" version="1.1" xmlns="http://www.w3.org/2000/svg" xmlns:xlink="http://www.w3.org/1999/xlink" width="400" height="400" viewBox="0, 0, 400,400"><g id="svgg"><path id="path0" d="M115.886 169.606 C 111.297 170.401,105.315 174.639,102.462 179.117 C 97.659 186.655,98.035 205.161,103.152 213.077 C 108.733 221.712,112.958 223.183,132.211 223.193 C 148.070 223.202,146.800 223.718,146.800 217.257 C 146.800 211.136,147.602 211.601,137.020 211.597 C 118.550 211.591,113.800 208.441,113.800 196.200 C 113.800 189.118,115.451 185.767,120.367 182.878 L 122.200 181.800 134.081 181.600 C 143.079 181.449,146.087 181.274,146.481 180.880 C 147.213 180.146,147.213 170.653,146.480 169.920 C 145.872 169.310,119.178 169.037,115.886 169.606 M169.400 169.587 C 162.071 170.702,154.584 178.359,153.159 186.200 C 152.281 191.026,152.882 204.537,154.127 207.975 C 156.133 213.517,160.104 218.436,164.247 220.511 C 169.238 223.011,169.138 223.000,186.732 223.000 C 205.469 223.000,204.000 223.374,204.000 218.600 C 204.000 213.899,205.050 214.233,189.533 214.000 C 176.758 213.808,176.131 213.763,174.553 212.919 C 170.002 210.484,167.151 205.815,168.389 202.825 C 169.195 200.880,169.831 200.800,184.396 200.800 C 200.320 200.800,199.200 201.164,199.200 195.987 C 199.200 191.048,200.441 191.433,183.797 191.200 L 169.528 191.000 168.764 190.056 C 167.373 188.336,168.587 184.992,171.751 181.827 C 174.637 178.942,175.489 178.800,189.898 178.800 C 197.787 178.800,202.740 178.646,203.226 178.386 C 204.301 177.811,204.394 170.825,203.339 169.949 C 202.593 169.329,173.160 169.015,169.400 169.587 M212.129 169.460 C 210.523 169.807,210.196 170.684,210.305 174.360 C 210.438 178.840,210.379 178.800,216.889 178.800 C 227.342 178.800,227.152 178.368,227.563 203.077 C 227.796 217.056,227.983 221.298,228.389 221.787 C 229.398 223.003,241.232 222.488,241.883 221.200 C 242.689 219.606,242.615 179.271,241.802 176.531 C 241.094 174.147,238.662 171.217,236.511 170.156 C 235.041 169.432,214.923 168.858,212.129 169.460 M266.954 169.590 C 262.404 170.278,255.716 175.130,253.052 179.676 C 250.314 184.348,249.320 198.426,251.205 205.836 C 253.108 213.317,257.863 219.191,264.000 221.642 L 267.400 223.000 282.080 223.000 C 291.335 223.000,296.907 222.852,297.158 222.600 C 297.856 221.898,297.885 212.425,297.191 211.986 C 296.866 211.780,292.538 211.609,287.573 211.606 C 273.211 211.596,269.080 210.083,265.925 203.677 C 264.410 200.603,264.534 190.993,266.122 188.291 C 269.656 182.279,270.889 181.843,285.039 181.600 C 294.086 181.445,296.826 181.278,297.339 180.851 C 298.317 180.038,298.317 170.761,297.339 169.949 C 296.588 169.325,270.729 169.019,266.954 169.590 " stroke="none" fill="#b84a37" fill-rule="evenodd"></path><path id="path1" d="M0.000 48.000 C 0.000 74.400,0.091 96.000,0.201 96.000 C 0.809 96.000,46.405 72.935,48.095 71.772 C 49.204 71.009,71.912 59.485,98.556 46.163 C 125.200 32.840,147.330 21.639,147.734 21.270 C 148.138 20.902,157.678 15.974,168.934 10.320 L 189.400 0.040 94.700 0.020 L 0.000 0.000 0.000 48.000 M232.222 11.520 C 244.774 17.834,255.844 23.558,256.822 24.240 C 257.800 24.923,280.289 36.320,306.798 49.567 C 333.306 62.815,355.545 74.073,356.217 74.586 C 356.889 75.099,367.016 80.307,378.720 86.160 L 400.000 96.801 400.000 48.401 L 400.000 0.000 304.700 0.020 L 209.400 0.041 232.222 11.520 M185.818 13.064 C 179.007 16.486,172.887 19.697,172.218 20.202 C 171.548 20.706,149.130 32.045,122.400 45.400 C 95.670 58.755,73.174 70.153,72.410 70.730 C 71.645 71.306,56.918 78.836,39.683 87.462 C 22.448 96.089,8.089 103.361,7.773 103.622 C 6.797 104.433,6.922 295.630,7.900 296.496 C 8.285 296.838,19.661 302.644,33.180 309.399 C 46.699 316.154,58.309 322.095,58.980 322.600 C 59.651 323.105,82.070 334.447,108.800 347.805 C 135.530 361.162,158.210 372.676,159.200 373.392 C 162.087 375.479,197.965 393.200,199.303 393.200 C 200.532 393.200,242.748 372.340,245.021 370.609 C 245.693 370.098,268.403 358.599,295.487 345.056 C 322.572 331.514,344.853 320.239,345.000 320.001 C 345.147 319.763,355.504 314.449,368.015 308.193 C 381.905 301.246,390.926 296.513,391.181 296.035 C 391.641 295.176,391.805 105.400,391.347 104.207 C 391.204 103.834,378.476 97.239,362.021 89.011 C 346.031 81.015,332.420 74.029,331.774 73.486 C 331.128 72.943,309.270 61.839,283.200 48.809 C 257.130 35.779,235.252 24.705,234.581 24.201 C 232.326 22.503,200.448 6.799,199.302 6.822 C 198.696 6.834,192.628 9.643,185.818 13.064 M260.116 160.908 C 262.607 162.540,261.675 166.148,258.329 167.823 C 257.158 168.410,254.535 169.877,252.499 171.084 C 250.464 172.291,247.953 173.533,246.920 173.844 C 244.645 174.529,244.405 174.863,244.842 176.741 C 245.028 177.543,245.185 187.971,245.190 199.913 C 245.201 223.057,245.146 223.758,243.260 224.768 C 242.208 225.331,227.830 225.351,226.783 224.791 C 225.163 223.924,225.099 223.247,224.797 203.623 C 224.427 179.688,225.234 181.700,215.933 181.516 C 210.575 181.410,209.959 181.322,208.849 180.500 C 208.180 180.005,207.438 179.600,207.200 179.600 C 206.962 179.600,206.220 180.005,205.551 180.500 C 204.358 181.383,204.067 181.404,190.467 181.600 C 174.769 181.826,175.090 181.763,172.487 185.175 C 170.105 188.298,169.614 188.174,185.224 188.400 C 202.854 188.655,202.187 188.324,201.932 196.694 C 201.801 200.983,201.744 201.237,200.689 202.294 L 199.583 203.400 185.492 203.618 C 177.741 203.737,171.355 203.872,171.300 203.918 C 170.628 204.472,171.814 207.336,173.262 208.653 C 175.809 210.970,175.906 210.984,190.692 211.200 L 204.383 211.400 205.492 212.510 C 207.210 214.231,207.210 222.973,205.491 224.691 L 204.383 225.800 188.291 225.916 C 167.181 226.067,164.085 225.384,158.000 219.230 C 151.721 212.879,149.996 207.704,150.007 195.245 C 150.020 180.870,153.894 173.404,163.870 168.529 L 167.000 167.000 185.622 166.885 L 204.245 166.770 205.722 167.773 L 207.200 168.776 208.678 167.773 L 210.156 166.770 223.414 166.885 L 236.672 167.000 238.795 168.320 C 241.673 170.110,242.000 169.896,242.000 166.231 C 242.000 160.355,242.716 159.928,252.251 160.112 C 257.805 160.219,259.294 160.369,260.116 160.908 M147.750 167.181 C 149.376 167.799,149.746 169.030,149.923 174.400 C 150.252 184.457,150.733 184.140,134.779 184.400 C 121.551 184.616,122.409 184.469,119.665 186.979 C 117.096 189.328,116.600 190.822,116.600 196.200 C 116.600 206.758,120.003 208.791,137.681 208.797 C 150.054 208.801,149.600 208.480,149.600 217.239 C 149.600 226.467,150.522 226.002,132.240 225.993 C 114.002 225.984,111.102 225.313,105.184 219.730 C 98.324 213.258,96.080 206.291,96.516 192.815 C 96.939 179.756,101.771 172.095,112.322 167.756 C 114.793 166.740,145.288 166.245,147.750 167.181 M299.631 167.969 L 300.800 169.138 300.800 175.150 C 300.800 184.722,301.739 184.135,286.000 184.397 C 272.438 184.623,272.503 184.610,270.009 187.450 C 266.053 191.957,266.671 202.327,271.114 205.989 C 273.910 208.294,275.127 208.501,287.490 208.762 C 301.796 209.064,300.600 208.294,300.600 217.202 L 300.600 223.582 299.524 224.658 L 298.448 225.734 283.924 225.910 C 267.783 226.105,266.474 225.968,261.354 223.549 C 245.829 216.214,241.779 186.531,254.561 173.765 C 261.389 166.945,261.834 166.832,282.131 166.814 L 298.462 166.800 299.631 167.969 M385.280 310.608 C 377.293 314.639,370.174 318.383,369.458 318.928 C 368.743 319.474,346.297 330.847,319.579 344.201 C 292.860 357.555,270.451 368.895,269.780 369.401 C 269.108 369.906,255.248 376.988,238.980 385.138 L 209.400 399.956 304.700 399.978 L 400.000 400.000 400.000 351.600 C 400.000 324.980,399.955 303.218,399.900 303.240 C 399.845 303.262,393.266 306.578,385.280 310.608 M0.000 351.967 L 0.000 400.000 94.700 399.979 L 189.400 399.959 162.133 386.279 C 147.136 378.756,134.536 372.304,134.133 371.941 C 133.730 371.579,112.070 360.626,86.000 347.601 C 59.930 334.575,38.051 323.505,37.381 323.001 C 36.520 322.353,4.662 306.090,0.300 304.072 C 0.135 303.996,0.000 325.548,0.000 351.967 " stroke="none" fill="#fbfbfb" fill-rule="evenodd"></path><path id="path2" d="M192.400 0.580 C 192.400 1.662,189.819 3.093,170.045 12.973 C 159.180 18.402,149.730 23.265,149.045 23.781 C 148.360 24.296,125.930 35.645,99.200 49.000 C 72.470 62.355,50.051 73.695,49.380 74.200 C 47.008 75.986,2.444 98.000,1.201 98.000 L 0.000 98.000 0.000 200.000 L 0.000 302.000 1.202 302.000 C 2.448 302.000,35.874 318.435,38.221 320.201 C 38.893 320.707,60.583 331.690,86.421 344.608 C 112.260 357.526,134.372 368.749,135.560 369.548 C 136.748 370.347,149.888 377.120,164.760 384.600 C 184.870 394.715,191.901 398.431,192.195 399.100 C 192.681 400.208,206.400 400.558,206.400 399.462 C 206.400 398.418,208.067 397.525,236.800 383.166 C 252.750 375.195,266.656 368.071,267.702 367.336 C 268.747 366.601,291.727 354.937,318.768 341.416 C 345.808 327.896,368.054 316.636,368.204 316.394 C 368.551 315.832,398.641 300.800,399.418 300.800 C 399.926 300.800,400.000 287.925,400.000 200.043 L 400.000 99.287 398.900 99.013 C 397.341 98.626,355.568 77.686,354.600 76.806 C 354.160 76.407,331.760 65.064,304.821 51.600 C 277.883 38.136,255.293 26.707,254.621 26.201 C 253.950 25.696,243.410 20.295,231.200 14.200 C 209.108 3.172,206.400 1.685,206.400 0.580 C 206.400 0.096,205.246 0.000,199.400 0.000 C 193.554 0.000,192.400 0.096,192.400 0.580 M216.865 11.838 C 225.959 16.369,234.427 20.774,235.681 21.628 C 236.936 22.482,259.376 33.887,285.547 46.974 C 311.719 60.060,333.253 70.962,333.400 71.200 C 333.547 71.438,346.976 78.288,363.243 86.421 C 388.905 99.254,392.922 101.381,393.609 102.505 C 394.862 104.557,394.657 296.608,393.400 298.005 C 392.960 298.493,382.727 303.831,370.661 309.867 C 358.594 315.902,347.795 321.478,346.663 322.257 C 345.531 323.035,322.824 334.563,296.202 347.873 C 269.581 361.183,247.245 372.493,246.567 373.006 C 244.551 374.531,200.460 396.400,199.402 396.400 C 198.348 396.400,159.788 377.317,157.779 375.801 C 157.107 375.294,134.517 363.859,107.579 350.390 C 80.640 336.921,58.102 325.482,57.492 324.970 C 56.883 324.458,45.183 318.439,31.492 311.594 C 17.802 304.750,6.150 298.707,5.600 298.166 L 4.600 297.182 4.600 200.033 C 4.600 103.447,4.605 102.879,5.400 101.995 C 5.840 101.506,20.420 93.999,37.800 85.312 C 55.180 76.626,70.003 69.063,70.741 68.507 C 71.478 67.952,93.888 56.603,120.541 43.288 C 147.193 29.973,169.810 18.495,170.800 17.782 C 173.332 15.958,198.242 3.600,199.386 3.600 C 199.905 3.600,207.770 7.307,216.865 11.838 " stroke="none" fill="#040404" fill-rule="evenodd"></path><path id="path3" d="M206.800 0.194 C 206.800 0.586,215.320 5.009,233.000 13.796 C 243.560 19.045,253.439 24.129,254.953 25.095 C 256.467 26.062,279.626 37.813,306.419 51.209 C 333.211 64.606,355.253 75.761,355.400 75.999 C 355.746 76.559,399.625 98.508,399.883 98.250 C 399.990 98.143,390.476 93.253,378.739 87.385 C 367.003 81.516,356.850 76.301,356.179 75.797 C 355.507 75.292,333.104 63.952,306.394 50.597 C 279.684 37.241,256.827 25.634,255.602 24.801 C 252.942 22.995,206.800 -0.271,206.800 0.194 M170.600 10.662 C 159.380 16.285,149.635 21.310,148.946 21.829 C 148.256 22.347,125.936 33.650,99.346 46.945 C 72.755 60.241,50.010 71.788,48.800 72.605 C 46.613 74.081,2.711 96.231,0.800 96.822 C -0.157 97.118,-0.161 97.133,0.701 97.166 C 1.673 97.203,46.556 74.924,48.580 73.400 C 49.251 72.895,71.670 61.553,98.400 48.195 C 125.130 34.838,147.810 23.320,148.800 22.600 C 149.790 21.880,159.264 16.961,169.853 11.668 C 188.404 2.396,192.260 0.383,191.400 0.420 C 191.180 0.429,181.820 5.038,170.600 10.662 M196.800 5.777 C 192.671 7.546,172.604 17.803,171.200 18.862 C 170.430 19.443,147.930 30.845,121.200 44.200 C 94.470 57.555,72.051 68.895,71.379 69.401 C 70.708 69.906,55.919 77.440,38.514 86.143 C 18.528 96.137,6.635 102.300,6.234 102.872 C 5.262 104.261,5.262 295.739,6.234 297.127 C 6.631 297.694,16.172 302.682,31.734 310.457 C 45.410 317.291,57.224 323.352,57.986 323.927 C 58.749 324.502,81.346 335.966,108.203 349.402 C 135.060 362.839,157.656 374.303,158.417 374.877 C 160.515 376.463,198.290 395.200,199.387 395.200 C 200.557 395.200,243.036 374.068,245.702 372.160 C 246.747 371.412,269.427 359.891,296.102 346.559 C 322.776 333.227,345.149 321.905,345.820 321.400 C 346.491 320.895,357.140 315.431,369.486 309.257 C 383.453 302.273,392.171 297.691,392.566 297.127 C 393.140 296.307,393.200 287.177,393.200 199.893 L 393.200 103.564 392.237 102.601 C 391.708 102.072,378.133 95.067,362.071 87.036 C 346.009 79.004,332.747 72.238,332.600 72.000 C 332.453 71.762,310.883 60.846,284.666 47.743 C 258.450 34.639,236.444 23.500,235.764 22.988 C 234.286 21.875,200.179 4.793,199.484 4.817 C 199.218 4.826,198.010 5.258,196.800 5.777 M216.902 13.841 C 225.976 18.374,233.950 22.496,234.621 23.001 C 235.293 23.507,257.126 34.563,283.140 47.570 C 309.154 60.577,331.464 71.916,332.719 72.767 C 333.973 73.618,347.788 80.706,363.417 88.517 C 386.917 100.261,391.918 102.902,392.317 103.778 C 393.030 105.342,393.007 294.957,392.294 296.400 C 391.911 297.176,386.731 299.953,369.169 308.800 C 356.721 315.070,346.011 320.584,345.369 321.053 C 344.726 321.521,322.340 332.834,295.621 346.192 C 268.903 359.550,246.493 370.895,245.821 371.404 C 243.473 373.182,200.487 394.400,199.234 394.400 C 197.856 394.400,161.316 376.326,158.400 374.202 C 157.410 373.481,134.740 361.963,108.021 348.606 C 81.303 335.249,58.893 323.907,58.221 323.401 C 57.550 322.896,45.810 316.891,32.134 310.057 C 16.572 302.282,7.031 297.294,6.634 296.727 C 6.060 295.907,6.000 286.816,6.000 199.893 L 6.000 103.964 6.942 103.022 C 7.460 102.504,21.995 95.026,39.242 86.405 C 56.489 77.783,71.150 70.313,71.821 69.804 C 72.493 69.296,94.903 57.953,121.621 44.599 C 148.340 31.245,170.748 19.906,171.418 19.402 C 173.533 17.809,198.149 5.644,199.302 5.622 C 199.967 5.609,206.940 8.865,216.902 13.841 M244.195 162.551 C 243.707 163.297,243.597 164.443,243.686 167.851 L 243.800 172.200 245.318 172.325 C 246.873 172.454,247.137 172.333,255.600 167.627 C 259.915 165.228,260.782 163.982,259.220 162.420 C 257.857 161.057,245.101 161.168,244.195 162.551 M258.428 163.034 C 259.286 164.068,258.505 164.772,252.561 168.314 C 248.351 170.822,246.708 171.600,245.800 171.514 L 244.600 171.400 244.485 167.702 C 244.313 162.170,244.005 162.400,251.565 162.400 C 256.859 162.400,257.989 162.504,258.428 163.034 M131.280 168.382 C 143.188 168.550,146.881 168.720,147.280 169.118 C 147.631 169.469,147.872 171.416,148.022 175.118 L 148.244 180.600 148.322 175.344 C 148.391 170.696,148.312 169.979,147.636 169.144 L 146.871 168.200 131.336 168.182 L 115.800 168.163 131.280 168.382 M186.536 168.385 L 203.671 168.600 204.470 169.587 C 205.428 170.771,205.436 177.926,204.481 178.881 C 204.085 179.276,200.840 179.450,190.881 179.611 L 177.800 179.822 190.656 179.911 C 206.557 180.021,205.400 180.481,205.400 174.050 C 205.400 167.592,207.348 168.203,186.686 168.185 L 169.400 168.170 186.536 168.385 M210.494 168.415 C 209.188 168.939,208.790 170.388,208.871 174.326 L 208.943 177.800 209.171 173.912 C 209.506 168.220,208.471 168.642,222.714 168.388 L 234.600 168.177 223.000 168.114 C 216.620 168.079,210.992 168.214,210.494 168.415 M274.500 168.299 C 278.625 168.364,285.375 168.364,289.500 168.299 C 293.625 168.234,290.250 168.181,282.000 168.181 C 273.750 168.181,270.375 168.234,274.500 168.299 M111.000 169.979 C 108.501 171.205,107.143 172.232,104.800 174.665 L 101.800 177.779 105.000 174.746 C 108.224 171.690,110.127 170.480,113.800 169.152 C 114.900 168.754,115.440 168.424,115.000 168.418 C 114.560 168.412,112.760 169.115,111.000 169.979 M165.530 169.377 C 162.613 170.589,160.256 172.241,158.000 174.653 C 156.252 176.522,156.269 176.514,158.600 174.372 C 161.581 171.632,163.306 170.568,166.722 169.362 C 168.195 168.842,169.040 168.421,168.600 168.425 C 168.160 168.430,166.778 168.858,165.530 169.377 M236.036 168.948 C 238.685 169.895,240.984 172.054,242.268 174.800 C 242.525 175.350,242.750 175.566,242.768 175.280 C 242.892 173.282,237.652 168.372,235.444 168.418 C 234.870 168.430,235.059 168.599,236.036 168.948 M263.800 169.178 C 261.692 170.176,262.096 170.196,264.600 169.218 C 265.700 168.789,266.330 168.434,266.000 168.429 C 265.670 168.425,264.680 168.762,263.800 169.178 M297.885 169.004 C 298.359 169.337,298.823 170.102,298.914 170.704 L 299.080 171.800 299.140 170.729 C 299.201 169.639,298.319 168.400,297.482 168.400 C 297.229 168.400,297.410 168.672,297.885 169.004 M258.136 172.351 C 257.071 173.204,255.570 174.596,254.800 175.443 C 253.945 176.384,254.335 176.126,255.800 174.781 C 257.120 173.569,258.740 172.183,259.400 171.701 C 260.060 171.220,260.481 170.820,260.336 170.813 C 260.191 170.806,259.201 171.498,258.136 172.351 M243.062 177.400 C 243.196 178.280,243.372 179.075,243.453 179.167 C 243.756 179.510,243.529 177.368,243.181 176.600 C 242.929 176.042,242.893 176.285,243.062 177.400 M209.200 178.301 C 209.200 179.615,210.914 180.001,216.389 179.922 L 221.800 179.843 216.067 179.622 C 211.001 179.426,210.267 179.310,209.767 178.624 C 209.455 178.196,209.200 178.051,209.200 178.301 M298.846 180.277 C 298.821 180.760,298.400 181.435,297.911 181.777 C 297.422 182.120,297.214 182.400,297.449 182.400 C 298.192 182.400,299.278 180.889,299.081 180.130 C 298.926 179.530,298.885 179.557,298.846 180.277 M223.000 180.468 C 223.440 180.712,224.079 181.112,224.420 181.356 C 224.760 181.600,224.615 181.395,224.097 180.900 C 223.579 180.405,222.940 180.005,222.678 180.012 C 222.415 180.019,222.560 180.224,223.000 180.468 M172.477 182.659 L 170.600 184.518 172.600 182.791 C 173.700 181.841,174.675 181.004,174.767 180.932 C 174.858 180.859,174.803 180.800,174.643 180.800 C 174.484 180.800,173.509 181.637,172.477 182.659 M129.524 182.699 C 132.673 182.767,137.713 182.767,140.724 182.699 C 143.736 182.631,141.160 182.576,135.000 182.576 C 128.840 182.576,126.376 182.632,129.524 182.699 M280.500 182.699 C 283.525 182.767,288.475 182.767,291.500 182.699 C 294.525 182.631,292.050 182.575,286.000 182.575 C 279.950 182.575,277.475 182.631,280.500 182.699 M269.178 185.900 L 267.800 187.400 269.300 186.022 C 270.696 184.738,270.984 184.400,270.678 184.400 C 270.612 184.400,269.937 185.075,269.178 185.900 M151.769 194.800 C 151.769 199.310,151.827 201.155,151.898 198.900 C 151.970 196.645,151.970 192.955,151.898 190.700 C 151.827 188.445,151.769 190.290,151.769 194.800 M98.164 194.600 C 98.163 198.340,98.223 199.924,98.297 198.120 C 98.371 196.315,98.372 193.255,98.298 191.320 C 98.225 189.384,98.164 190.860,98.164 194.600 M177.674 190.299 C 181.345 190.365,187.465 190.365,191.274 190.299 C 195.083 190.234,192.080 190.180,184.600 190.180 C 177.120 190.179,174.003 190.233,177.674 190.299 M200.093 193.200 C 200.093 193.970,200.175 194.285,200.276 193.900 C 200.376 193.515,200.376 192.885,200.276 192.500 C 200.175 192.115,200.093 192.430,200.093 193.200 M226.563 198.800 C 226.563 202.430,226.623 203.915,226.698 202.100 C 226.772 200.285,226.772 197.315,226.698 195.500 C 226.623 193.685,226.563 195.170,226.563 198.800 M384.600 309.124 C 376.460 313.236,369.165 317.050,368.389 317.600 C 367.614 318.150,345.384 329.384,318.989 342.564 C 292.595 355.744,270.150 367.125,269.111 367.855 C 268.072 368.585,253.942 375.832,237.711 383.959 C 221.480 392.086,207.840 399.020,207.400 399.367 C 206.652 399.957,206.678 399.964,207.800 399.484 C 211.187 398.035,267.977 369.385,269.021 368.599 C 269.693 368.093,292.066 356.767,318.740 343.430 C 345.414 330.093,368.264 318.486,369.519 317.636 C 370.773 316.787,377.810 313.093,385.156 309.429 C 397.735 303.154,400.711 301.567,399.789 301.624 C 399.575 301.637,392.740 305.012,384.600 309.124 M0.600 303.147 C 2.254 303.698,37.014 321.322,38.181 322.201 C 38.851 322.705,60.550 333.685,86.400 346.600 C 112.250 359.515,133.940 370.488,134.600 370.984 C 136.164 372.159,191.600 399.926,191.600 399.534 C 191.600 399.369,179.315 393.086,164.300 385.572 C 149.285 378.057,136.450 371.497,135.779 370.994 C 135.107 370.491,113.237 359.421,87.179 346.394 C 61.120 333.367,38.990 322.118,38.000 321.396 C 35.508 319.577,1.734 302.791,0.666 302.840 C -0.161 302.878,-0.164 302.892,0.600 303.147 " stroke="none" fill="#b19792" fill-rule="evenodd"></path><path id="path4" d="M198.705 5.883 C 199.202 5.979,199.922 5.975,200.305 5.875 C 200.687 5.775,200.280 5.696,199.400 5.701 C 198.520 5.705,198.207 5.787,198.705 5.883 M148.522 21.829 L 147.400 22.858 148.700 21.954 C 149.415 21.457,150.000 20.993,150.000 20.925 C 150.000 20.609,149.558 20.880,148.522 21.829 M236.800 24.598 C 236.800 24.866,241.649 27.285,241.828 27.106 C 241.908 27.025,240.810 26.385,239.387 25.683 C 237.964 24.982,236.800 24.493,236.800 24.598 M257.200 25.799 C 257.200 25.909,279.160 36.980,306.000 50.400 C 332.840 63.820,354.800 74.711,354.800 74.601 C 354.800 74.491,332.840 63.420,306.000 50.000 C 279.160 36.580,257.200 25.689,257.200 25.799 M243.200 27.798 C 243.200 28.065,249.649 31.285,249.826 31.107 C 249.905 31.028,248.447 30.208,246.585 29.285 C 244.723 28.361,243.200 27.693,243.200 27.798 M251.200 31.798 C 251.200 32.065,257.649 35.285,257.826 35.107 C 257.905 35.028,256.447 34.208,254.585 33.285 C 252.723 32.361,251.200 31.693,251.200 31.798 M259.200 35.798 C 259.200 36.065,265.649 39.285,265.826 39.107 C 265.905 39.028,264.447 38.208,262.585 37.285 C 260.723 36.361,259.200 35.693,259.200 35.798 M267.200 39.798 C 267.200 40.065,273.649 43.285,273.826 43.107 C 273.905 43.028,272.447 42.208,270.585 41.285 C 268.723 40.361,267.200 39.693,267.200 39.798 M275.200 43.798 C 275.200 44.065,281.649 47.285,281.826 47.107 C 281.905 47.028,280.447 46.208,278.585 45.285 C 276.723 44.361,275.200 43.693,275.200 43.798 M283.200 47.798 C 283.200 48.065,289.649 51.285,289.826 51.107 C 289.905 51.028,288.447 50.208,286.585 49.285 C 284.723 48.361,283.200 47.693,283.200 47.798 M291.200 51.798 C 291.200 52.065,297.649 55.285,297.826 55.107 C 297.905 55.028,296.447 54.208,294.585 53.285 C 292.723 52.361,291.200 51.693,291.200 51.798 M299.200 55.798 C 299.200 56.065,305.649 59.285,305.826 59.107 C 305.905 59.028,304.447 58.208,302.585 57.285 C 300.723 56.361,299.200 55.693,299.200 55.798 M307.200 59.798 C 307.200 60.065,313.649 63.285,313.826 63.107 C 313.905 63.028,312.447 62.208,310.585 61.285 C 308.723 60.361,307.200 59.693,307.200 59.798 M315.200 63.798 C 315.200 64.065,321.649 67.285,321.826 67.107 C 321.905 67.028,320.447 66.208,318.585 65.285 C 316.723 64.361,315.200 63.693,315.200 63.798 M323.200 67.798 C 323.200 68.065,329.649 71.285,329.826 71.107 C 329.905 71.028,328.447 70.208,326.585 69.285 C 324.723 68.361,323.200 67.693,323.200 67.798 M68.700 71.627 C 67.875 72.063,67.200 72.508,67.200 72.618 C 67.200 72.727,67.920 72.449,68.800 72.000 C 69.680 71.551,70.400 71.097,70.400 70.992 C 70.400 70.730,70.397 70.731,68.700 71.627 M24.725 84.564 C 12.034 90.964,1.504 96.355,1.325 96.544 C 1.146 96.733,11.470 91.655,24.266 85.260 C 37.063 78.865,47.649 73.445,47.790 73.216 C 47.931 72.987,47.992 72.829,47.924 72.864 C 47.856 72.900,37.416 78.165,24.725 84.564 M62.700 74.625 C 60.775 75.606,59.200 76.498,59.200 76.608 C 59.200 76.787,66.360 73.329,66.767 72.954 C 67.350 72.415,65.721 73.085,62.700 74.625 M54.700 78.625 C 52.775 79.606,51.200 80.498,51.200 80.608 C 51.200 80.787,58.360 77.329,58.767 76.954 C 59.350 76.415,57.721 77.085,54.700 78.625 M46.700 82.625 C 44.775 83.606,43.200 84.498,43.200 84.608 C 43.200 84.787,50.360 81.329,50.767 80.954 C 51.350 80.415,49.721 81.085,46.700 82.625 M38.700 86.625 C 36.775 87.606,35.200 88.498,35.200 88.608 C 35.200 88.787,42.360 85.329,42.767 84.954 C 43.350 84.415,41.721 85.085,38.700 86.625 M30.700 90.625 C 28.775 91.606,27.200 92.498,27.200 92.608 C 27.200 92.787,34.360 89.329,34.767 88.954 C 35.350 88.415,33.721 89.085,30.700 90.625 M22.700 94.625 C 20.775 95.606,19.200 96.498,19.200 96.608 C 19.200 96.787,26.360 93.329,26.767 92.954 C 27.350 92.415,25.721 93.085,22.700 94.625 M14.700 98.625 C 12.775 99.606,11.200 100.498,11.200 100.608 C 11.200 100.787,18.360 97.329,18.767 96.954 C 19.350 96.415,17.721 97.085,14.700 98.625 M9.100 101.429 C 7.549 102.270,7.725 102.561,9.300 101.759 C 10.808 100.993,11.075 100.794,10.567 100.816 C 10.365 100.825,9.705 101.101,9.100 101.429 M6.623 103.289 C 6.063 104.089,6.010 113.836,6.098 200.189 L 6.197 296.200 6.398 199.961 C 6.568 119.197,6.688 103.617,7.149 103.061 C 7.451 102.698,7.596 102.400,7.472 102.400 C 7.347 102.400,6.965 102.800,6.623 103.289 M392.597 200.000 C 392.597 252.690,392.643 274.245,392.700 247.900 C 392.757 221.555,392.757 178.445,392.700 152.100 C 392.643 125.755,392.597 147.310,392.597 200.000 M248.300 161.498 C 250.115 161.572,253.085 161.572,254.900 161.498 C 256.715 161.423,255.230 161.363,251.600 161.363 C 247.970 161.363,246.485 161.423,248.300 161.498 M243.823 162.489 C 243.345 163.171,243.200 164.473,243.200 168.089 L 243.200 172.800 245.100 172.743 L 247.000 172.686 245.400 172.443 L 243.800 172.200 243.686 167.851 C 243.597 164.443,243.707 163.297,244.195 162.551 C 244.983 161.349,244.659 161.295,243.823 162.489 M259.220 162.420 C 260.828 164.028,259.940 165.221,255.200 167.817 C 253.330 168.841,251.620 169.860,251.400 170.081 C 250.811 170.674,258.070 166.782,258.946 166.035 C 260.525 164.690,260.417 161.600,258.791 161.600 C 258.576 161.600,258.769 161.969,259.220 162.420 M131.536 167.981 L 146.871 168.200 147.636 169.144 C 148.056 169.664,148.400 169.917,148.400 169.706 C 148.400 167.900,147.526 167.801,131.458 167.781 L 116.200 167.763 131.536 167.981 M178.100 167.900 C 182.665 167.964,190.135 167.964,194.700 167.900 C 199.265 167.835,195.530 167.783,186.400 167.783 C 177.270 167.783,173.535 167.835,178.100 167.900 M217.100 167.899 C 220.235 167.967,225.365 167.967,228.500 167.899 C 231.635 167.832,229.070 167.776,222.800 167.776 C 216.530 167.776,213.965 167.832,217.100 167.899 M265.600 168.144 C 253.994 171.419,248.529 180.192,248.678 195.309 C 248.843 211.977,254.789 221.344,267.040 224.235 C 269.919 224.915,296.441 224.889,298.096 224.205 C 299.192 223.752,299.677 221.045,299.533 216.176 C 299.339 209.602,300.042 210.001,288.638 209.997 C 278.229 209.994,275.097 209.627,272.220 208.077 C 264.270 203.791,264.094 189.106,271.938 184.495 L 273.800 183.400 285.936 183.200 L 298.072 183.000 298.836 182.056 C 299.984 180.637,299.984 170.163,298.836 168.744 L 298.071 167.800 282.736 167.718 C 271.337 167.657,266.938 167.766,265.600 168.144 M110.825 169.655 C 100.917 174.490,97.344 181.814,97.703 196.559 C 97.977 207.826,99.538 212.292,105.226 218.087 C 111.221 224.196,114.067 224.873,133.081 224.715 L 146.871 224.600 147.636 223.656 C 148.632 222.424,148.790 212.287,147.833 210.976 C 147.304 210.251,146.541 210.184,136.333 209.959 C 123.000 209.664,122.116 209.466,118.729 206.008 C 114.123 201.305,113.766 191.905,118.010 187.084 C 121.299 183.347,120.955 183.427,134.690 183.200 C 149.787 182.950,148.581 183.599,148.643 175.690 L 148.686 170.200 148.443 175.687 C 148.108 183.252,149.454 182.556,134.687 182.800 L 122.600 183.000 120.710 184.111 C 113.397 188.410,112.497 201.392,119.109 207.212 C 122.152 209.891,123.214 210.092,135.733 210.361 C 149.263 210.651,148.101 209.972,147.924 217.487 C 147.750 224.907,149.440 224.200,131.885 224.200 C 113.703 224.200,111.369 223.637,105.693 217.882 C 99.014 211.110,96.112 198.158,98.564 186.061 C 100.229 177.842,108.000 169.539,115.200 168.283 L 116.200 168.109 115.200 168.058 C 114.650 168.030,112.681 168.749,110.825 169.655 M165.068 169.187 C 155.107 173.436,151.196 180.771,151.206 195.184 C 151.214 206.192,152.047 209.560,156.208 215.390 C 162.020 223.535,166.166 224.783,187.440 224.793 C 206.537 224.802,205.860 225.076,205.544 217.479 C 205.326 212.243,206.508 212.637,190.286 212.400 C 175.187 212.179,175.398 212.214,172.466 209.455 C 169.978 207.115,169.109 203.705,170.774 202.814 C 171.263 202.552,176.532 202.400,185.129 202.400 C 201.613 202.400,200.527 202.760,200.741 197.215 C 201.043 189.359,202.080 189.850,184.643 189.600 C 172.443 189.425,170.636 189.320,170.284 188.762 C 169.242 187.108,171.899 183.161,175.174 181.500 L 177.343 180.400 190.449 180.400 L 203.555 180.400 204.678 179.435 C 206.972 177.461,206.104 167.927,203.638 168.025 C 203.225 168.042,203.320 168.179,203.906 168.415 C 205.259 168.958,205.678 170.589,205.532 174.736 C 205.334 180.352,206.325 180.000,190.702 180.000 C 182.041 180.000,177.384 180.152,176.323 180.470 C 172.284 181.680,167.887 188.044,170.100 189.476 C 170.375 189.654,176.961 189.890,184.736 190.000 L 198.872 190.200 199.670 191.186 C 200.375 192.058,200.452 192.653,200.334 196.322 C 200.136 202.448,201.380 202.000,184.556 202.000 C 168.265 202.000,168.435 201.954,169.657 206.031 C 171.444 211.998,175.201 213.180,192.424 213.192 C 205.487 213.201,204.831 212.992,205.100 217.236 C 205.352 221.196,204.726 223.493,203.286 223.896 C 201.239 224.469,171.634 224.258,169.200 223.653 C 161.602 221.764,155.851 216.219,152.897 207.934 C 151.684 204.530,151.089 190.566,151.954 185.800 C 153.339 178.171,160.838 170.184,168.247 168.445 C 169.362 168.183,169.518 168.072,168.800 168.051 C 168.250 168.035,166.570 168.546,165.068 169.187 M209.229 169.054 C 208.525 169.949,208.400 170.670,208.400 173.835 C 208.400 180.038,208.840 180.400,216.393 180.400 C 226.041 180.400,225.528 179.142,226.006 204.000 C 226.358 222.357,226.374 222.609,227.226 223.300 C 228.579 224.398,241.485 224.345,242.856 223.236 L 243.800 222.471 243.919 200.536 C 244.055 175.472,243.877 173.395,241.442 171.674 C 240.759 171.192,239.498 170.258,238.641 169.598 C 237.783 168.939,236.897 168.400,236.672 168.400 C 236.447 168.400,237.095 168.951,238.111 169.624 C 243.702 173.327,243.665 173.118,243.519 200.062 L 243.400 222.071 242.456 222.836 C 241.044 223.978,228.796 223.996,227.657 222.857 C 226.969 222.169,226.893 220.963,226.628 206.557 C 226.120 178.993,226.504 180.004,216.544 180.001 C 209.113 180.000,209.052 179.958,208.868 174.736 C 208.722 170.589,209.141 168.958,210.494 168.415 C 211.138 168.156,211.206 168.043,210.729 168.025 C 210.360 168.011,209.685 168.474,209.229 169.054 M297.466 168.425 C 299.124 169.055,299.187 169.314,299.194 175.438 C 299.202 183.235,300.460 182.550,285.659 182.800 C 271.436 183.040,270.069 183.513,266.923 189.276 C 265.744 191.435,265.868 201.178,267.103 203.489 C 270.202 209.289,273.485 210.400,287.531 210.400 C 299.712 210.400,298.800 209.853,298.800 217.161 C 298.800 224.684,300.126 223.993,285.143 224.275 C 264.263 224.668,259.457 223.114,253.532 214.052 C 248.384 206.179,247.356 188.664,251.534 180.000 C 253.796 175.311,260.299 170.018,265.600 168.552 C 267.944 167.903,295.803 167.793,297.466 168.425 M248.800 171.400 C 247.810 171.930,247.142 172.372,247.316 172.382 C 247.741 172.406,250.800 170.834,250.800 170.592 C 250.800 170.327,250.817 170.320,248.800 171.400 M6.767 296.945 C 7.300 297.601,8.800 298.593,8.800 298.289 C 8.800 298.213,8.215 297.722,7.500 297.199 C 6.696 296.610,6.416 296.513,6.767 296.945 M369.100 308.423 C 357.275 314.351,347.600 319.291,347.600 319.401 C 347.600 319.511,357.320 314.741,369.200 308.800 C 381.080 302.859,390.800 297.909,390.800 297.799 C 390.800 297.522,392.663 296.610,369.100 308.423 M397.519 303.157 C 394.875 304.663,394.595 305.099,397.072 303.856 C 398.211 303.283,399.257 302.632,399.395 302.408 C 399.710 301.899,399.773 301.873,397.519 303.157 M390.700 306.625 C 388.775 307.606,387.200 308.498,387.200 308.608 C 387.200 308.787,394.360 305.329,394.767 304.954 C 395.350 304.415,393.721 305.085,390.700 306.625 M382.700 310.625 C 380.775 311.606,379.200 312.498,379.200 312.608 C 379.200 312.787,386.360 309.329,386.767 308.954 C 387.350 308.415,385.721 309.085,382.700 310.625 M374.700 314.625 C 372.775 315.606,371.200 316.498,371.200 316.608 C 371.200 316.787,378.360 313.329,378.767 312.954 C 379.350 312.415,377.721 313.085,374.700 314.625 M136.800 372.598 C 136.800 372.866,141.649 375.285,141.828 375.106 C 141.908 375.025,140.810 374.385,139.387 373.683 C 137.964 372.982,136.800 372.493,136.800 372.598 M159.600 375.000 C 159.600 375.262,197.248 394.085,197.423 393.910 C 197.497 393.836,189.018 389.506,178.579 384.288 C 168.141 379.070,159.600 374.890,159.600 375.000 M143.200 375.798 C 143.200 376.065,149.649 379.285,149.826 379.107 C 149.905 379.028,148.447 378.208,146.585 377.285 C 144.723 376.361,143.200 375.693,143.200 375.798 M151.200 379.798 C 151.200 380.065,157.649 383.285,157.826 383.107 C 157.905 383.028,156.447 382.208,154.585 381.285 C 152.723 380.361,151.200 379.693,151.200 379.798 M159.200 383.798 C 159.200 384.065,165.649 387.285,165.826 387.107 C 165.905 387.028,164.447 386.208,162.585 385.285 C 160.723 384.361,159.200 383.693,159.200 383.798 M167.200 387.798 C 167.200 388.065,173.649 391.285,173.826 391.107 C 173.905 391.028,172.447 390.208,170.585 389.285 C 168.723 388.361,167.200 387.693,167.200 387.798 M175.200 391.798 C 175.200 392.065,181.649 395.285,181.826 395.107 C 181.905 395.028,180.447 394.208,178.585 393.285 C 176.723 392.361,175.200 391.693,175.200 391.798 M183.200 395.790 C 183.200 395.900,184.460 396.624,186.000 397.400 C 187.540 398.176,188.800 398.720,188.800 398.610 C 188.800 398.500,187.540 397.776,186.000 397.000 C 184.460 396.224,183.200 395.680,183.200 395.790 " stroke="none" fill="#beb0ad" fill-rule="evenodd"></path><path id="path5" d="M191.600 0.384 C 191.600 0.596,182.375 5.388,171.100 11.034 C 159.825 16.680,149.790 21.886,148.800 22.604 C 147.810 23.322,125.130 34.838,98.400 48.195 C 71.670 61.553,49.251 72.895,48.580 73.400 C 46.760 74.770,1.732 97.200,0.801 97.200 C 0.361 97.200,0.000 97.380,0.000 97.600 C 0.000 99.038,44.227 78.080,49.380 74.200 C 50.051 73.695,72.470 62.355,99.200 49.000 C 125.930 35.645,148.360 24.296,149.045 23.781 C 149.730 23.265,159.180 18.402,170.045 12.973 C 180.910 7.544,190.385 2.665,191.100 2.131 C 192.341 1.204,192.849 0.000,192.000 0.000 C 191.780 0.000,191.600 0.173,191.600 0.384 M206.400 0.613 C 206.400 1.681,209.257 3.246,231.200 14.200 C 243.410 20.295,253.950 25.696,254.621 26.201 C 255.293 26.707,277.883 38.136,304.821 51.600 C 331.760 65.064,354.160 76.407,354.600 76.806 C 355.568 77.686,397.341 98.626,398.900 99.013 C 402.036 99.793,398.102 97.647,377.973 87.597 C 365.858 81.549,355.741 76.356,355.490 76.059 C 355.239 75.761,333.135 64.568,306.369 51.185 C 279.604 37.802,256.467 26.061,254.953 25.095 C 253.439 24.128,243.380 18.951,232.600 13.590 C 221.820 8.229,211.515 2.993,209.700 1.954 C 207.564 0.732,206.400 0.259,206.400 0.613 M185.522 10.043 C 178.415 13.586,171.790 17.069,170.800 17.782 C 169.810 18.495,147.193 29.973,120.541 43.288 C 93.888 56.603,71.478 67.952,70.741 68.507 C 70.003 69.063,55.180 76.626,37.800 85.312 C 20.420 93.999,5.840 101.506,5.400 101.995 C 4.605 102.879,4.600 103.447,4.600 200.033 L 4.600 297.182 5.600 298.166 C 6.150 298.707,17.802 304.750,31.492 311.594 C 45.183 318.439,56.883 324.458,57.492 324.970 C 58.102 325.482,80.640 336.921,107.579 350.390 C 134.517 363.859,157.107 375.294,157.779 375.801 C 159.788 377.317,198.348 396.400,199.402 396.400 C 200.460 396.400,244.551 374.531,246.567 373.006 C 247.245 372.493,269.581 361.183,296.202 347.873 C 322.824 334.563,345.531 323.035,346.663 322.257 C 347.795 321.478,358.594 315.902,370.661 309.867 C 382.727 303.831,392.960 298.493,393.400 298.005 C 394.657 296.608,394.862 104.557,393.609 102.505 C 392.922 101.381,388.905 99.254,363.243 86.421 C 346.976 78.288,333.547 71.438,333.400 71.200 C 333.253 70.962,311.719 60.060,285.547 46.974 C 259.376 33.887,236.936 22.482,235.681 21.628 C 232.534 19.486,200.551 3.600,199.386 3.600 C 198.868 3.600,192.629 6.499,185.522 10.043 M217.248 13.428 C 226.752 18.174,235.084 22.476,235.764 22.988 C 236.444 23.500,258.450 34.639,284.666 47.743 C 310.883 60.846,332.453 71.762,332.600 72.000 C 332.747 72.238,346.009 79.004,362.071 87.036 C 378.133 95.067,391.708 102.072,392.237 102.601 L 393.200 103.564 393.200 199.893 C 393.200 287.177,393.140 296.307,392.566 297.127 C 392.171 297.691,383.453 302.273,369.486 309.257 C 357.140 315.431,346.491 320.895,345.820 321.400 C 345.149 321.905,322.776 333.227,296.102 346.559 C 269.427 359.891,246.747 371.412,245.702 372.160 C 243.036 374.068,200.557 395.200,199.387 395.200 C 198.290 395.200,160.515 376.463,158.417 374.877 C 157.656 374.303,135.060 362.839,108.203 349.402 C 81.346 335.966,58.749 324.502,57.986 323.927 C 57.224 323.352,45.410 317.291,31.734 310.457 C 16.172 302.682,6.631 297.694,6.234 297.127 C 5.262 295.739,5.262 104.261,6.234 102.872 C 6.635 102.300,18.528 96.137,38.514 86.143 C 55.919 77.440,70.708 69.906,71.379 69.401 C 72.051 68.895,94.470 57.555,121.200 44.200 C 147.930 30.845,170.430 19.443,171.200 18.862 C 173.651 17.014,198.116 4.865,199.484 4.817 C 199.750 4.808,207.744 8.683,217.248 13.428 M244.799 163.202 C 244.555 163.658,244.420 165.598,244.485 167.702 L 244.600 171.400 245.800 171.514 C 247.705 171.694,258.200 165.324,258.200 163.988 C 258.200 162.247,245.703 161.514,244.799 163.202 M383.656 308.377 C 375.307 312.545,368.353 316.152,368.204 316.394 C 368.054 316.636,345.808 327.896,318.768 341.416 C 291.727 354.937,268.747 366.601,267.702 367.336 C 266.656 368.071,252.750 375.195,236.800 383.166 C 220.850 391.136,207.485 397.943,207.100 398.291 C 205.713 399.545,206.317 400.063,207.958 399.027 C 208.814 398.486,222.494 391.554,238.357 383.621 C 254.220 375.689,268.054 368.598,269.099 367.863 C 270.145 367.128,292.598 355.744,318.995 342.564 C 345.392 329.384,367.844 318.014,368.888 317.298 C 369.932 316.582,377.359 312.718,385.393 308.711 C 393.427 304.704,400.000 301.285,400.000 301.113 C 400.000 300.334,397.909 301.263,383.656 308.377 M0.000 302.400 C 0.000 302.620,0.345 302.800,0.766 302.800 C 1.808 302.800,35.743 319.748,38.000 321.396 C 38.990 322.118,61.120 333.367,87.179 346.394 C 113.237 359.421,135.107 370.492,135.779 370.996 C 136.450 371.500,149.090 377.960,163.867 385.351 C 178.644 392.743,191.027 399.084,191.386 399.443 C 192.174 400.232,192.731 399.832,192.169 398.881 C 191.948 398.506,179.606 392.080,164.743 384.600 C 149.880 377.120,136.748 370.347,135.560 369.548 C 134.372 368.749,112.260 357.526,86.421 344.608 C 60.583 331.690,38.893 320.707,38.221 320.201 C 33.232 316.446,0.000 300.969,0.000 302.400 " stroke="none" fill="#6c3c84" fill-rule="evenodd"></path><path id="path6" d="M256.960 162.747 C 257.598 162.886,258.261 163.360,258.432 163.800 C 258.647 164.353,258.752 164.408,258.772 163.980 C 258.814 163.056,257.971 162.394,256.820 162.447 C 255.843 162.493,255.849 162.505,256.960 162.747 M113.725 169.169 C 106.282 171.873,100.358 178.384,98.848 185.520 C 98.157 188.790,98.267 203.309,99.006 206.216 C 101.104 214.468,107.241 221.087,115.000 223.465 C 118.605 224.569,145.981 224.588,147.085 223.487 C 148.078 222.497,148.381 212.649,147.458 211.400 C 146.899 210.644,146.254 210.587,135.733 210.361 C 123.065 210.089,122.108 209.898,118.897 207.012 C 113.543 202.198,113.058 191.510,117.957 186.273 C 121.381 182.613,121.313 182.628,134.933 182.400 C 146.158 182.212,146.900 182.154,147.433 181.424 C 148.242 180.316,148.241 170.483,147.433 169.376 C 146.561 168.183,116.939 168.001,113.725 169.169 M166.690 169.373 C 155.900 173.181,152.000 180.131,152.000 195.549 C 152.000 208.298,153.156 211.909,159.200 218.035 C 164.751 223.662,167.158 224.200,186.800 224.200 C 206.344 224.200,205.562 224.496,205.103 217.279 C 204.841 213.149,205.827 213.435,190.881 213.154 C 182.867 213.004,177.240 212.731,176.355 212.451 C 171.713 210.980,167.724 205.094,169.808 202.791 C 170.494 202.033,171.083 202.000,183.802 202.000 C 201.068 202.000,200.213 202.341,200.134 195.483 C 200.071 189.999,201.251 190.400,185.164 190.400 C 168.867 190.400,168.104 190.197,169.732 186.301 C 172.183 180.435,174.015 179.838,190.281 179.600 C 200.745 179.447,204.084 179.278,204.481 178.881 C 205.594 177.768,205.422 170.586,204.255 169.419 L 203.236 168.400 186.318 168.408 C 169.510 168.417,169.382 168.423,166.690 169.373 M210.203 169.360 C 209.272 170.291,209.200 170.639,209.200 174.182 C 209.200 179.571,209.229 179.593,216.100 179.623 C 226.618 179.667,226.751 180.020,226.783 207.900 C 226.804 225.345,225.896 223.600,234.956 223.600 C 240.814 223.600,241.612 223.519,242.456 222.835 L 243.400 222.071 243.400 200.135 C 243.400 175.058,243.407 175.121,240.186 171.807 C 237.019 168.549,237.353 168.615,223.503 168.479 L 211.206 168.357 210.203 169.360 M263.723 169.563 C 253.489 173.601,249.222 181.162,249.207 195.280 C 249.195 206.940,251.504 213.392,257.714 219.056 C 262.854 223.744,267.402 224.609,285.143 224.275 C 300.126 223.993,298.800 224.684,298.800 217.161 C 298.800 209.853,299.712 210.400,287.531 210.400 C 270.008 210.400,266.354 208.028,266.068 196.469 C 265.777 184.648,269.030 182.400,286.428 182.400 C 300.017 182.400,299.000 182.966,299.000 175.399 C 299.000 167.689,300.736 168.397,281.856 168.414 L 266.600 168.428 263.723 169.563 M146.480 169.920 C 147.213 170.653,147.213 180.146,146.481 180.880 C 146.087 181.274,143.079 181.449,134.081 181.600 L 122.200 181.800 120.367 182.878 C 112.709 187.380,111.025 199.980,117.159 206.878 C 120.630 210.781,124.044 211.593,137.020 211.597 C 147.602 211.601,146.800 211.136,146.800 217.257 C 146.800 223.718,148.070 223.202,132.211 223.193 C 112.958 223.183,108.733 221.712,103.152 213.077 C 98.035 205.161,97.659 186.655,102.462 179.117 C 105.315 174.639,111.297 170.401,115.886 169.606 C 119.178 169.037,145.872 169.310,146.480 169.920 M203.339 169.949 C 204.394 170.825,204.301 177.811,203.226 178.386 C 202.740 178.646,197.787 178.800,189.898 178.800 C 175.489 178.800,174.637 178.942,171.751 181.827 C 168.587 184.992,167.373 188.336,168.764 190.056 L 169.528 191.000 183.797 191.200 C 200.441 191.433,199.200 191.048,199.200 195.987 C 199.200 201.164,200.320 200.800,184.396 200.800 C 169.831 200.800,169.195 200.880,168.389 202.825 C 167.151 205.815,170.002 210.484,174.553 212.919 C 176.131 213.763,176.758 213.808,189.533 214.000 C 205.050 214.233,204.000 213.899,204.000 218.600 C 204.000 223.374,205.469 223.000,186.732 223.000 C 169.138 223.000,169.238 223.011,164.247 220.511 C 160.104 218.436,156.133 213.517,154.127 207.975 C 152.882 204.537,152.281 191.026,153.159 186.200 C 154.584 178.359,162.071 170.702,169.400 169.587 C 173.160 169.015,202.593 169.329,203.339 169.949 M236.511 170.156 C 238.662 171.217,241.094 174.147,241.802 176.531 C 242.615 179.271,242.689 219.606,241.883 221.200 C 241.232 222.488,229.398 223.003,228.389 221.787 C 227.983 221.298,227.796 217.056,227.563 203.077 C 227.152 178.368,227.342 178.800,216.889 178.800 C 210.379 178.800,210.438 178.840,210.305 174.360 C 210.145 168.950,209.329 169.249,224.000 169.342 C 233.834 169.404,235.160 169.491,236.511 170.156 M297.339 169.949 C 298.317 170.761,298.317 180.038,297.339 180.851 C 296.826 181.278,294.086 181.445,285.039 181.600 C 270.889 181.843,269.656 182.279,266.122 188.291 C 264.534 190.993,264.410 200.603,265.925 203.677 C 269.080 210.083,273.211 211.596,287.573 211.606 C 292.538 211.609,296.866 211.780,297.191 211.986 C 297.885 212.425,297.856 221.898,297.158 222.600 C 296.907 222.852,291.335 223.000,282.080 223.000 L 267.400 223.000 264.000 221.642 C 257.863 219.191,253.108 213.317,251.205 205.836 C 249.320 198.426,250.314 184.348,253.052 179.676 C 255.716 175.130,262.404 170.278,266.954 169.590 C 270.729 169.019,296.588 169.325,297.339 169.949 " stroke="none" fill="#b48474" fill-rule="evenodd"></path><path id="path7" d="M168.934 10.320 C 157.678 15.974,148.138 20.902,147.734 21.270 C 147.330 21.639,125.200 32.840,98.556 46.163 C 71.912 59.485,49.201 71.011,48.089 71.776 C 46.976 72.542,35.701 78.350,23.033 84.682 C 10.365 91.015,-0.000 96.347,0.000 96.532 C 0.000 96.716,0.135 96.804,0.300 96.728 C 4.940 94.580,47.726 72.843,48.580 72.200 C 49.251 71.695,71.660 60.355,98.379 47.001 C 125.097 33.647,147.507 22.306,148.179 21.800 C 148.850 21.293,158.760 16.186,170.200 10.451 C 181.640 4.715,190.640 0.027,190.200 0.031 C 189.760 0.036,180.190 4.666,168.934 10.320 M231.380 11.863 C 244.349 18.363,255.509 24.095,256.180 24.600 C 256.851 25.105,279.260 36.445,305.979 49.799 C 332.697 63.153,355.107 74.493,355.779 74.999 C 356.450 75.504,366.000 80.418,377.000 85.919 C 388.000 91.419,397.675 96.382,398.500 96.948 C 399.618 97.714,400.000 97.827,400.000 97.389 C 400.000 97.013,392.330 92.966,378.720 86.160 C 367.016 80.307,356.889 75.099,356.217 74.586 C 355.545 74.073,333.306 62.814,306.798 49.566 C 280.289 36.317,257.604 24.805,256.387 23.983 C 253.554 22.069,209.434 -0.007,208.501 0.022 C 208.116 0.034,218.411 5.362,231.380 11.863 M185.922 12.243 C 179.035 15.676,172.590 19.071,171.600 19.787 C 170.610 20.503,147.976 31.994,121.303 45.322 C 94.630 58.650,72.220 69.997,71.503 70.536 C 70.786 71.076,56.130 78.549,38.934 87.142 C 19.185 97.011,7.435 103.100,7.034 103.672 C 6.062 105.061,6.062 294.939,7.034 296.327 C 7.431 296.894,16.840 301.817,32.134 309.462 C 45.590 316.188,57.410 322.280,58.400 323.000 C 59.390 323.720,82.070 335.238,108.800 348.595 C 135.530 361.953,157.949 373.295,158.619 373.800 C 160.659 375.335,198.326 394.000,199.385 394.000 C 200.458 394.000,242.999 372.926,245.050 371.379 C 245.738 370.860,268.058 359.553,294.650 346.252 C 321.243 332.951,343.720 321.558,344.600 320.934 C 345.480 320.310,356.370 314.670,368.800 308.400 C 386.326 299.559,391.511 296.775,391.894 296.000 C 392.282 295.215,392.388 274.589,392.388 200.000 C 392.388 125.411,392.282 104.785,391.894 104.000 C 391.508 103.218,385.065 99.815,362.366 88.400 C 346.397 80.370,332.807 73.416,332.166 72.947 C 331.525 72.479,309.716 61.454,283.702 48.448 C 257.687 35.442,235.547 24.189,234.502 23.441 C 231.836 21.535,200.575 6.000,199.405 6.000 C 198.877 6.000,192.810 8.809,185.922 12.243 M216.883 15.042 C 225.947 19.574,233.911 23.696,234.581 24.201 C 235.252 24.705,257.130 35.779,283.200 48.809 C 309.270 61.839,331.128 72.943,331.774 73.486 C 332.420 74.029,346.031 81.015,362.021 89.011 C 378.476 97.239,391.204 103.834,391.347 104.207 C 391.805 105.400,391.641 295.176,391.181 296.035 C 390.926 296.513,381.905 301.246,368.015 308.193 C 355.504 314.449,345.147 319.763,345.000 320.001 C 344.853 320.239,322.572 331.514,295.487 345.056 C 268.403 358.599,245.693 370.098,245.021 370.609 C 242.748 372.340,200.532 393.200,199.303 393.200 C 197.965 393.200,162.087 375.479,159.200 373.392 C 158.210 372.676,135.530 361.162,108.800 347.805 C 82.070 334.447,59.651 323.105,58.980 322.600 C 58.309 322.095,46.699 316.154,33.180 309.399 C 19.661 302.644,8.285 296.838,7.900 296.496 C 6.922 295.630,6.797 104.433,7.773 103.622 C 8.089 103.361,22.448 96.089,39.683 87.462 C 56.918 78.836,71.645 71.306,72.410 70.730 C 73.174 70.153,95.670 58.755,122.400 45.400 C 149.130 32.045,171.548 20.706,172.218 20.202 C 174.331 18.610,198.149 6.844,199.302 6.822 C 199.968 6.809,206.924 10.061,216.883 15.042 M244.190 160.532 C 242.542 161.286,242.000 162.697,242.000 166.231 C 242.000 169.896,241.673 170.110,238.795 168.320 L 236.672 167.000 223.414 166.885 L 210.156 166.770 208.678 167.773 L 207.200 168.776 205.722 167.773 L 204.245 166.770 185.622 166.885 L 167.000 167.000 163.870 168.529 C 153.894 173.404,150.020 180.870,150.007 195.245 C 149.996 207.704,151.721 212.879,158.000 219.230 C 164.085 225.384,167.181 226.067,188.291 225.916 L 204.383 225.800 205.491 224.691 C 207.210 222.973,207.210 214.231,205.492 212.510 L 204.383 211.400 190.692 211.200 C 175.906 210.984,175.809 210.970,173.262 208.653 C 171.814 207.336,170.628 204.472,171.300 203.918 C 171.355 203.872,177.741 203.737,185.492 203.618 L 199.583 203.400 200.689 202.294 C 201.744 201.237,201.801 200.983,201.932 196.694 C 202.187 188.324,202.854 188.655,185.224 188.400 C 169.614 188.174,170.105 188.298,172.487 185.175 C 175.090 181.763,174.769 181.826,190.467 181.600 C 204.067 181.404,204.358 181.383,205.551 180.500 C 206.220 180.005,206.962 179.600,207.200 179.600 C 207.438 179.600,208.180 180.005,208.849 180.500 C 209.959 181.322,210.575 181.410,215.933 181.516 C 225.234 181.700,224.427 179.688,224.797 203.623 C 225.099 223.247,225.163 223.924,226.783 224.791 C 227.830 225.351,242.208 225.331,243.260 224.768 C 245.146 223.758,245.201 223.057,245.190 199.913 C 245.185 187.971,245.028 177.543,244.842 176.741 C 244.405 174.863,244.645 174.529,246.920 173.844 C 247.953 173.533,250.464 172.291,252.499 171.084 C 254.535 169.877,257.158 168.410,258.329 167.823 C 261.675 166.148,262.607 162.540,260.116 160.908 C 258.713 159.989,246.035 159.689,244.190 160.532 M259.568 161.771 C 261.665 163.669,260.255 166.044,255.640 168.386 C 254.408 169.011,252.154 170.254,250.630 171.147 C 249.107 172.041,246.880 172.976,245.682 173.224 L 243.505 173.677 243.770 175.538 C 244.859 183.193,244.356 222.044,243.152 223.248 C 242.470 223.930,241.709 224.000,235.029 224.000 C 227.655 224.000,227.578 223.988,226.332 222.671 C 226.295 222.632,226.122 215.040,225.948 205.800 C 225.443 179.066,226.001 180.407,215.370 180.402 C 208.350 180.399,208.200 180.264,208.200 173.933 C 208.200 169.589,208.215 169.518,209.340 168.550 L 210.481 167.569 223.340 167.684 L 236.200 167.800 238.000 168.904 C 238.990 169.511,240.304 170.408,240.919 170.896 C 242.464 172.123,242.786 171.474,242.794 167.119 C 242.805 160.947,243.069 160.769,252.068 160.912 C 257.945 161.006,258.835 161.107,259.568 161.771 M112.322 167.756 C 101.771 172.095,96.939 179.756,96.516 192.815 C 96.080 206.291,98.324 213.258,105.184 219.730 C 111.102 225.313,114.002 225.984,132.240 225.993 C 150.522 226.002,149.600 226.467,149.600 217.239 C 149.600 208.480,150.054 208.801,137.681 208.797 C 123.389 208.792,120.301 207.846,117.465 202.600 C 115.241 198.486,116.447 189.921,119.665 186.979 C 122.409 184.469,121.551 184.616,134.779 184.400 C 150.733 184.140,150.252 184.457,149.923 174.400 C 149.746 169.030,149.376 167.799,147.750 167.181 C 145.288 166.245,114.793 166.740,112.322 167.756 M263.665 167.597 C 251.453 171.990,245.423 184.696,247.525 201.600 C 249.073 214.046,256.270 222.988,266.726 225.454 C 268.984 225.987,271.657 226.058,283.924 225.910 L 298.448 225.734 299.524 224.658 L 300.600 223.582 300.600 217.202 C 300.600 208.294,301.796 209.064,287.490 208.762 C 275.127 208.501,273.910 208.294,271.114 205.989 C 266.671 202.327,266.053 191.957,270.009 187.450 C 272.503 184.610,272.438 184.623,286.000 184.397 C 301.739 184.135,300.800 184.722,300.800 175.150 L 300.800 169.138 299.631 167.969 L 298.462 166.800 282.131 166.814 C 267.055 166.828,265.636 166.888,263.665 167.597 M147.818 168.582 C 148.771 169.535,148.800 169.737,148.800 175.400 C 148.800 181.063,148.771 181.265,147.818 182.218 L 146.836 183.200 135.891 183.200 C 121.605 183.200,119.288 183.944,116.591 189.400 C 115.236 192.141,115.427 201.165,116.892 203.658 C 119.903 208.780,121.677 209.347,135.459 209.597 C 149.581 209.852,148.400 209.169,148.400 217.080 C 148.400 222.658,148.370 222.867,147.418 223.818 L 146.436 224.800 132.318 224.794 C 113.334 224.786,110.966 224.185,104.886 217.831 C 99.049 211.730,97.600 207.229,97.600 195.192 C 97.600 183.344,98.564 180.210,103.898 174.719 C 110.611 167.807,111.316 167.621,130.918 167.609 L 146.836 167.600 147.818 168.582 M204.986 168.550 C 206.160 169.724,206.599 172.324,206.233 175.939 C 205.780 180.425,206.680 180.166,190.690 180.400 C 174.532 180.636,173.306 180.995,170.648 186.275 C 169.059 189.429,169.814 189.600,185.320 189.600 C 202.012 189.600,200.806 189.106,200.787 195.929 C 200.769 202.817,202.323 202.161,185.444 202.400 C 174.290 202.558,171.183 202.715,170.661 203.149 C 168.872 204.635,171.137 208.912,174.800 210.966 L 177.000 212.200 190.536 212.400 L 204.072 212.600 204.836 213.544 C 206.115 215.125,205.959 222.478,204.618 223.818 L 203.636 224.800 187.682 224.800 C 167.492 224.800,165.083 224.313,159.332 219.065 C 152.705 213.018,151.105 208.113,151.274 194.368 L 151.400 184.136 153.162 180.568 C 155.166 176.511,159.633 171.610,162.800 169.994 C 167.523 167.584,167.066 167.630,186.318 167.614 L 204.036 167.600 204.986 168.550 M298.856 168.365 C 299.775 169.109,299.800 169.295,299.800 175.350 C 299.800 183.774,301.214 182.953,286.287 183.200 C 271.858 183.439,269.719 184.188,267.361 189.831 C 266.578 191.706,266.588 200.719,267.376 202.604 C 269.758 208.305,272.492 209.289,286.736 209.574 C 300.740 209.853,299.600 209.177,299.600 217.200 C 299.600 221.977,299.501 222.834,298.856 223.630 L 298.112 224.549 283.556 224.718 C 264.698 224.938,261.723 224.221,255.903 218.050 C 249.385 211.138,246.440 197.162,249.041 185.479 C 250.818 177.493,257.420 170.330,265.167 167.982 C 267.715 167.210,297.852 167.552,298.856 168.365 M384.738 310.197 C 376.454 314.379,369.344 318.096,368.938 318.459 C 368.532 318.821,346.330 330.046,319.600 343.404 C 292.870 356.762,270.190 368.275,269.200 368.990 C 268.210 369.705,254.013 376.974,237.651 385.145 C 221.289 393.315,208.194 400.000,208.552 400.000 C 209.380 400.000,268.144 370.632,269.780 369.401 C 270.451 368.895,292.780 357.594,319.400 344.286 C 346.020 330.979,368.706 319.479,369.813 318.731 C 370.920 317.983,378.079 314.249,385.722 310.433 C 398.054 304.276,400.468 302.958,399.940 302.671 C 399.863 302.629,393.022 306.016,384.738 310.197 M-0.000 303.590 C -0.000 303.805,8.144 308.059,18.097 313.044 C 28.050 318.029,36.735 322.514,37.397 323.013 C 38.059 323.511,59.920 334.575,85.979 347.599 C 112.037 360.623,133.907 371.693,134.579 372.199 C 136.082 373.330,189.401 400.009,190.099 399.978 C 190.374 399.966,178.540 393.921,163.800 386.545 C 149.060 379.169,136.010 372.450,134.800 371.615 C 133.590 370.779,111.450 359.526,85.600 346.607 C 59.750 333.688,38.051 322.705,37.381 322.200 C 35.582 320.846,0.000 303.131,-0.000 303.590 " stroke="none" fill="#cecac6" fill-rule="evenodd"></path><path id="path8" d="M167.200 22.000 C 165.550 22.858,164.339 23.569,164.510 23.580 C 164.935 23.607,170.400 20.838,170.400 20.595 C 170.400 20.325,170.532 20.267,167.200 22.000 M159.600 25.800 C 157.730 26.768,156.339 27.569,156.509 27.580 C 156.934 27.608,163.200 24.438,163.200 24.196 C 163.200 23.924,163.370 23.849,159.600 25.800 M151.600 29.800 C 149.730 30.768,148.339 31.569,148.509 31.580 C 148.934 31.608,155.200 28.438,155.200 28.196 C 155.200 27.924,155.370 27.849,151.600 29.800 M143.600 33.800 C 141.730 34.768,140.339 35.569,140.509 35.580 C 140.934 35.608,147.200 32.438,147.200 32.196 C 147.200 31.924,147.370 31.849,143.600 33.800 M135.600 37.800 C 133.730 38.768,132.339 39.569,132.509 39.580 C 132.934 39.608,139.200 36.438,139.200 36.196 C 139.200 35.924,139.370 35.849,135.600 37.800 M127.600 41.800 C 125.730 42.768,124.339 43.569,124.509 43.580 C 124.934 43.608,131.200 40.438,131.200 40.196 C 131.200 39.924,131.370 39.849,127.600 41.800 M119.600 45.800 C 117.730 46.768,116.339 47.569,116.509 47.580 C 116.934 47.608,123.200 44.438,123.200 44.196 C 123.200 43.924,123.370 43.849,119.600 45.800 M111.600 49.800 C 109.730 50.768,108.339 51.569,108.509 51.580 C 108.934 51.608,115.200 48.438,115.200 48.196 C 115.200 47.924,115.370 47.849,111.600 49.800 M103.600 53.800 C 101.730 54.768,100.339 55.569,100.509 55.580 C 100.934 55.608,107.200 52.438,107.200 52.196 C 107.200 51.924,107.370 51.849,103.600 53.800 M95.600 57.800 C 93.730 58.768,92.339 59.569,92.509 59.580 C 92.934 59.608,99.200 56.438,99.200 56.196 C 99.200 55.924,99.370 55.849,95.600 57.800 M87.600 61.800 C 85.730 62.768,84.339 63.569,84.509 63.580 C 84.934 63.608,91.200 60.438,91.200 60.196 C 91.200 59.924,91.370 59.849,87.600 61.800 M79.600 65.800 C 77.730 66.768,76.339 67.569,76.509 67.580 C 76.934 67.608,83.200 64.438,83.200 64.196 C 83.200 63.924,83.370 63.849,79.600 65.800 M357.200 76.198 C 357.200 76.308,366.200 80.899,377.200 86.400 C 388.200 91.901,397.200 96.312,397.200 96.202 C 397.200 96.092,388.200 91.501,377.200 86.000 C 366.200 80.499,357.200 76.088,357.200 76.198 M244.546 161.268 C 243.235 161.902,242.800 163.328,242.800 166.986 C 242.800 171.954,242.544 172.320,240.331 170.514 C 239.254 169.635,239.151 169.603,239.789 170.344 C 240.223 170.848,241.064 171.547,241.658 171.898 C 242.445 172.363,242.843 173.034,243.122 174.368 C 243.455 175.961,243.512 176.035,243.553 174.933 C 243.597 173.740,243.721 173.640,245.688 173.219 C 247.495 172.831,252.800 170.274,252.800 169.790 C 252.800 169.697,251.441 170.336,249.781 171.210 C 247.572 172.373,246.284 172.800,244.981 172.800 L 243.200 172.800 243.200 168.044 C 243.200 161.273,242.988 161.462,250.863 161.180 L 257.000 160.959 251.200 160.907 C 247.906 160.877,245.031 161.033,244.546 161.268 M258.666 161.600 C 259.142 161.792,259.722 162.275,259.954 162.674 C 260.186 163.074,260.381 163.203,260.388 162.962 C 260.405 162.354,259.057 161.195,258.369 161.225 C 258.056 161.239,258.190 161.408,258.666 161.600 M260.032 164.374 C 260.014 164.690,259.600 165.410,259.111 165.974 L 258.223 167.000 259.359 165.943 C 259.984 165.362,260.398 164.642,260.279 164.343 C 260.105 163.905,260.057 163.911,260.032 164.374 M255.500 168.026 C 254.235 168.679,253.200 169.303,253.200 169.412 C 253.200 169.522,254.280 169.066,255.600 168.400 C 256.920 167.734,258.000 167.101,258.000 166.994 C 258.000 166.728,258.074 166.697,255.500 168.026 M299.758 175.400 C 299.758 178.480,299.821 179.687,299.897 178.082 C 299.973 176.478,299.973 173.958,299.896 172.482 C 299.819 171.007,299.757 172.320,299.758 175.400 M208.140 174.000 C 208.140 175.870,208.209 176.635,208.293 175.700 C 208.377 174.765,208.377 173.235,208.293 172.300 C 208.209 171.365,208.140 172.130,208.140 174.000 M206.131 173.800 C 206.133 175.340,206.205 175.921,206.292 175.091 C 206.379 174.261,206.377 173.001,206.289 172.291 C 206.200 171.581,206.129 172.260,206.131 173.800 M255.186 174.300 L 253.000 176.600 255.300 174.414 C 257.437 172.382,257.783 172.000,257.486 172.000 C 257.424 172.000,256.389 173.035,255.186 174.300 M205.632 177.969 C 205.614 178.281,205.292 178.911,204.915 179.369 C 204.269 180.153,204.283 180.151,205.162 179.342 C 205.675 178.870,205.997 178.240,205.879 177.942 C 205.704 177.503,205.657 177.508,205.632 177.969 M244.178 190.800 C 244.178 197.730,244.233 200.565,244.299 197.100 C 244.366 193.635,244.366 187.965,244.299 184.500 C 244.233 181.035,244.178 183.870,244.178 190.800 M172.575 183.300 L 171.400 184.600 172.700 183.425 C 173.912 182.330,174.184 182.000,173.875 182.000 C 173.806 182.000,173.221 182.585,172.575 183.300 M225.314 186.600 C 225.317 187.700,225.395 188.103,225.487 187.495 C 225.579 186.886,225.577 185.986,225.482 185.495 C 225.387 185.003,225.311 185.500,225.314 186.600 M266.551 196.000 C 266.551 198.530,266.616 199.565,266.696 198.300 C 266.775 197.035,266.775 194.965,266.696 193.700 C 266.616 192.435,266.551 193.470,266.551 196.000 M115.346 196.200 C 115.347 198.400,115.414 199.249,115.495 198.087 C 115.576 196.924,115.576 195.124,115.493 194.087 C 115.411 193.049,115.345 194.000,115.346 196.200 M248.534 199.600 C 248.534 201.250,248.605 201.925,248.691 201.100 C 248.778 200.275,248.778 198.925,248.691 198.100 C 248.605 197.275,248.534 197.950,248.534 199.600 M268.800 205.325 C 268.800 205.394,269.385 205.979,270.100 206.625 L 271.400 207.800 270.225 206.500 C 269.130 205.288,268.800 205.016,268.800 205.325 M132.100 209.899 C 134.685 209.968,138.915 209.968,141.500 209.899 C 144.085 209.829,141.970 209.772,136.800 209.772 C 131.630 209.772,129.515 209.829,132.100 209.899 M282.900 209.899 C 285.485 209.968,289.715 209.968,292.300 209.899 C 294.885 209.829,292.770 209.772,287.600 209.772 C 282.430 209.772,280.315 209.829,282.900 209.899 M226.140 218.000 C 226.140 219.870,226.209 220.635,226.293 219.700 C 226.377 218.765,226.377 217.235,226.293 216.300 C 226.209 215.365,226.140 216.130,226.140 218.000 M8.400 297.799 C 8.400 297.909,19.380 303.489,32.800 310.200 C 46.220 316.911,57.200 322.311,57.200 322.201 C 57.200 322.091,46.220 316.511,32.800 309.800 C 19.380 303.089,8.400 297.689,8.400 297.799 M343.100 321.829 C 341.605 322.640,341.696 322.978,343.200 322.200 C 343.860 321.859,344.400 321.494,344.400 321.390 C 344.400 321.132,344.357 321.147,343.100 321.829 M266.000 370.600 C 265.010 371.130,264.342 371.572,264.516 371.582 C 264.941 371.606,268.000 370.034,268.000 369.792 C 268.000 369.527,268.017 369.520,266.000 370.600 M259.600 373.800 C 257.730 374.768,256.339 375.569,256.509 375.580 C 256.934 375.608,263.200 372.438,263.200 372.196 C 263.200 371.924,263.370 371.849,259.600 373.800 M251.600 377.800 C 249.730 378.768,248.339 379.569,248.509 379.580 C 248.934 379.608,255.200 376.438,255.200 376.196 C 255.200 375.924,255.370 375.849,251.600 377.800 M243.600 381.800 C 241.730 382.768,240.339 383.569,240.509 383.580 C 240.934 383.608,247.200 380.438,247.200 380.196 C 247.200 379.924,247.370 379.849,243.600 381.800 M235.600 385.800 C 233.730 386.768,232.339 387.569,232.509 387.580 C 232.934 387.608,239.200 384.438,239.200 384.196 C 239.200 383.924,239.370 383.849,235.600 385.800 M227.600 389.800 C 225.730 390.768,224.339 391.569,224.509 391.580 C 224.934 391.608,231.200 388.438,231.200 388.196 C 231.200 387.924,231.370 387.849,227.600 389.800 M219.600 393.800 C 217.730 394.768,216.339 395.569,216.509 395.580 C 216.934 395.608,223.200 392.438,223.200 392.196 C 223.200 391.924,223.370 391.849,219.600 393.800 M213.500 396.827 C 212.675 397.263,212.000 397.708,212.000 397.818 C 212.000 397.927,212.720 397.649,213.600 397.200 C 214.480 396.751,215.200 396.297,215.200 396.192 C 215.200 395.930,215.197 395.931,213.500 396.827 " stroke="none" fill="#c4bcbc" fill-rule="evenodd"></path></g></svg>